<?xml version="1.0" encoding="utf-8"?>
<!-- Generator: Adobe Illustrator 19.0.0, SVG Export Plug-In . SVG Version: 6.00 Build 0)  -->
<svg version="1.1" id="Layer_1" xmlns="http://www.w3.org/2000/svg" xmlns:xlink="http://www.w3.org/1999/xlink" x="0px" y="0px"
	 viewBox="0 0 6766.6 124.9" style="enable-background:new 0 0 6766.6 124.9;" xml:space="preserve">
<style type="text/css">
	.st0{fill:#F1582D;}
</style>
<g id="XMLID_4_">
	<path id="XMLID_5_" class="st0" d="M29.8,115.4H0l17.4-100h30L29.8,115.4z"/>
	<path id="XMLID_7_" class="st0" d="M142.1,45.4H80.4l-7,40.1h61.7l-5.3,30H61.5c-5.7,0-10.4-1.8-13.9-5.5
		c-3.6-3.8-5.4-8.4-5.4-13.8c0-0.7,0-1.4,0.1-2c0-0.7,0.1-1.3,0.2-2l9.2-53.3c1.1-6.4,4.3-11.9,9.7-16.5c5.4-4.5,11.4-6.8,17.8-6.8
		h68.3L142.1,45.4z"/>
	<path id="XMLID_9_" class="st0" d="M229.8,115.4h-30l6.9-38.3h-31.7l-6.8,38.3h-29.8l17.4-100h30l-6.8,38.3h31.6l6.8-38.3h30
		L229.8,115.4z"/>
	<path id="XMLID_11_" class="st0" d="M405.2,34.7c0,0.7,0,1.3-0.1,2c0,0.6-0.1,1.3-0.2,2l-2.7,15c-0.5,3.5-3.4,7.3-8.5,11.6
		c3,3.9,4.5,7.3,4.5,10v1.7L395.5,92c-1.1,6.3-4.3,11.9-9.7,16.6c-5.4,4.5-11.3,6.8-17.7,6.8h-71.5l17.4-100h71.7
		c5.7,0,10.3,1.8,14,5.5S405.2,29.2,405.2,34.7z M333.2,77.1l-1.5,8.3h35l1.5-8.3H333.2z M338.7,45.4l-1.5,8.3h35l1.5-8.3H338.7z"/>
	<path id="XMLID_15_" class="st0" d="M429.7,115.4h-29.8l17.4-100h30L429.7,115.4z"/>
	<path id="XMLID_17_" class="st0" d="M543.5,34.7c0,0.7,0,1.3-0.1,2c-0.1,0.6-0.2,1.3-0.3,2l-13.5,76.7h-30l12.4-70h-31.7l-12.3,70
		h-29.8l17.4-100H524c5.7,0,10.4,1.8,14.1,5.5S543.5,29.2,543.5,34.7z"/>
	<path id="XMLID_19_" class="st0" d="M700.3,45.4h-61.7l-7,40.1h31.6l1.5-8.3h-13.4l4-23.4h43.4L692.1,92c-1.1,6.5-4.4,12-9.8,16.6
		c-5.4,4.5-11.3,6.8-17.7,6.8h-45c-5.7,0-10.4-1.8-13.9-5.5c-3.6-3.8-5.4-8.4-5.4-13.8c0-0.7,0-1.4,0.1-2c0-0.7,0.1-1.3,0.2-2
		l9.2-53.3c1.1-6.4,4.3-11.9,9.7-16.5c5.4-4.5,11.4-6.8,17.8-6.8h68.3L700.3,45.4z"/>
	<path id="XMLID_21_" class="st0" d="M792.1,92c-1.1,6.5-4.4,12-9.8,16.6c-5.4,4.5-11.3,6.8-17.7,6.8h-45c-5.7,0-10.4-1.8-13.9-5.5
		c-3.6-3.8-5.4-8.4-5.4-13.8c0-0.7,0-1.4,0.1-2c0-0.7,0.1-1.3,0.2-2l13.3-76.6h30l-12.3,70h31.6l12.3-70h30L792.1,92z"/>
	<path id="XMLID_23_" class="st0" d="M892.1,92c-1.1,6.5-4.4,12-9.8,16.6c-5.4,4.5-11.3,6.8-17.7,6.8h-45c-5.7,0-10.4-1.8-13.9-5.5
		c-3.6-3.8-5.4-8.4-5.4-13.8c0-0.7,0-1.4,0.1-2c0-0.7,0.1-1.3,0.2-2l13.3-76.6h30l-12.3,70h31.6l12.3-70h30L892.1,92z"/>
	<path id="XMLID_25_" class="st0" d="M992.1,92c-1.1,6.5-4.4,12-9.8,16.6c-5.4,4.5-11.3,6.8-17.7,6.8h-45c-5.7,0-10.4-1.8-13.9-5.5
		c-3.6-3.8-5.4-8.4-5.4-13.8c0-0.7,0-1.4,0.1-2c0-0.7,0.1-1.3,0.2-2l13.3-76.6h30l-12.3,70h31.6l12.3-70h30L992.1,92z"/>
	<path id="XMLID_27_" class="st0" d="M1101.7,34.7c0,0.7,0,1.3-0.1,2c-0.1,0.6-0.2,1.3-0.3,2l-13.5,76.7h-30l12.4-70h-31.7l-12.3,70
		h-29.8l17.4-100h68.3c5.7,0,10.4,1.8,14.1,5.5S1101.7,29.2,1101.7,34.7z"/>
	<path id="XMLID_29_" class="st0" d="M1200.1,45.4h-61.7l-1.5,8.3h38.3c5.8,0,10.5,1.8,14.2,5.5s5.5,8.3,5.5,13.8c0,0.7,0,1.4-0.1,2
		s-0.2,1.3-0.3,2L1192,92c-1.1,6.5-4.4,12-9.8,16.6c-5.4,4.5-11.3,6.8-17.7,6.8h-68.1l5.1-30h61.7l1.5-8.3h-38.4
		c-5.8,0-10.5-1.8-14.1-5.5c-3.7-3.7-5.5-8.3-5.5-13.7c0-0.7,0-1.4,0.1-2.1c0-0.7,0.1-1.4,0.2-2.1l2.7-15c1.1-6.4,4.3-11.9,9.7-16.5
		c5.4-4.5,11.4-6.8,17.8-6.8h68.3L1200.1,45.4z"/>
	<path id="XMLID_31_" class="st0" d="M1300.1,45.4h-30.8l-12.3,70h-30l12.4-70h-30.8l5.3-30h91.7L1300.1,45.4z"/>
	<path id="XMLID_33_" class="st0" d="M1326.1,115.4h-29.8l17.4-100h30L1326.1,115.4z"/>
	<path id="XMLID_35_" class="st0" d="M1438.4,45.4h-61.7l-7,40.1h31.6l1.5-8.3h-13.4l4-23.4h43.4l-6.7,38.3
		c-1.1,6.5-4.4,12-9.8,16.6c-5.4,4.5-11.3,6.8-17.7,6.8h-45c-5.7,0-10.4-1.8-13.9-5.5c-3.6-3.8-5.4-8.4-5.4-13.8c0-0.7,0-1.4,0.1-2
		c0-0.7,0.1-1.3,0.2-2l9.2-53.3c1.1-6.4,4.3-11.9,9.7-16.5c5.4-4.5,11.4-6.8,17.8-6.8h68.3L1438.4,45.4z"/>
	<path id="XMLID_37_" class="st0" d="M1551.3,85.4h38.4l-5.3,30h-91.5l50.5-70h-38.3l5.3-30h91.7L1551.3,85.4z"/>
	<path id="XMLID_39_" class="st0" d="M1688.5,92c-1.1,6.5-4.4,12-9.8,16.6c-5.4,4.5-11.3,6.8-17.7,6.8h-45c-5.7,0-10.4-1.8-13.9-5.5
		c-3.6-3.8-5.4-8.4-5.4-13.8c0-0.7,0-1.4,0.1-2c0-0.7,0.1-1.3,0.2-2l13.3-76.6h30l-12.3,70h31.6l12.3-70h30L1688.5,92z"/>
	<path id="XMLID_41_" class="st0" d="M1859.3,115.4h-30l7.3-41.8l-31.5,41.8l-16.8-41.8l-7.3,41.8h-29.8l17.4-100h30l16.8,41.8
		l31.5-41.8h30L1859.3,115.4z"/>
	<path id="XMLID_43_" class="st0" d="M1897.6,115.4h-29.8l17.4-100h30L1897.6,115.4z"/>
	<path id="XMLID_45_" class="st0" d="M2001.6,45.4h-53.3l-1.5,8.3h53.3l-4,23.4h-53.3l-1.5,8.3h53.3l-5.3,30h-83.1l17.4-100h83.3
		L2001.6,45.4z"/>
	<path id="XMLID_47_" class="st0" d="M2101.6,45.4h-30.8l-12.3,70h-30l12.4-70H2010l5.3-30h91.7L2101.6,45.4z"/>
	<path id="XMLID_49_" class="st0" d="M2193.2,45.4h-53.3l-1.5,8.3h53.3l-4,23.4h-53.3l-1.5,8.3h53.3l-5.3,30h-83.1l17.4-100h83.3
		L2193.2,45.4z"/>
	<path id="XMLID_51_" class="st0" d="M2294.8,34.7c0,0.7,0,1.3-0.1,2c-0.1,0.6-0.2,1.3-0.3,2l-13.5,76.7h-30l12.4-70h-31.7l-12.3,70
		h-29.8l17.4-100h68.3c5.7,0,10.4,1.8,14.1,5.5S2294.8,29.2,2294.8,34.7z"/>
	<path id="XMLID_53_" class="st0" d="M2314.3,115.4h-24.8l4.5-25h24.8L2314.3,115.4z M2320.1,82.1h-25l11.8-66.7h25L2320.1,82.1z"/>
	<path id="XMLID_56_" class="st0" d="M2476.8,92c-1.1,6.5-4.4,12-9.8,16.6c-5.4,4.5-11.3,6.8-17.7,6.8h-45c-5.7,0-10.4-1.8-13.9-5.5
		c-3.6-3.8-5.4-8.4-5.4-13.8c0-0.7,0-1.4,0.1-2c0-0.7,0.1-1.3,0.2-2l13.3-76.6h30l-12.3,70h31.6l12.3-70h30L2476.8,92z"/>
	<path id="XMLID_58_" class="st0" d="M2586.4,34.7c0,0.7,0,1.3-0.1,2c-0.1,0.6-0.2,1.3-0.3,2l-13.5,76.7h-30l12.4-70h-31.7l-12.3,70
		h-29.8l17.4-100h68.3c5.7,0,10.4,1.8,14.1,5.5S2586.4,29.2,2586.4,34.7z"/>
	<path id="XMLID_60_" class="st0" d="M2684.8,45.4H2654l-12.3,70h-30l12.4-70h-30.8l5.3-30h91.7L2684.8,45.4z"/>
	<path id="XMLID_62_" class="st0" d="M2776.5,45.4h-53.3l-1.5,8.3h53.3l-4,23.4h-53.3l-1.5,8.3h53.3l-5.3,30H2681l17.4-100h83.3
		L2776.5,45.4z"/>
	<path id="XMLID_64_" class="st0" d="M2878.1,34.7c0,0.7,0,1.3-0.1,2c-0.1,0.6-0.2,1.3-0.3,2l-2.6,15c-0.6,3.4-3.4,7.3-8.5,11.6
		c3,3.7,4.5,7.1,4.5,10v1.7l-6.8,38.3h-30l6.9-38.3h-31.7l-6.8,38.3h-29.8l17.4-100h68.3c5.7,0,10.4,1.8,14.1,5.5
		S2878.1,29.2,2878.1,34.7z M2814.8,45.4l-1.5,8.3h31.6l1.5-8.3H2814.8z"/>
	<path id="XMLID_67_" class="st0" d="M3036.3,34.7c0,0.7,0,1.3-0.1,2c-0.1,0.6-0.2,1.3-0.3,2l-9.3,53.3c-1.1,6.5-4.4,12-9.8,16.6
		c-5.4,4.5-11.3,6.8-17.7,6.8h-45c-5.7,0-10.4-1.8-13.9-5.5c-3.6-3.8-5.4-8.4-5.4-13.8c0-0.7,0-1.4,0.1-2c0-0.7,0.1-1.3,0.2-2
		l9.2-53.3c1.1-6.4,4.3-11.9,9.7-16.5c5.4-4.5,11.4-6.8,17.8-6.8h45c5.7,0,10.4,1.8,14.1,5.5S3036.3,29.2,3036.3,34.7z M2973.1,45.4
		l-7,40.1h31.6l7-40.1H2973.1z"/>
	<path id="XMLID_70_" class="st0" d="M3134.8,45.4h-61.7l-1.5,8.3h38.3c5.8,0,10.5,1.8,14.2,5.5s5.5,8.2,5.5,13.7
		c0,0.7,0,1.4-0.1,2.1c-0.1,0.7-0.2,1.4-0.3,2.1l-2.6,14.9c-1.1,6.5-4.4,12-9.8,16.6c-5.4,4.5-11.3,6.8-17.7,6.8h-45
		c-5.7,0-10.4-1.8-13.9-5.5c-3.6-3.8-5.4-8.4-5.4-13.8c0-0.7,0-1.4,0.1-2c0-0.7,0.1-1.3,0.2-2l9.2-53.3c1.1-6.4,4.3-11.9,9.7-16.5
		c5.4-4.5,11.4-6.8,17.8-6.8h68.3L3134.8,45.4z M3067.6,77.1l-1.5,8.3h31.6l1.5-8.3H3067.6z"/>
	<path id="XMLID_73_" class="st0" d="M3236.3,34.5c0,0.7,0,1.4-0.1,2.1c-0.1,0.7-0.2,1.4-0.3,2.1l-2.6,15c-0.6,3.4-3.4,7.3-8.5,11.6
		c3.1,3.8,4.6,7.2,4.6,10c0,0.2,0,0.5,0,0.8c0,0.3-0.1,0.6-0.1,0.9l-2.6,14.9c-1.1,6.5-4.4,12-9.8,16.6c-5.4,4.5-11.3,6.8-17.7,6.8
		h-45c-5.7,0-10.4-1.8-13.9-5.5c-3.6-3.8-5.4-8.3-5.4-13.7c0-0.7,0-1.4,0.1-2.1c0-0.7,0.1-1.4,0.2-2.1l2.6-14.9
		c0.5-3.5,3.4-7.4,8.5-11.7c-3.1-3.7-4.7-7-4.7-10c0-0.3,0-0.6,0-0.9c0-0.3,0.1-0.6,0.1-0.8l2.7-15c1.1-6.4,4.3-11.9,9.7-16.5
		c5.4-4.5,11.4-6.8,17.8-6.8h45c5.7,0,10.4,1.8,14.1,5.5S3236.3,29.1,3236.3,34.5z M3167.6,77.1l-1.5,8.3h31.6l1.5-8.3H3167.6z
		 M3173.1,45.4l-1.5,8.3h31.6l1.5-8.3H3173.1z"/>
	<path id="XMLID_77_" class="st0" d="M3260.7,115.4h-29.8l17.4-100h30L3260.7,115.4z"/>
	<path id="XMLID_79_" class="st0" d="M3287.7,124.9l-23.7-4.3l40.4-114.8l24,4.3L3287.7,124.9z"/>
	<path id="XMLID_81_" class="st0" d="M3477.7,34.5c0,0.7,0,1.4-0.1,2.1c-0.1,0.7-0.2,1.4-0.3,2.1l-2.6,15c-0.6,3.4-3.4,7.3-8.5,11.6
		c3.1,3.8,4.6,7.2,4.6,10c0,0.2,0,0.5,0,0.8c0,0.3-0.1,0.6-0.1,0.9L3468,92c-1.1,6.5-4.4,12-9.8,16.6c-5.4,4.5-11.3,6.8-17.7,6.8
		h-45c-5.7,0-10.4-1.8-13.9-5.5c-3.6-3.8-5.4-8.3-5.4-13.7c0-0.7,0-1.4,0.1-2.1c0-0.7,0.1-1.4,0.2-2.1l2.6-14.9
		c0.5-3.5,3.4-7.4,8.5-11.7c-3.1-3.7-4.7-7-4.7-10c0-0.3,0-0.6,0-0.9c0-0.3,0.1-0.6,0.1-0.8l2.7-15c1.1-6.4,4.3-11.9,9.7-16.5
		c5.4-4.5,11.4-6.8,17.8-6.8h45c5.7,0,10.4,1.8,14.1,5.5S3477.7,29.1,3477.7,34.5z M3409,77.1l-1.5,8.3h31.6l1.5-8.3H3409z
		 M3414.5,45.4l-1.5,8.3h31.6l1.5-8.3H3414.5z"/>
	<path id="XMLID_85_" class="st0" d="M3563.8,115.4h-30l6.9-38.3H3479l10.8-61.7h30l-6.8,38.3h31.6l6.8-38.3h30L3563.8,115.4z"/>
	<path id="XMLID_87_" class="st0" d="M3734.4,45.4h-61.7l-1.5,8.3h38.3c5.8,0,10.5,1.8,14.2,5.5s5.5,8.2,5.5,13.7
		c0,0.7,0,1.4-0.1,2.1c-0.1,0.7-0.2,1.4-0.3,2.1l-2.6,14.9c-1.1,6.5-4.4,12-9.8,16.6c-5.4,4.5-11.3,6.8-17.7,6.8h-45
		c-5.7,0-10.4-1.8-13.9-5.5c-3.6-3.8-5.4-8.4-5.4-13.8c0-0.7,0-1.4,0.1-2c0-0.7,0.1-1.3,0.2-2l9.2-53.3c1.1-6.4,4.3-11.9,9.7-16.5
		c5.4-4.5,11.4-6.8,17.8-6.8h68.3L3734.4,45.4z M3667.2,77.1l-1.5,8.3h31.6l1.5-8.3H3667.2z"/>
	<path id="XMLID_90_" class="st0" d="M3835.9,34.7c0,0.7,0,1.3-0.1,2c-0.1,0.6-0.2,1.3-0.3,2l-2.6,15c-1.1,6.4-4.3,12-9.7,16.6
		c-5.4,4.5-11.3,6.8-17.7,6.8h-38.4l-1.5,8.3h61.7l-5.3,30h-91.5l6.7-38.3c1.1-6.5,4.3-12,9.6-16.5c5.3-4.6,11.2-6.9,17.7-6.9h38.3
		l1.5-8.3h-61.7l5.3-30h68.3c5.7,0,10.4,1.8,14.1,5.5S3835.9,29.2,3835.9,34.7z"/>
	<path id="XMLID_92_" class="st0" d="M3994.2,34.7c0,0.7,0,1.3-0.1,2c-0.1,0.6-0.2,1.3-0.3,2l-9.3,53.3c-1.1,6.5-4.4,12-9.8,16.6
		c-5.4,4.5-11.3,6.8-17.7,6.8h-68.1l5.1-30h61.7l1.5-8.3h-38.4c-5.8,0-10.5-1.8-14.1-5.5c-3.7-3.7-5.5-8.3-5.5-13.7
		c0-0.7,0-1.4,0.1-2.1c0-0.7,0.1-1.4,0.2-2.1l2.7-15c1.1-6.4,4.3-11.9,9.7-16.5c5.4-4.5,11.4-6.8,17.8-6.8h45
		c5.7,0,10.4,1.8,14.1,5.5S3994.2,29.2,3994.2,34.7z M3931,45.4l-1.5,8.3h31.6l1.5-8.3H3931z"/>
	<path id="XMLID_95_" class="st0" d="M4092.6,45.4H4031l-1.5,8.3h38.3c5.8,0,10.5,1.8,14.2,5.5s5.5,8.2,5.5,13.7
		c0,0.7,0,1.4-0.1,2.1c-0.1,0.7-0.2,1.4-0.3,2.1l-2.6,14.9c-1.1,6.5-4.4,12-9.8,16.6c-5.4,4.5-11.3,6.8-17.7,6.8h-45
		c-5.7,0-10.4-1.8-13.9-5.5c-3.6-3.8-5.4-8.4-5.4-13.8c0-0.7,0-1.4,0.1-2c0-0.7,0.1-1.3,0.2-2l9.2-53.3c1.1-6.4,4.3-11.9,9.7-16.5
		c5.4-4.5,11.4-6.8,17.8-6.8h68.3L4092.6,45.4z M4025.5,77.1l-1.5,8.3h31.6l1.5-8.3H4025.5z"/>
	<path id="XMLID_98_" class="st0" d="M4252.4,34.7c0,0.7,0,1.3-0.1,2c-0.1,0.6-0.2,1.3-0.3,2l-9.3,53.3c-1.1,6.5-4.4,12-9.8,16.6
		c-5.4,4.5-11.3,6.8-17.7,6.8h-68.1l5.1-30h61.7l1.5-8.3h-38.4c-5.8,0-10.5-1.8-14.1-5.5c-3.7-3.7-5.5-8.3-5.5-13.7
		c0-0.7,0-1.4,0.1-2.1c0-0.7,0.1-1.4,0.2-2.1l2.7-15c1.1-6.4,4.3-11.9,9.7-16.5c5.4-4.5,11.4-6.8,17.8-6.8h45
		c5.7,0,10.4,1.8,14.1,5.5S4252.4,29.2,4252.4,34.7z M4189.2,45.4l-1.5,8.3h31.6l1.5-8.3H4189.2z"/>
	<path id="XMLID_101_" class="st0" d="M4352.4,34.7c0,0.7,0,1.3-0.1,2c-0.1,0.6-0.2,1.3-0.3,2l-9.3,53.3c-1.1,6.5-4.4,12-9.8,16.6
		c-5.4,4.5-11.3,6.8-17.7,6.8h-45c-5.7,0-10.4-1.8-13.9-5.5c-3.6-3.8-5.4-8.4-5.4-13.8c0-0.7,0-1.4,0.1-2c0-0.7,0.1-1.3,0.2-2
		l9.2-53.3c1.1-6.4,4.3-11.9,9.7-16.5c5.4-4.5,11.4-6.8,17.8-6.8h45c5.7,0,10.4,1.8,14.1,5.5S4352.4,29.2,4352.4,34.7z M4289.2,45.4
		l-7,40.1h31.6l7-40.1H4289.2z"/>
	<path id="XMLID_104_" class="st0" d="M4510.7,34.7c0,0.7,0,1.3-0.1,2c-0.1,0.6-0.2,1.3-0.3,2L4501,92c-1.1,6.5-4.4,12-9.8,16.6
		c-5.4,4.5-11.3,6.8-17.7,6.8h-45c-5.7,0-10.4-1.8-13.9-5.5c-3.6-3.8-5.4-8.4-5.4-13.8c0-0.7,0-1.4,0.1-2c0-0.7,0.1-1.3,0.2-2
		l9.2-53.3c1.1-6.4,4.3-11.9,9.7-16.5c5.4-4.5,11.4-6.8,17.8-6.8h45c5.7,0,10.4,1.8,14.1,5.5S4510.7,29.2,4510.7,34.7z M4447.5,45.4
		l-7,40.1h31.6l7-40.1H4447.5z"/>
	<path id="XMLID_107_" class="st0" d="M4610.7,34.7c0,0.7,0,1.3-0.1,2c-0.1,0.6-0.2,1.3-0.3,2L4601,92c-1.1,6.5-4.4,12-9.8,16.6
		c-5.4,4.5-11.3,6.8-17.7,6.8h-68.1l17.4-100h68.3c5.7,0,10.4,1.8,14.1,5.5S4610.7,29.2,4610.7,34.7z M4547.5,45.4l-7,40.1h31.6
		l7-40.1H4547.5z"/>
	<path id="XMLID_110_" class="st0" d="M4700.8,45.4h-53.3l-1.5,8.3h53.3l-4,23.4h-53.3l-1.5,8.3h53.3l-5.3,30h-83.1l17.4-100h83.3
		L4700.8,45.4z"/>
	<path id="XMLID_112_" class="st0" d="M4802.3,34.7c0,0.7,0,1.3-0.1,2c-0.1,0.6-0.2,1.3-0.3,2l-2.6,15c-0.6,3.4-3.4,7.3-8.5,11.6
		c3,3.7,4.5,7.1,4.5,10v1.7l-6.8,38.3h-30l6.9-38.3h-31.7l-6.8,38.3H4697l17.4-100h68.3c5.7,0,10.4,1.8,14.1,5.5
		S4802.3,29.2,4802.3,34.7z M4739.1,45.4l-1.5,8.3h31.6l1.5-8.3H4739.1z"/>
	<path id="XMLID_115_" class="st0" d="M4966.3,34.7c0,0.7,0,1.3-0.1,2c-0.1,0.6-0.2,1.3-0.3,2l-9.3,53.3c-1.1,6.5-4.4,12-9.8,16.6
		c-5.4,4.5-11.3,6.8-17.7,6.8h-45c-5.7,0-10.4-1.8-13.9-5.5c-3.6-3.8-5.4-8.4-5.4-13.8c0-0.7,0-1.4,0.1-2c0-0.7,0.1-1.3,0.2-2
		l9.2-53.3c1.1-6.4,4.3-11.9,9.7-16.5c5.4-4.5,11.4-6.8,17.8-6.8h45c5.7,0,10.4,1.8,14.1,5.5S4966.3,29.2,4966.3,34.7z M4903.1,45.4
		l-7,40.1h31.6l7-40.1H4903.1z"/>
	<path id="XMLID_118_" class="st0" d="M5056.4,45.4h-53.3l-1.5,8.3h53.3l-4,23.4h-53.3l-6.8,38.3H4961l17.4-100h83.3L5056.4,45.4z"
		/>
	<path id="XMLID_120_" class="st0" d="M5148.1,45.4h-53.3l-1.5,8.3h53.3l-4,23.4h-53.3l-6.8,38.3h-29.8l17.4-100h83.3L5148.1,45.4z"
		/>
	<path id="XMLID_122_" class="st0" d="M5174.2,115.4h-29.8l17.4-100h30L5174.2,115.4z"/>
	<path id="XMLID_124_" class="st0" d="M5286.5,45.4h-61.7l-7,40.1h61.7l-5.3,30h-68.3c-5.7,0-10.4-1.8-13.9-5.5
		c-3.6-3.8-5.4-8.4-5.4-13.8c0-0.7,0-1.4,0.1-2c0-0.7,0.1-1.3,0.2-2l9.2-53.3c1.1-6.4,4.3-11.9,9.7-16.5c5.4-4.5,11.4-6.8,17.8-6.8
		h68.3L5286.5,45.4z"/>
	<path id="XMLID_126_" class="st0" d="M5378.1,45.4h-53.3l-1.5,8.3h53.3l-4,23.4h-53.3l-1.5,8.3h53.3l-5.3,30h-83.1l17.4-100h83.3
		L5378.1,45.4z"/>
	<path id="XMLID_128_" class="st0" d="M5596.3,34.7c0,0.7,0,1.3-0.1,2c-0.1,0.6-0.2,1.3-0.3,2l-2.6,15c-0.6,3.4-3.4,7.3-8.5,11.6
		c3,3.7,4.5,7.1,4.5,10v1.7l-6.8,38.3h-30l6.9-38.3h-31.7l-6.8,38.3H5491l17.4-100h68.3c5.7,0,10.4,1.8,14.1,5.5
		S5596.3,29.2,5596.3,34.7z M5533.1,45.4l-1.5,8.3h31.6l1.5-8.3H5533.1z"/>
	<path id="XMLID_131_" class="st0" d="M5686.4,45.4H5633l-1.5,8.3h53.3l-4,23.4h-53.3l-1.5,8.3h53.3l-5.3,30h-83.1l17.4-100h83.3
		L5686.4,45.4z"/>
	<path id="XMLID_133_" class="st0" d="M5788,34.7c0,0.7,0,1.3-0.1,2c-0.1,0.6-0.2,1.3-0.3,2l-13.5,76.7h-30l12.4-70h-31.7l-12.3,70
		h-29.8l17.4-100h68.3c5.7,0,10.4,1.8,14.1,5.5S5788,29.2,5788,34.7z"/>
	<path id="XMLID_135_" class="st0" d="M5886.4,45.4h-30.8l-12.3,70h-30l12.4-70h-30.8l5.3-30h91.7L5886.4,45.4z"/>
	<path id="XMLID_137_" class="st0" d="M5943.2,115.4l-1-13.3h-28.3l-5.6,13.3h-29.8l42.5-100h45l7.3,100H5943.2z M5938,45.4
		l-13.3,31.7h15.8L5938,45.4z"/>
	<path id="XMLID_140_" class="st0" d="M6073,45.4h-53.3l-1.5,8.3h53.3l-4,23.4h-53.3l-6.8,38.3h-29.8l17.4-100h83.3L6073,45.4z"/>
	<path id="XMLID_142_" class="st0" d="M6174.6,34.7c0,0.7,0,1.3-0.1,2c-0.1,0.6-0.2,1.3-0.3,2l-2.6,15c-0.6,3.4-3.4,7.3-8.5,11.6
		c3,3.7,4.5,7.1,4.5,10v1.7l-6.8,38.3h-30l6.9-38.3h-31.7l-6.8,38.3h-29.8l17.4-100h68.3c5.7,0,10.4,1.8,14.1,5.5
		S6174.6,29.2,6174.6,34.7z M6111.4,45.4l-1.5,8.3h31.6l1.5-8.3H6111.4z"/>
	<path id="XMLID_146_" class="st0" d="M6199.1,115.4h-29.8l17.4-100h30L6199.1,115.4z"/>
	<path id="XMLID_149_" class="st0" d="M6311.3,45.4h-30.8l-12.3,70h-30l12.4-70h-30.8l5.3-30h91.7L6311.3,45.4z"/>
	<path id="XMLID_151_" class="st0" d="M6366,85.4h38.4l-5.3,30h-91.5l50.5-70h-38.3l5.3-30h91.7L6366,85.4z"/>
	<path id="XMLID_153_" class="st0" d="M6439,115.4h-25l4.3-25h25L6439,115.4z"/>
	<path id="XMLID_155_" class="st0" d="M6544.6,45.4h-61.7l-7,40.1h61.7l-5.3,30H6464c-5.7,0-10.4-1.8-13.9-5.5
		c-3.6-3.8-5.4-8.4-5.4-13.8c0-0.7,0-1.4,0.1-2c0-0.7,0.1-1.3,0.2-2l9.2-53.3c1.1-6.4,4.3-11.9,9.7-16.5c5.4-4.5,11.4-6.8,17.8-6.8
		h68.3L6544.6,45.4z"/>
	<path id="XMLID_157_" class="st0" d="M6646.1,34.7c0,0.7,0,1.3-0.1,2c-0.1,0.6-0.2,1.3-0.3,2l-9.3,53.3c-1.1,6.5-4.4,12-9.8,16.6
		c-5.4,4.5-11.3,6.8-17.7,6.8h-45c-5.7,0-10.4-1.8-13.9-5.5c-3.6-3.8-5.4-8.4-5.4-13.8c0-0.7,0-1.4,0.1-2c0-0.7,0.1-1.3,0.2-2
		l9.2-53.3c1.1-6.4,4.3-11.9,9.7-16.5c5.4-4.5,11.4-6.8,17.8-6.8h45c5.7,0,10.4,1.8,14.1,5.5S6646.1,29.2,6646.1,34.7z M6582.9,45.4
		l-7,40.1h31.6l7-40.1H6582.9z"/>
	<path id="XMLID_160_" class="st0" d="M6748.9,115.4h-30l7.3-41.8l-31.5,41.8l-16.8-41.8l-7.3,41.8h-29.8l17.4-100h30l16.8,41.8
		l31.5-41.8h30L6748.9,115.4z"/>
</g>
<g id="XMLID_3_">
	<path id="XMLID_170_" class="st0" d="M5434.5,43.3l8.8,0c5.7,0,9.8,1.5,12.3,4.5c2.5,3,3.3,7.3,2.2,12.8l-1.6,8.8l6.3,0l6.1-32.8
		l-57.1,0.1l-10.7,57.5l78.9-0.2l-4,21.3l-79.9,0.2c-5.7,0-10.2-2-13.6-5.9c-3.3-4-4.5-8.7-3.5-14.2l11.1-59.7
		c1-5.6,4-10.3,8.8-14.3c4.8-3.9,10.1-5.9,15.8-5.9l59.1-0.1c5.7,0,10.2,1.9,13.6,5.9c3.3,3.9,4.5,8.7,3.5,14.2l-9.3,49.9l-54.7,0.1
		c-5.7,0-9.8-1.5-12.4-4.5c-2.6-3-3.3-7.3-2.3-12.8l1.4-7.4c1-5.6,3.4-9.8,7.1-12.9C5424.1,44.8,5428.8,43.3,5434.5,43.3z
		 M5426.7,69.4l14.4,0l2.1-11.4l-14.4,0L5426.7,69.4z"/>
</g>
<polygon id="XMLID_174_" class="st0" points="744.5,9.3 714.5,9.3 716.2,0 746.2,0 "/>
<polygon id="XMLID_173_" class="st0" points="806.4,9.3 776.4,9.3 778.1,0 808.1,0 "/>
<polygon id="XMLID_176_" class="st0" points="845,9.3 815,9.3 816.7,0 846.7,0 "/>
<polygon id="XMLID_175_" class="st0" points="906.9,9.3 876.9,9.3 878.6,0 908.6,0 "/>
<polygon id="XMLID_178_" class="st0" points="944.9,9.3 915,9.3 916.7,0 946.5,0 "/>
<polygon id="XMLID_177_" class="st0" points="1006.4,9.3 976.6,9.3 978.2,0 1008.1,0 "/>
</svg>
