<?xml version="1.0" encoding="utf-8"?>
<!-- Generator: Adobe Illustrator 19.0.0, SVG Export Plug-In . SVG Version: 6.00 Build 0)  -->
<svg version="1.1" id="Layer_1" xmlns="http://www.w3.org/2000/svg" xmlns:xlink="http://www.w3.org/1999/xlink" x="0px" y="0px"
	 viewBox="0 0 3861.3 1574.4" style="enable-background:new 0 0 3861.3 1574.4;" xml:space="preserve">
<style type="text/css">
	.st0{fill:#F1582D;}
	.st1{fill:#FFFFFF;}
	.st2{fill:#F1582D;stroke:#000000;stroke-miterlimit:10;}
	.st3{fill:#FFFFFF;stroke:#FFFFFF;stroke-miterlimit:10;}
</style>
<polygon id="XMLID_35_" class="st0" points="3731.8,904.7 0,908.6 129.5,180.9 3861.3,177 "/>
<polygon id="white_back" class="st1" points="3665.8,831.1 87.9,831.1 196.3,250.6 3774.1,250.6 "/>
<polygon id="XMLID_5_" class="st2" points="2206.5,85.9 1731.3,0.6 1563.6,988.1 2038.9,1073.3 "/>
<g id="XMLID_4_">
	<path id="XMLID_6_" class="st2" d="M639.7,444.2c0,2.2-0.1,4.2-0.3,6.2c-0.2,2-0.5,4.1-0.8,6.2l-8.3,47.2
		c-1.8,10.8-10.8,23-26.7,36.6c9.4,11.7,14.1,22.2,14.1,31.6v5.3L596.2,698h-94.5l21.7-120.5h-99.8L402.1,698h-93.8l54.9-314.6h215
		c18,0,32.7,5.8,44.3,17.3S639.7,426.7,639.7,444.2z M440.8,477.6l-4.6,26.3h99.6l4.8-26.3H440.8z"/>
	<path id="XMLID_11_" class="st2" d="M923.2,477.6H755.4l-4.6,26.3h167.8l-12.7,73.5H738.1l-4.6,26.3h167.8L884.5,698H622.9
		l54.9-314.6H940L923.2,477.6z"/>
	<path id="XMLID_13_" class="st2" d="M1242.8,444.2c0,2.2-0.1,4.2-0.3,6.2c-0.2,2-0.5,4.1-0.8,6.2L1199.3,698h-94.5l38.9-220.3H1044
		L1005.2,698h-93.8l54.9-314.6h215c18,0,32.7,5.8,44.3,17.3S1242.8,426.7,1242.8,444.2z"/>
	<path id="XMLID_15_" class="st2" d="M1552.6,477.6h-97L1416.9,698h-94.5l38.9-220.3h-97l16.6-94.3h288.5L1552.6,477.6z"/>
	<path id="XMLID_17_" class="st3" d="M1914.9,698l-3.2-41.9h-89.2l-17.7,41.9h-93.8l133.7-314.6h141.5l23,314.6H1914.9z
		 M1898.5,477.6l-41.9,99.8h49.8L1898.5,477.6z"/>
	<path id="XMLID_20_" class="st2" d="M2506.7,477.6H2339l-4.6,26.3h167.8l-12.7,73.5h-167.8L2300.2,698h-93.8l54.9-314.6h262.3
		L2506.7,477.6z"/>
	<path id="XMLID_22_" class="st2" d="M2826.4,444.2c0,2.2-0.1,4.2-0.3,6.2c-0.2,2-0.5,4.1-0.8,6.2l-8.3,47.2
		c-1.8,10.8-10.8,23-26.7,36.6c9.4,11.7,14.1,22.2,14.1,31.6v5.3L2782.8,698h-94.5l21.7-120.5h-99.8L2588.8,698H2495l54.9-314.6h215
		c18,0,32.7,5.8,44.3,17.3S2826.4,426.7,2826.4,444.2z M2627.5,477.6l-4.6,26.3h99.6l4.8-26.3H2627.5z"/>
	<path id="XMLID_25_" class="st2" d="M2903.4,698h-93.8l54.9-314.6h94.5L2903.4,698z"/>
	<path id="XMLID_27_" class="st2" d="M3256.7,477.6h-97L3120.9,698h-94.5l38.9-220.3h-97l16.6-94.3h288.5L3256.7,477.6z"/>
	<path id="XMLID_29_" class="st2" d="M3428.6,603.7h120.8l-16.8,94.3h-287.9l158.8-220.3H3283l16.6-94.3h288.5L3428.6,603.7z"/>
</g>
<polygon id="oback" class="st0" points="3341.3,1574.4 171.8,1574.4 239.8,1180.4 3409.3,1180.4 "/>
<polygon id="backwhite" class="st1" points="3283.3,1500.9 259.1,1500.9 298.5,1253.9 3322.7,1253.9 "/>
<g id="XMLID_51_">
	<path id="XMLID_52_" class="st0" d="M412.9,1427.4h-45l-7.3-100h30l5.2,69.9l29.8-69.9h30L412.9,1427.4z"/>
	<path id="XMLID_54_" class="st0" d="M537.7,1357.3h-53.3l-1.5,8.3h53.3l-4,23.4h-53.3l-1.5,8.3h53.3l-5.3,30h-83.1l17.4-100H543
		L537.7,1357.3z"/>
	<path id="XMLID_56_" class="st0" d="M639.3,1346.7c0,0.7,0,1.3-0.1,2c-0.1,0.6-0.2,1.3-0.3,2l-2.6,15c-0.6,3.4-3.4,7.3-8.5,11.6
		c3,3.7,4.5,7.1,4.5,10v1.7l-6.8,38.3h-30l6.9-38.3h-31.7l-6.8,38.3h-29.8l17.4-100h68.3c5.7,0,10.4,1.8,14.1,5.5
		S639.3,1341.2,639.3,1346.7z M576,1357.3l-1.5,8.3h31.6l1.5-8.3H576z"/>
	<path id="XMLID_59_" class="st0" d="M717,1427.4h-83.1l17.4-100h30l-12.3,70h53.3L717,1427.4z"/>
	<path id="XMLID_61_" class="st0" d="M821,1357.3h-53.3l-1.5,8.3h53.3l-4,23.4h-53.3l-1.5,8.3h53.3l-5.3,30h-83.1l17.4-100h83.3
		L821,1357.3z"/>
	<path id="XMLID_63_" class="st0" d="M847.1,1427.4h-29.8l17.4-100h30L847.1,1427.4z"/>
	<path id="XMLID_65_" class="st0" d="M947.1,1427.4h-30l6.9-38.3h-31.7l-6.8,38.3h-29.8l17.4-100h30l-6.8,38.3h31.6l6.8-38.3h30
		L947.1,1427.4z"/>
	<path id="XMLID_67_" class="st0" d="M1109.3,1357.3H1056l-1.5,8.3h53.3l-4,23.4h-53.3l-6.8,38.3h-29.8l17.4-100h83.3L1109.3,1357.3
		z"/>
	<path id="XMLID_69_" class="st0" d="M1201.2,1404c-1.1,6.5-4.4,12-9.8,16.6c-5.4,4.5-11.3,6.8-17.7,6.8h-45
		c-5.7,0-10.4-1.8-13.9-5.5c-3.6-3.8-5.4-8.4-5.4-13.8c0-0.7,0-1.4,0.1-2c0-0.7,0.1-1.3,0.2-2l13.3-76.6h30l-12.3,70h31.6l12.3-70
		h30L1201.2,1404z"/>
	<path id="XMLID_71_" class="st0" d="M1310.9,1346.7c0,0.7,0,1.3-0.1,2c-0.1,0.6-0.2,1.3-0.3,2l-2.6,15c-0.6,3.4-3.4,7.3-8.5,11.6
		c3,3.7,4.5,7.1,4.5,10v1.7l-6.8,38.3h-30l6.9-38.3h-31.7l-6.8,38.3h-29.8l17.4-100h68.3c5.7,0,10.4,1.8,14.1,5.5
		S1310.9,1341.2,1310.9,1346.7z M1247.7,1357.3l-1.5,8.3h31.6l1.5-8.3H1247.7z"/>
	<path id="XMLID_74_" class="st0" d="M1459.3,1357.3H1406l-1.5,8.3h53.3l-4,23.4h-53.3l-6.8,38.3h-29.8l17.4-100h83.3L1459.3,1357.3
		z"/>
	<path id="XMLID_76_" class="st0" d="M1516.2,1427.4l-1-13.3h-28.3l-5.6,13.3h-29.8l42.5-100h45l7.3,100H1516.2z M1511,1357.3
		l-13.3,31.7h15.8L1511,1357.3z"/>
	<path id="XMLID_79_" class="st0" d="M1642,1427.4h-30l6.9-38.3h-31.7l-6.8,38.3h-29.8l17.4-100h30l-6.8,38.3h31.6l6.8-38.3h30
		L1642,1427.4z"/>
	<path id="XMLID_81_" class="st0" d="M1755.8,1346.7c0,0.7,0,1.3-0.1,2c-0.1,0.6-0.2,1.3-0.3,2l-2.6,15c-0.6,3.4-3.4,7.3-8.5,11.6
		c3,3.7,4.5,7.1,4.5,10v1.7l-6.8,38.3h-30l6.9-38.3h-31.7l-6.8,38.3h-29.8l17.4-100h68.3c5.7,0,10.4,1.8,14.1,5.5
		S1755.8,1341.2,1755.8,1346.7z M1692.6,1357.3l-1.5,8.3h31.6l1.5-8.3H1692.6z"/>
	<path id="XMLID_84_" class="st0" d="M1808.9,1397.4h38.4l-5.3,30h-91.5l50.5-70h-38.3l5.3-30h91.7L1808.9,1397.4z"/>
	<path id="XMLID_86_" class="st0" d="M1945.9,1357.3h-53.3l-1.5,8.3h53.3l-4,23.4h-53.3l-1.5,8.3h53.3l-5.3,30h-83.1l17.4-100h83.3
		L1945.9,1357.3z"/>
	<path id="XMLID_88_" class="st0" d="M2037.8,1404c-1.1,6.5-4.4,12-9.8,16.6c-5.4,4.5-11.3,6.8-17.7,6.8h-45
		c-5.7,0-10.4-1.8-13.9-5.5c-3.6-3.8-5.4-8.4-5.4-13.8c0-0.7,0-1.4,0.1-2c0-0.7,0.1-1.3,0.2-2l13.3-76.6h30l-12.3,70h31.6l12.3-70
		h30L2037.8,1404z"/>
	<path id="XMLID_90_" class="st0" d="M2145.9,1357.3h-61.7l-7,40.1h31.6l1.5-8.3h-13.4l4-23.4h43.4l-6.7,38.3
		c-1.1,6.5-4.4,12-9.8,16.6c-5.4,4.5-11.3,6.8-17.7,6.8h-45c-5.7,0-10.4-1.8-13.9-5.5c-3.6-3.8-5.4-8.4-5.4-13.8c0-0.7,0-1.4,0.1-2
		c0-0.7,0.1-1.3,0.2-2l9.2-53.3c1.1-6.4,4.3-11.9,9.7-16.5c5.4-4.5,11.4-6.8,17.8-6.8h68.3L2145.9,1357.3z"/>
	<path id="XMLID_92_" class="st0" d="M2237.5,1357.3h-53.3l-1.5,8.3h53.3l-4,23.4h-53.3l-1.5,8.3h53.3l-5.3,30h-83.1l17.4-100h83.3
		L2237.5,1357.3z"/>
	<path id="XMLID_94_" class="st0" d="M2387.8,1404c-1.1,6.5-4.4,12-9.8,16.6c-5.4,4.5-11.3,6.8-17.7,6.8h-45
		c-5.7,0-10.4-1.8-13.9-5.5c-3.6-3.8-5.4-8.4-5.4-13.8c0-0.7,0-1.4,0.1-2c0-0.7,0.1-1.3,0.2-2l13.3-76.6h30l-12.3,70h31.6l12.3-70
		h30L2387.8,1404z"/>
	<path id="XMLID_96_" class="st0" d="M2497.4,1346.7c0,0.7,0,1.3-0.1,2c-0.1,0.6-0.2,1.3-0.3,2l-13.5,76.7h-30l12.4-70h-31.7
		l-12.3,70h-29.8l17.4-100h68.3c5.7,0,10.4,1.8,14.1,5.5S2497.4,1341.2,2497.4,1346.7z"/>
	<path id="XMLID_98_" class="st0" d="M2597.4,1346.7c0,0.7,0,1.3-0.1,2c-0.1,0.6-0.2,1.3-0.3,2l-9.3,53.3c-1.1,6.5-4.4,12-9.8,16.6
		c-5.4,4.5-11.3,6.8-17.7,6.8h-68.1l17.4-100h68.3c5.7,0,10.4,1.8,14.1,5.5S2597.4,1341.2,2597.4,1346.7z M2534.2,1357.3l-7,40.1
		h31.6l7-40.1H2534.2z"/>
	<path id="XMLID_101_" class="st0" d="M2754.1,1357.3h-61.7l-7,40.1h31.6l1.5-8.3h-13.4l4-23.4h43.4l-6.7,38.3
		c-1.1,6.5-4.4,12-9.8,16.6c-5.4,4.5-11.3,6.8-17.7,6.8h-45c-5.7,0-10.4-1.8-13.9-5.5c-3.6-3.8-5.4-8.4-5.4-13.8c0-0.7,0-1.4,0.1-2
		c0-0.7,0.1-1.3,0.2-2l9.2-53.3c1.1-6.4,4.3-11.9,9.7-16.5c5.4-4.5,11.4-6.8,17.8-6.8h68.3L2754.1,1357.3z"/>
	<path id="XMLID_103_" class="st0" d="M2845.7,1357.3h-53.3l-1.5,8.3h53.3l-4,23.4h-53.3l-1.5,8.3h53.3l-5.3,30h-83.1l17.4-100h83.3
		L2845.7,1357.3z"/>
	<path id="XMLID_105_" class="st0" d="M2947.3,1346.7c0,0.7,0,1.3-0.1,2c-0.1,0.6-0.2,1.3-0.3,2l-2.6,15c-0.6,3.4-3.4,7.3-8.5,11.6
		c3,3.7,4.5,7.1,4.5,10v1.7l-6.8,38.3h-30l6.9-38.3h-31.7l-6.8,38.3H2842l17.4-100h68.3c5.7,0,10.4,1.8,14.1,5.5
		S2947.3,1341.2,2947.3,1346.7z M2884.1,1357.3l-1.5,8.3h31.6l1.5-8.3H2884.1z"/>
	<path id="XMLID_108_" class="st0" d="M3002.6,1427.4l-1-13.3h-28.3l-5.6,13.3h-29.8l42.5-100h45l7.3,100H3002.6z M2997.4,1357.3
		l-13.3,31.7h15.8L2997.4,1357.3z"/>
	<path id="XMLID_111_" class="st0" d="M3140.8,1357.3h-30.8l-12.3,70h-30l12.4-70h-30.8l5.3-30h91.7L3140.8,1357.3z"/>
	<path id="XMLID_113_" class="st0" d="M3232.4,1357.3h-53.3l-1.5,8.3h53.3l-4,23.4h-53.3l-1.5,8.3h53.3l-5.3,30H3137l17.4-100h83.3
		L3232.4,1357.3z"/>
</g>
<polygon id="XMLID_125_" class="st0" points="1153.7,1324.1 1123.7,1324.1 1125.3,1314.7 1155.3,1314.7 "/>
<polygon id="XMLID_131_" class="st0" points="1215.3,1324.4 1185.3,1324.4 1187,1315.1 1217,1315.1 "/>
<polygon id="XMLID_127_" class="st0" points="2998.7,1324.4 2981.6,1324.4 2982.5,1315.1 2999.7,1315.1 "/>
<polygon id="XMLID_126_" class="st0" points="3026.2,1324.4 3009.1,1324.4 3010,1315.1 3027.2,1315.1 "/>
</svg>
