<?xml version="1.0" encoding="utf-8"?>
<!-- Generator: Adobe Illustrator 19.0.0, SVG Export Plug-In . SVG Version: 6.00 Build 0)  -->
<svg version="1.1" id="Ebene_1" xmlns="http://www.w3.org/2000/svg" xmlns:xlink="http://www.w3.org/1999/xlink" x="0px" y="0px"
	 viewBox="124 689 809.5 291.2" style="enable-background:new 124 689 809.5 291.2;" xml:space="preserve">
<style type="text/css">
	.st0{fill:#F1592D;}
	.st1{fill:#FFFFFF;}
	.st2{fill:#F1582D;}
</style>
<path class="st0" d="M551.2,855.9h-93.9c-5.8,0-10.5-4.7-10.5-10.5v-0.7l21.3-146.1c0.5-5.4,5-9.6,10.5-9.6h93.9
	c5.8,0,10.5,4.7,10.5,10.5v0.7l-21.3,146.1C561.2,851.7,556.7,855.9,551.2,855.9z"/>
<g>
	<g>
		<path class="st0" d="M901.7,845.6H134.5c-5.8,0-10.5-4.7-10.5-10.5v-0.7l21.3-126.2c0.5-5.4,5-9.6,10.5-9.6H923
			c5.8,0,10.5,4.7,10.5,10.5v0.7L912.2,836C911.8,841.4,907.2,845.6,901.7,845.6z M141.2,829.4h755.7l19.3-114.7H160.6L141.2,829.4z
			"/>
		<g>
			<path class="st0" d="M242.5,750.6c0,0.5,0,0.9-0.1,1.3s-0.1,0.9-0.2,1.3l-1.8,10.1c-0.4,2.3-2.3,4.9-5.7,7.9c2,2.5,3,4.8,3,6.8
				v1.1l-4.6,25.8h-20.2l4.6-25h-21.4l-4.6,25h-20l11.8-67.4h46.1c3.9,0,7,1.2,9.5,3.7C241.2,743.8,242.5,746.9,242.5,750.6z
				 M199.9,757.8l-1,6.4h21.3l1-6.4L199.9,757.8L199.9,757.8z"/>
			<path class="st0" d="M306.3,757.8h-35.9l-1,5.6h35.9l-2.7,15.8h-35.9l-1,5.6h35.9L298,805h-56l11.8-67.4H310L306.3,757.8z"/>
			<path class="st0" d="M378.2,750.6c0,0.5,0,0.9-0.1,1.3c0,0.4-0.1,0.9-0.2,1.3l-9.1,51.7h-20.2l8.3-47.2h-21.4l-8.3,47.2h-20.1
				l11.8-67.4H365c3.9,0,7,1.2,9.5,3.7C376.9,743.8,378.2,746.9,378.2,750.6z"/>
			<path class="st0" d="M439.8,757.8h-17.6l-8.3,47.2h-20.2l8.3-47.2h-18l3.6-20.2h55.8L439.8,757.8z"/>
			<path class="st1" d="M522.5,805l-0.7-9h-19.1l-3.8,9h-20.1l28.6-67.4h30.3l4.9,67.4H522.5z M519,757.8l-9,21.4h10.7L519,757.8z"
				/>
			<path class="st0" d="M653.7,757.8h-35.9l-1,6.4h34.1L648,780h-33.9l-4.6,25h-20.1l11.8-67.4h56.2L653.7,757.8z"/>
			<path class="st0" d="M723.7,750.6c0,0.5,0,0.9-0.1,1.3s-0.1,0.9-0.2,1.3l-1.8,10.1c-0.4,2.3-2.3,4.9-5.7,7.9c2,2.5,3,4.8,3,6.8
				v1.1l-4.6,25.8h-20.2l4.6-25h-21.4l-4.6,25h-20.1l11.8-67.4h46.1c3.9,0,7,1.2,9.5,3.7C722.5,743.8,723.7,746.9,723.7,750.6z
				 M681.1,757.8l-1,6.4h21.3l1-6.4L681.1,757.8L681.1,757.8z"/>
			<path class="st0" d="M742.7,805h-20.1l11.8-67.4h20.2L742.7,805z"/>
			<path class="st0" d="M813.9,757.8h-17.1l-8.3,47.2h-20.2l8.3-47.2h-18.2l3.6-20.2h55.6L813.9,757.8z"/>
			<path class="st0" d="M852.2,784.8h25.9l-3.6,20.2h-61.7l34-47.2H821l3.6-20.2h61.8L852.2,784.8z"/>
		</g>
	</g>
</g>
<g>
	<g id="XMLID_124_">
		<path id="XMLID_128_" class="st2" d="M253.7,909.6h-8.8l-1.4-19.6h5.9l1,13.7l5.8-13.7h5.8L253.7,909.6z"/>
		<path id="XMLID_130_" class="st2" d="M278.1,895.9h-10.4l-0.3,1.6h10.4l-0.8,4.6h-10.4l-0.3,1.6h10.4l-1,5.9h-16.3l3.4-19.6h16.3
			L278.1,895.9z"/>
		<path id="XMLID_133_" class="st2" d="M298,893.8c0,0.1,0,0.3,0,0.4s0,0.3-0.1,0.4l-0.5,2.9c-0.1,0.7-0.7,1.4-1.7,2.3
			c0.6,0.7,0.9,1.4,0.9,2v0.3l-1.3,7.5h-5.9l1.3-7.5h-6.2l-1.3,7.5h-5.8l3.4-19.6h13.4c1.1,0,2,0.4,2.8,1.1
			C297.6,891.8,298,892.7,298,893.8z M285.6,895.9l-0.3,1.6h6.2l0.3-1.6H285.6z"/>
		<path id="XMLID_136_" class="st2" d="M313.2,909.6h-16.3l3.4-19.6h5.9l-2.4,13.7h10.4L313.2,909.6z"/>
		<path id="XMLID_142_" class="st2" d="M333.5,895.9h-10.4l-0.3,1.6h10.4l-0.8,4.6H322l-0.3,1.6h10.4l-1,5.9h-16.3l3.4-19.6h16.3
			L333.5,895.9z"/>
		<path id="XMLID_144_" class="st2" d="M338.6,909.6h-5.8l3.4-19.6h5.9L338.6,909.6z"/>
		<path id="XMLID_148_" class="st2" d="M358.2,909.6h-5.9l1.3-7.5h-6.2l-1.3,7.5h-5.8l3.4-19.6h5.9l-1.3,7.5h6.2l1.3-7.5h5.9
			L358.2,909.6z"/>
		<path id="XMLID_150_" class="st2" d="M389.9,895.9h-10.4l-0.3,1.6h10.4l-0.8,4.6h-10.4l-1.3,7.5h-5.8l3.4-19.6H391L389.9,895.9z"
			/>
		<path id="XMLID_152_" class="st2" d="M407.9,905c-0.2,1.3-0.9,2.3-1.9,3.2c-1.1,0.9-2.2,1.3-3.5,1.3h-8.8c-1.1,0-2-0.4-2.7-1.1
			s-1.1-1.6-1.1-2.7c0-0.1,0-0.3,0-0.4c0-0.1,0-0.3,0-0.4l2.6-15h5.9l-2.4,13.7h6.2l2.4-13.7h5.9L407.9,905z"/>
		<path id="XMLID_154_" class="st2" d="M429.3,893.8c0,0.1,0,0.3,0,0.4s0,0.3-0.1,0.4l-0.5,2.9c-0.1,0.7-0.7,1.4-1.7,2.3
			c0.6,0.7,0.9,1.4,0.9,2v0.3l-1.3,7.5h-5.9l1.3-7.5h-6.2l-1.3,7.5h-5.8l3.4-19.6h13.4c1.1,0,2,0.4,2.8,1.1
			C429,891.8,429.3,892.7,429.3,893.8z M417,895.9l-0.3,1.6h6.2l0.3-1.6H417z"/>
		<path id="XMLID_161_" class="st2" d="M458.4,895.9H448l-0.3,1.6h10.4l-0.8,4.6h-10.4l-1.3,7.5h-5.8l3.4-19.6h16.3L458.4,895.9z"/>
		<path id="XMLID_165_" class="st2" d="M469.5,909.6l-0.2-2.6h-5.5l-1.1,2.6h-5.8l8.3-19.6h8.8l1.4,19.6H469.5z M468.5,895.9
			l-2.6,6.2h3.1L468.5,895.9z"/>
		<path id="XMLID_168_" class="st2" d="M494.1,909.6h-5.9l1.3-7.5h-6.2l-1.3,7.5h-5.8l3.4-19.6h5.9l-1.3,7.5h6.2l1.3-7.5h5.9
			L494.1,909.6z"/>
		<path id="XMLID_170_" class="st2" d="M516.4,893.8c0,0.1,0,0.3,0,0.4s0,0.3-0.1,0.4l-0.5,2.9c-0.1,0.7-0.7,1.4-1.7,2.3
			c0.6,0.7,0.9,1.4,0.9,2v0.3l-1.3,7.5h-5.9l1.3-7.5h-6.2l-1.3,7.5h-5.8l3.4-19.6h13.4c1.1,0,2,0.4,2.8,1.1
			C516,891.8,516.4,892.7,516.4,893.8z M504,895.9l-0.3,1.6h6.2l0.3-1.6H504z"/>
		<path id="XMLID_175_" class="st2" d="M526.8,903.7h7.5l-1,5.9h-17.9l9.9-13.7h-7.5l1-5.9h17.9L526.8,903.7z"/>
		<path id="XMLID_177_" class="st2" d="M553.5,895.9h-10.4l-0.3,1.6h10.4l-0.8,4.6H542l-0.3,1.6h10.4l-1,5.9h-16.3l3.4-19.6h16.3
			L553.5,895.9z"/>
		<path id="XMLID_179_" class="st2" d="M571.5,905c-0.2,1.3-0.9,2.3-1.9,3.2c-1.1,0.9-2.2,1.3-3.5,1.3h-8.8c-1.1,0-2-0.4-2.7-1.1
			c-0.7-0.7-1.1-1.6-1.1-2.7c0-0.1,0-0.3,0-0.4c0-0.1,0-0.3,0-0.4l2.6-15h5.9l-2.4,13.7h6.2l2.4-13.7h5.9L571.5,905z"/>
		<path id="XMLID_181_" class="st2" d="M592.7,895.9h-12.1l-1.4,7.8h6.2l0.3-1.6h-2.6l0.8-4.6h8.5l-1.3,7.5
			c-0.2,1.3-0.9,2.3-1.9,3.2c-1.1,0.9-2.2,1.3-3.5,1.3h-8.8c-1.1,0-2-0.4-2.7-1.1c-0.7-0.7-1.1-1.6-1.1-2.7c0-0.1,0-0.3,0-0.4
			s0-0.3,0-0.4l1.8-10.4c0.2-1.3,0.8-2.3,1.9-3.2s2.2-1.3,3.5-1.3h13.4L592.7,895.9z"/>
		<path id="XMLID_183_" class="st2" d="M610.6,895.9h-10.4l-0.3,1.6h10.4l-0.8,4.6h-10.4l-0.3,1.6h10.4l-1,5.9h-16.3l3.4-19.6h16.3
			L610.6,895.9z"/>
		<path id="XMLID_185_" class="st2" d="M640,905c-0.2,1.3-0.9,2.3-1.9,3.2c-1.1,0.9-2.2,1.3-3.5,1.3h-8.8c-1.1,0-2-0.4-2.7-1.1
			c-0.7-0.7-1.1-1.6-1.1-2.7c0-0.1,0-0.3,0-0.4c0-0.1,0-0.3,0-0.4l2.6-15h5.9l-2.4,13.7h6.2l2.4-13.7h5.9L640,905z"/>
		<path id="XMLID_187_" class="st2" d="M661.4,893.8c0,0.1,0,0.3,0,0.4s0,0.3-0.1,0.4l-2.6,15h-5.9l2.4-13.7H649l-2.4,13.7h-5.8
			l3.4-19.6h13.4c1.1,0,2,0.4,2.8,1.1S661.4,892.7,661.4,893.8z"/>
		<path id="XMLID_189_" class="st2" d="M681,893.8c0,0.1,0,0.3,0,0.4s0,0.3-0.1,0.4l-1.8,10.4c-0.2,1.3-0.9,2.3-1.9,3.2
			c-1.1,0.9-2.2,1.3-3.5,1.3h-13.3l3.4-19.6h13.4c1.1,0,2,0.4,2.8,1.1S681,892.7,681,893.8z M668.6,895.9l-1.4,7.8h6.2l1.4-7.8
			H668.6z"/>
		<path id="XMLID_192_" class="st2" d="M711.6,895.9h-12.1l-1.4,7.8h6.2l0.3-1.6H702l0.8-4.6h8.5L710,905c-0.2,1.3-0.9,2.3-1.9,3.2
			c-1.1,0.9-2.2,1.3-3.5,1.3h-8.8c-1.1,0-2-0.4-2.7-1.1c-0.7-0.7-1.1-1.6-1.1-2.7c0-0.1,0-0.3,0-0.4c0-0.1,0-0.3,0-0.4l1.8-10.4
			c0.2-1.3,0.8-2.3,1.9-3.2c1.1-0.9,2.2-1.3,3.5-1.3h13.4L711.6,895.9z"/>
		<path id="XMLID_194_" class="st2" d="M729.5,895.9h-10.4l-0.3,1.6h10.4l-0.8,4.6H718l-0.3,1.6h10.4l-1,5.9h-16.3l3.4-19.6h16.3
			L729.5,895.9z"/>
		<path id="XMLID_196_" class="st2" d="M749.4,893.8c0,0.1,0,0.3,0,0.4s0,0.3-0.1,0.4l-0.5,2.9c-0.1,0.7-0.7,1.4-1.7,2.3
			c0.6,0.7,0.9,1.4,0.9,2v0.3l-1.3,7.5h-5.9l1.3-7.5H736l-1.3,7.5h-5.8l3.4-19.6h13.4c1.1,0,2,0.4,2.8,1.1
			C749.1,891.8,749.4,892.7,749.4,893.8z M737,895.9l-0.3,1.6h6.2l0.3-1.6H737z"/>
		<path id="XMLID_199_" class="st2" d="M760.2,909.6L760,907h-5.5l-1.1,2.6h-5.8l8.3-19.6h8.8l1.4,19.6H760.2z M759.2,895.9
			l-2.6,6.2h3.1L759.2,895.9z"/>
		<path id="XMLID_202_" class="st2" d="M787.2,895.9h-6l-2.4,13.7h-5.9l2.4-13.7h-6l1-5.9h17.9L787.2,895.9z"/>
		<path id="XMLID_204_" class="st2" d="M805.2,895.9h-10.4l-0.3,1.6h10.4l-0.8,4.6h-10.4l-0.3,1.6h10.4l-1,5.9h-16.3l3.4-19.6h16.3
			L805.2,895.9z"/>
		<path id="XMLID_206_" class="st2" d="M190.6,940.2c-0.2,1.3-0.9,2.3-1.9,3.2c-1.1,0.9-2.2,1.3-3.5,1.3h-8.8c-1.1,0-2-0.4-2.7-1.1
			c-0.7-0.7-1.1-1.6-1.1-2.7c0-0.1,0-0.3,0-0.4c0-0.1,0-0.3,0-0.4l2.6-15h5.9l-2.4,13.7h6.2l2.4-13.7h5.9L190.6,940.2z"/>
		<path id="XMLID_208_" class="st2" d="M212.7,929c0,0.1,0,0.3,0,0.4s0,0.3,0,0.4l-0.5,2.9c-0.1,0.7-0.7,1.4-1.7,2.3
			c0.6,0.8,0.9,1.4,0.9,2v0.3l-0.5,2.9c-0.2,1.2-0.8,2.3-1.9,3.2s-2.2,1.3-3.5,1.3h-14l3.4-19.6h14c1.1,0,2,0.4,2.7,1.1
			C212.4,927,212.7,927.9,212.7,929z M198.7,937.3l-0.3,1.6h6.8l0.3-1.6H198.7z M199.7,931.1l-0.3,1.6h6.8l0.3-1.6H199.7z"/>
		<path id="XMLID_212_" class="st2" d="M230.4,931.1h-10.5l-0.3,1.6H230l-0.8,4.6h-10.3l-0.3,1.6H229l-1,5.9h-16.3l3.4-19.6h16.3
			L230.4,931.1z"/>
		<path id="XMLID_214_" class="st2" d="M250.2,929c0,0.1,0,0.3,0,0.4s0,0.3-0.1,0.4l-0.5,2.9c-0.1,0.7-0.7,1.4-1.7,2.3
			c0.6,0.7,0.9,1.4,0.9,2v0.3l-1.3,7.5h-5.9l1.3-7.5h-6.2l-1.3,7.5h-5.8l3.4-19.6h13.4c1.1,0,2,0.4,2.8,1.1
			C249.9,927,250.2,927.9,250.2,929z M237.9,931.1l-0.3,1.6h6.2l0.3-1.6H237.9z"/>
		<path id="XMLID_217_" class="st2" d="M269.5,931.1h-12.1l-0.3,1.6h7.5c1.1,0,2.1,0.4,2.8,1.1s1.1,1.6,1.1,2.7c0,0.1,0,0.3,0,0.4
			c0,0.1,0,0.3-0.1,0.4l-0.5,2.9c-0.2,1.3-0.9,2.3-1.9,3.2c-1.1,0.9-2.2,1.3-3.5,1.3h-13.3l1-5.9h12.1l0.3-1.6h-7.5
			c-1.1,0-2-0.4-2.8-1.1c-0.7-0.7-1.1-1.6-1.1-2.7c0-0.1,0-0.3,0-0.4c0-0.1,0-0.3,0-0.4l0.5-2.9c0.2-1.3,0.8-2.3,1.9-3.2
			c1.1-0.9,2.2-1.3,3.5-1.3h13.4L269.5,931.1z"/>
		<path id="XMLID_219_" class="st2" d="M274.6,944.8h-5.8l3.4-19.6h5.8L274.6,944.8z"/>
		<path id="XMLID_221_" class="st2" d="M294.9,931.1h-10.4l-0.3,1.6h10.4l-0.8,4.6h-10.4l-0.3,1.6h10.4l-1,5.9h-16.3l3.4-19.6H296
			L294.9,931.1z"/>
		<path id="XMLID_223_" class="st2" d="M314.8,929c0,0.1,0,0.3,0,0.4s0,0.3-0.1,0.4l-1.8,10.4c-0.2,1.3-0.9,2.3-1.9,3.2
			c-1.1,0.9-2.2,1.3-3.5,1.3h-13.3l3.4-19.6H311c1.1,0,2,0.4,2.8,1.1C314.6,926.9,314.8,927.9,314.8,929z M302.4,931.1l-1.4,7.8h6.2
			l1.4-7.8H302.4z"/>
		<path id="XMLID_226_" class="st2" d="M330,944.8h-16.3l3.4-19.6h5.9l-2.4,13.7H331L330,944.8z"/>
		<path id="XMLID_228_" class="st2" d="M350.4,940.2c-0.2,1.3-0.9,2.3-1.9,3.2c-1.1,0.9-2.2,1.3-3.5,1.3h-8.8c-1.1,0-2-0.4-2.7-1.1
			s-1.1-1.6-1.1-2.7c0-0.1,0-0.3,0-0.4c0-0.1,0-0.3,0-0.4l2.6-15h5.9l-2.4,13.7h6.2l2.4-13.7h5.9L350.4,940.2z"/>
		<path id="XMLID_230_" class="st2" d="M371.8,929c0,0.1,0,0.3,0,0.4s0,0.3-0.1,0.4l-2.6,15h-5.9l2.4-13.7h-6.2l-2.4,13.7h-5.8
			l3.4-19.6H368c1.1,0,2,0.4,2.8,1.1C371.6,927,371.8,927.9,371.8,929z"/>
		<path id="XMLID_232_" class="st2" d="M391.1,931.1H379l-1.4,7.8h6.2l0.3-1.6h-2.6l0.8-4.6h8.5l-1.3,7.5c-0.2,1.3-0.9,2.3-1.9,3.2
			c-1.1,0.9-2.2,1.3-3.5,1.3h-8.8c-1.1,0-2-0.4-2.7-1.1c-0.7-0.7-1.1-1.6-1.1-2.7c0-0.1,0-0.3,0-0.4s0-0.3,0-0.4l1.8-10.4
			c0.2-1.3,0.8-2.3,1.9-3.2s2.2-1.3,3.5-1.3h13.4L391.1,931.1z"/>
		<path id="XMLID_234_" class="st2" d="M410.6,931.1h-12.1l-0.3,1.6h7.5c1.1,0,2.1,0.4,2.8,1.1s1.1,1.6,1.1,2.7c0,0.1,0,0.3,0,0.4
			c0,0.1,0,0.3-0.1,0.4l-0.5,2.9c-0.2,1.3-0.9,2.3-1.9,3.2c-1.1,0.9-2.2,1.3-3.5,1.3h-13.3l1-5.9h12.1l0.3-1.6h-7.5
			c-1.1,0-2-0.4-2.8-1.1c-0.7-0.7-1.1-1.6-1.1-2.7c0-0.1,0-0.3,0-0.4c0-0.1,0-0.3,0-0.4l0.5-2.9c0.2-1.3,0.8-2.3,1.9-3.2
			s2.2-1.3,3.5-1.3h13.4L410.6,931.1z"/>
		<path id="XMLID_236_" class="st2" d="M430.2,931.1h-12.1l-0.3,1.6h7.5c1.1,0,2.1,0.4,2.8,1.1c0.7,0.7,1.1,1.6,1.1,2.7
			c0,0.1,0,0.3,0,0.4c0,0.1,0,0.3-0.1,0.4l-0.5,2.9c-0.2,1.3-0.9,2.3-1.9,3.2c-1.1,0.9-2.2,1.3-3.5,1.3h-13.3l1-5.9H423l0.3-1.6
			h-7.5c-1.1,0-2-0.4-2.8-1.1c-0.7-0.7-1.1-1.6-1.1-2.7c0-0.1,0-0.3,0-0.4c0-0.1,0-0.3,0-0.4l0.5-2.9c0.2-1.3,0.8-2.3,1.9-3.2
			s2.2-1.3,3.5-1.3h13.4L430.2,931.1z"/>
		<path id="XMLID_238_" class="st2" d="M448.1,931.1h-10.4l-0.3,1.6h10.4l-0.8,4.6h-10.4l-0.3,1.6h10.4l-1,5.9h-16.3l3.4-19.6h16.3
			L448.1,931.1z"/>
		<path id="XMLID_240_" class="st2" d="M468,929c0,0.1,0,0.3,0,0.4s0,0.3-0.1,0.4l-0.5,2.9c-0.1,0.7-0.7,1.4-1.7,2.3
			c0.6,0.7,0.9,1.4,0.9,2v0.3l-1.3,7.5h-5.9l1.3-7.5h-6.2l-1.3,7.5h-5.8l3.4-19.6h13.4c1.1,0,2,0.4,2.8,1.1S468,927.9,468,929z
			 M455.6,931.1l-0.3,1.6h6.2l0.3-1.6H455.6z"/>
		<path id="XMLID_243_" class="st2" d="M479.8,944.8H471l-1.4-19.6h5.9l1,13.7l5.8-13.7h5.9L479.8,944.8z"/>
		<path id="XMLID_245_" class="st2" d="M491.3,944.8h-5.8l3.4-19.6h5.9L491.3,944.8z"/>
		<path id="XMLID_247_" class="st2" d="M513.3,931.1h-12.1l-1.4,7.8h12.1l-1,5.9h-13.4c-1.1,0-2-0.4-2.7-1.1s-1.1-1.6-1.1-2.7
			c0-0.1,0-0.3,0-0.4c0-0.1,0-0.3,0-0.4l1.8-10.4c0.2-1.3,0.8-2.3,1.9-3.2s2.2-1.3,3.5-1.3h13.4L513.3,931.1z"/>
		<path id="XMLID_249_" class="st2" d="M531.2,931.1h-10.4l-0.3,1.6h10.4l-0.8,4.6h-10.4l-0.3,1.6h10.4l-1,5.9h-16.3l3.4-19.6h16.3
			L531.2,931.1z"/>
		<path id="XMLID_251_" class="st2" d="M585,931.1h-12.1l-0.3,1.6h7.5c1.1,0,2.1,0.4,2.8,1.1c0.7,0.7,1.1,1.6,1.1,2.7
			c0,0.1,0,0.3,0,0.4c0,0.1,0,0.3-0.1,0.4l-0.5,2.9c-0.2,1.3-0.9,2.3-1.9,3.2c-1.1,0.9-2.2,1.3-3.5,1.3h-13.3l1-5.9h12.1l0.3-1.6
			h-7.5c-1.1,0-2-0.4-2.8-1.1c-0.7-0.7-1.1-1.6-1.1-2.7c0-0.1,0-0.3,0-0.4c0-0.1,0-0.3,0-0.4l0.5-2.9c0.2-1.3,0.8-2.3,1.9-3.2
			c1.1-0.9,2.2-1.3,3.5-1.3H586L585,931.1z"/>
		<path id="XMLID_253_" class="st2" d="M604.9,929c0,0.1,0,0.3,0,0.4s0,0.3-0.1,0.4l-1.8,10.4c-0.2,1.3-0.9,2.3-1.9,3.2
			c-1.1,0.9-2.2,1.3-3.5,1.3h-8.8c-1.1,0-2-0.4-2.7-1.1c-0.7-0.7-1.1-1.6-1.1-2.7c0-0.1,0-0.3,0-0.4s0-0.3,0-0.4l1.8-10.4
			c0.2-1.3,0.8-2.3,1.9-3.2c1.1-0.9,2.2-1.3,3.5-1.3h8.8c1.1,0,2,0.4,2.8,1.1C604.5,927,604.9,927.9,604.9,929z M592.5,931.1
			l-1.4,7.8h6.2l1.4-7.8H592.5z"/>
		<path id="XMLID_256_" class="st2" d="M624.4,929c0,0.1,0,0.3,0,0.4s0,0.3-0.1,0.4l-2.6,15h-5.9l2.4-13.7H612l-2.4,13.7h-5.8
			l3.4-19.6h13.4c1.1,0,2,0.4,2.8,1.1C624,927,624.4,927.9,624.4,929z"/>
		<path id="XMLID_258_" class="st2" d="M644,929c0,0.1,0,0.3,0,0.4s0,0.3-0.1,0.4l-1.8,10.4c-0.2,1.3-0.9,2.3-1.9,3.2
			c-1.1,0.9-2.2,1.3-3.5,1.3h-13.3l3.4-19.6h13.4c1.1,0,2,0.4,2.8,1.1C643.6,927,644,927.9,644,929z M631.6,931.1l-1.4,7.8h6.2
			l1.4-7.8H631.6z"/>
		<path id="XMLID_261_" class="st2" d="M661.6,931.1h-10.4l-0.3,1.6h10.4l-0.8,4.6h-10.4l-0.3,1.6h10.4l-1,5.9h-16.3l3.4-19.6h16.3
			L661.6,931.1z"/>
		<path id="XMLID_263_" class="st2" d="M681.5,929c0,0.1,0,0.3,0,0.4s0,0.3-0.1,0.4l-0.5,2.9c-0.1,0.7-0.7,1.4-1.7,2.3
			c0.6,0.7,0.9,1.4,0.9,2v0.3l-1.3,7.5h-5.9l1.3-7.5H668l-1.3,7.5h-5.8l3.4-19.6h13.4c1.1,0,2,0.4,2.8,1.1
			C681.1,927,681.5,927.9,681.5,929z M669.1,931.1l-0.3,1.6h6.2l0.3-1.6H669.1z"/>
		<path id="XMLID_266_" class="st2" d="M700.7,931.1h-6l-2.4,13.7h-5.9l2.4-13.7h-6l1-5.9h17.9L700.7,931.1z"/>
		<path id="XMLID_268_" class="st2" d="M720.6,929c0,0.1,0,0.3,0,0.4s0,0.3-0.1,0.4l-0.5,2.9c-0.1,0.7-0.7,1.4-1.7,2.3
			c0.6,0.7,0.9,1.4,0.9,2v0.3l-1.3,7.5H712l1.3-7.5h-6.2l-1.3,7.5H700l3.4-19.6h13.4c1.1,0,2,0.4,2.8,1.1
			C720.2,927,720.6,927.9,720.6,929z M708.2,931.1l-0.3,1.6h6.2l0.3-1.6H708.2z"/>
		<path id="XMLID_271_" class="st2" d="M731.4,944.8l-0.2-2.6h-5.5l-1.1,2.6h-5.8l8.3-19.6h8.8l1.4,19.6H731.4z M730.4,931.1
			l-2.6,6.2h3.1L730.4,931.1z"/>
		<path id="XMLID_274_" class="st2" d="M758.7,929c0,0.1,0,0.3,0,0.4s0,0.3-0.1,0.4l-2.6,15h-5.9l2.4-13.7h-6.2l-2.4,13.7h-5.8
			l3.4-19.6h13.4c1.1,0,2,0.4,2.8,1.1C758.5,927,758.7,927.9,758.7,929z"/>
		<path id="XMLID_276_" class="st2" d="M777.9,931.1h-12.1l-0.3,1.6h7.5c1.1,0,2.1,0.4,2.8,1.1s1.1,1.6,1.1,2.7c0,0.1,0,0.3,0,0.4
			c0,0.1,0,0.3-0.1,0.4l-0.5,2.9c-0.2,1.3-0.9,2.3-1.9,3.2c-1.1,0.9-2.2,1.3-3.5,1.3h-13.3l1-5.9h12.1l0.3-1.6h-7.5
			c-1.1,0-2-0.4-2.8-1.1c-0.7-0.7-1.1-1.6-1.1-2.7c0-0.1,0-0.3,0-0.4c0-0.1,0-0.3,0-0.4l0.5-2.9c0.2-1.3,0.8-2.3,1.9-3.2
			c1.1-0.9,2.2-1.3,3.5-1.3H779L777.9,931.1z"/>
		<path id="XMLID_278_" class="st2" d="M797.8,929c0,0.1,0,0.3,0,0.4s0,0.3-0.1,0.4l-0.5,2.9c-0.2,1.3-0.8,2.3-1.9,3.2
			c-1.1,0.9-2.2,1.3-3.5,1.3h-7.5l-1.3,7.5h-5.8l3.4-19.6H794c1.1,0,2,0.4,2.8,1.1C797.4,927,797.8,927.9,797.8,929z M785.4,931.1
			l-0.3,1.6h6.2l0.3-1.6H785.4z"/>
		<path id="XMLID_281_" class="st2" d="M817.4,929c0,0.1,0,0.3,0,0.4s0,0.3-0.1,0.4l-1.8,10.4c-0.2,1.3-0.9,2.3-1.9,3.2
			c-1.1,0.9-2.2,1.3-3.5,1.3h-8.8c-1.1,0-2-0.4-2.7-1.1c-0.7-0.7-1.1-1.6-1.1-2.7c0-0.1,0-0.3,0-0.4s0-0.3,0-0.4l1.8-10.4
			c0.2-1.3,0.8-2.3,1.9-3.2c1.1-0.9,2.2-1.3,3.5-1.3h8.8c1.1,0,2,0.4,2.8,1.1C817,927,817.4,927.9,817.4,929z M805,931.1l-1.4,7.8
			h6.2l1.4-7.8H805z"/>
		<path id="XMLID_284_" class="st2" d="M836.9,929c0,0.1,0,0.3,0,0.4s0,0.3-0.1,0.4l-0.5,2.9c-0.1,0.7-0.7,1.4-1.7,2.3
			c0.6,0.7,0.9,1.4,0.9,2v0.3l-1.3,7.5h-5.9l1.3-7.5h-6.2l-1.3,7.5h-5.8l3.4-19.6h13.4c1.1,0,2,0.4,2.8,1.1
			C836.6,927,836.9,927.9,836.9,929z M824.5,931.1l-0.3,1.6h6.2l0.3-1.6H824.5z"/>
		<path id="XMLID_287_" class="st2" d="M856.2,931.1h-6l-2.4,13.7h-5.9l2.4-13.7h-6l1-5.9h17.9L856.2,931.1z"/>
		<path id="XMLID_289_" class="st2" d="M874.1,931.1h-10.4l-0.3,1.6h10.4l-0.8,4.6h-10.4l-0.3,1.6h10.4l-1,5.9h-16.3l3.4-19.6h16.3
			L874.1,931.1z"/>
	</g>
	<polygon id="XMLID_123_" class="st2" points="181.3,924.4 175.5,924.4 175.8,922 181.6,922 	"/>
	<polygon id="XMLID_122_" class="st2" points="193.4,924.5 187.5,924.5 187.8,922.1 193.7,922.1 	"/>
	<polygon id="XMLID_291_" class="st2" points="398.7,888.9 392.8,888.9 393.2,886.5 399,886.5 	"/>
	<polyline id="XMLID_4_" class="st2" points="410.6,889 404.8,889 405.1,886.6 410.9,886.6 	"/>
	<polygon id="XMLID_293_" class="st2" points="758.7,888.9 754.4,888.9 754.6,886.5 759,886.5 	"/>
	<polygon id="XMLID_292_" class="st2" points="765.8,888.9 761.4,888.9 761.7,886.5 766.1,886.5 	"/>
	<polygon id="XMLID_295_" class="st2" points="555.6,937.3 540.5,937.3 541.3,932.7 556.4,932.7 	"/>
</g>
<g>
	<path class="st0" d="M419.1,964c0,0.3,0,0.5-0.1,0.8l-1.9,10.7c-0.2,1.3-0.9,2.4-2,3.3c-1.1,0.9-2.3,1.4-3.5,1.4h-9
		c-1.1,0-2.1-0.4-2.8-1.1c-0.7-0.7-1.1-1.7-1.1-2.8c0-0.3,0-0.5,0.1-0.8l1.9-10.7c0.2-1.3,0.9-2.4,2-3.3s2.3-1.4,3.5-1.4h9
		c1.1,0,2.1,0.4,2.8,1.1C418.8,962,419.1,962.9,419.1,964z M412.8,966.2h-6.4l-1.4,8h6.4L412.8,966.2z"/>
	<path class="st0" d="M439.9,960.2l-1.1,6h-12.4l-0.3,1.7h7.7c1.2,0,2.1,0.4,2.8,1.1c0.7,0.7,1.1,1.6,1.1,2.7c0,0.3,0,0.6-0.1,0.8
		l-0.5,3c-0.2,1.3-0.9,2.4-2,3.3c-1.1,0.9-2.3,1.4-3.5,1.4h-9c-1.1,0-2.1-0.4-2.8-1.1c-0.7-0.7-1.1-1.7-1.1-2.8c0-0.3,0-0.5,0.1-0.8
		l1.9-10.7c0.2-1.3,0.9-2.4,2-3.3s2.3-1.4,3.5-1.4L439.9,960.2L439.9,960.2z M431.7,972.5h-6.4l-0.3,1.7h6.4L431.7,972.5z"/>
	<path class="st0" d="M459.9,960.2l-1.1,6h-12.4l-0.3,1.7h7.7c1.2,0,2.1,0.4,2.8,1.1c0.7,0.7,1.1,1.6,1.1,2.7c0,0.3,0,0.6-0.1,0.8
		l-0.5,3c-0.2,1.3-0.9,2.4-2,3.3c-1.1,0.9-2.3,1.4-3.5,1.4h-9c-1.1,0-2.1-0.4-2.8-1.1c-0.7-0.7-1.1-1.7-1.1-2.8c0-0.3,0-0.5,0.1-0.8
		l1.9-10.7c0.2-1.3,0.9-2.4,2-3.3s2.3-1.4,3.5-1.4L459.9,960.2L459.9,960.2z M451.7,972.5h-6.4l-0.3,1.7h6.4L451.7,972.5z"/>
	<path class="st0" d="M479.9,960.2l-3.5,20h-6l1.4-7.7h-12.3l2.2-12.3h6l-1.3,7.7h6.4l1.4-7.7H479.9z"/>
	<path class="st0" d="M511.5,960.2l-3.5,20h-6l1.4-7.7H491l2.2-12.3h6l-1.3,7.7h6.4l1.4-7.7H511.5z"/>
	<path class="st0" d="M519.1,960.2l-3.5,20h-6l3.5-20H519.1z"/>
	<path class="st0" d="M550.1,964c0,0.3,0,0.5-0.1,0.8l-0.5,3c-0.2,1.3-0.9,2.4-1.9,3.3c-1.1,0.9-2.2,1.4-3.5,1.4h-7.7l-0.3,1.7h12.4
		l-1.1,6H529l1.4-7.7c0.2-1.3,0.9-2.4,1.9-3.3c1.1-0.9,2.2-1.4,3.5-1.4h7.7l0.3-1.7h-12.3l1.1-6h13.7c1.1,0,2.1,0.4,2.8,1.1
		C549.8,961.9,550.1,962.9,550.1,964z"/>
	<path class="st0" d="M570,964c0,0.3,0,0.6-0.1,0.8l-0.5,3c-0.1,0.7-0.7,1.5-1.7,2.3c0.6,0.8,0.9,1.4,0.9,2c0,0.1,0,0.2,0,0.3
		l-0.6,3c-0.2,1.3-0.9,2.4-2,3.3c-1.1,0.9-2.3,1.4-3.5,1.4h-9c-1.1,0-2.1-0.4-2.8-1.1c-0.7-0.7-1.1-1.6-1.1-2.7c0-0.3,0-0.6,0.1-0.8
		l0.5-3c0.1-0.7,0.7-1.5,1.7-2.3c-0.6-0.8-0.9-1.4-0.9-2c0-0.1,0-0.2,0-0.3l0.6-3c0.2-1.3,0.9-2.4,2-3.3c1.1-0.9,2.3-1.4,3.5-1.4h9
		c1.1,0,2.1,0.4,2.8,1.1C569.7,962,570,962.9,570,964z M562.7,972.5h-6.4l-0.3,1.7h6.4L562.7,972.5z M563.7,966.2h-6.4l-0.3,1.7h6.4
		L563.7,966.2z"/>
	<path class="st0" d="M602.5,960.2l-1.1,6H589l-0.3,1.7h7.7c1.2,0,2.1,0.4,2.8,1.1c0.7,0.7,1.1,1.6,1.1,2.7c0,0.3,0,0.6-0.1,0.8
		l-0.5,3c-0.2,1.3-0.9,2.4-1.9,3.3c-1.1,0.9-2.3,1.4-3.6,1.4h-13.7l1.1-6H594l0.3-1.7h-7.7c-1.2,0-2.1-0.4-2.8-1.1
		c-0.7-0.7-1.1-1.7-1.1-2.8c0-0.3,0-0.5,0.1-0.8l1.4-7.7L602.5,960.2L602.5,960.2z"/>
	<path class="st0" d="M621.7,964c0,0.3,0,0.6-0.1,0.8l-0.5,3c-0.1,0.7-0.7,1.5-1.7,2.3c0.6,0.8,1,1.4,1,2c0,0.1,0,0.2,0,0.3l-0.6,3
		c-0.2,1.3-0.9,2.4-2,3.3s-2.3,1.4-3.5,1.4h-9c-1.1,0-2.1-0.4-2.8-1.1s-1.1-1.6-1.1-2.7c0-0.3,0-0.6,0.1-0.8l0.5-3
		c0.1-0.7,0.7-1.5,1.7-2.3c-0.6-0.8-1-1.4-1-2c0-0.1,0-0.2,0-0.3l0.6-3c0.2-1.3,0.9-2.4,2-3.3c1.1-0.9,2.3-1.4,3.5-1.4h9
		c1.1,0,2.1,0.4,2.8,1.1S621.7,962.9,621.7,964z M614.3,972.5h-6.4l-0.3,1.7h6.4L614.3,972.5z M615.4,966.2H609l-0.3,1.7h6.4
		L615.4,966.2z"/>
	<path class="st0" d="M641.7,964c0,0.3,0,0.6-0.1,0.8l-0.5,3c-0.1,0.7-0.7,1.5-1.7,2.3c0.6,0.8,1,1.4,1,2c0,0.1,0,0.2,0,0.3l-0.6,3
		c-0.2,1.3-0.9,2.4-2,3.3s-2.3,1.4-3.5,1.4h-9c-1.1,0-2.1-0.4-2.8-1.1s-1.1-1.6-1.1-2.7c0-0.3,0-0.6,0.1-0.8l0.5-3
		c0.1-0.7,0.7-1.5,1.7-2.3c-0.6-0.8-1-1.4-1-2c0-0.1,0-0.2,0-0.3l0.6-3c0.2-1.3,0.9-2.4,2-3.3c1.1-0.9,2.3-1.4,3.5-1.4h9
		c1.1,0,2.1,0.4,2.8,1.1S641.7,962.9,641.7,964z M634.3,972.5h-6.4l-0.3,1.7h6.4L634.3,972.5z M635.4,966.2H629l-0.3,1.7h6.4
		L635.4,966.2z"/>
</g>
</svg>
