<?xml version="1.0" encoding="utf-8"?>
<!-- Generator: Adobe Illustrator 19.0.0, SVG Export Plug-In . SVG Version: 6.00 Build 0)  -->
<svg version="1.1" id="Layer_1" xmlns="http://www.w3.org/2000/svg" xmlns:xlink="http://www.w3.org/1999/xlink" x="0px" y="0px"
	 viewBox="0 0 3861.3 1073.9" style="enable-background:new 0 0 3861.3 1073.9;" xml:space="preserve">
<style type="text/css">
	.st0{fill:#F1582D;}
	.st1{fill:#FFFFFF;}
	.st2{fill:#F1582D;stroke:#000000;stroke-miterlimit:10;}
	.st3{fill:#4A4849;stroke:#FFFFFF;stroke-miterlimit:10;}
</style>
<polygon id="XMLID_35_" class="st0" points="3731.8,904.7 0,908.6 129.5,180.9 3861.3,177 "/>
<polygon id="white_back" class="st1" points="3665.8,831.1 87.9,831.1 196.3,250.6 3774.1,250.6 "/>
<polygon id="XMLID_5_" class="st2" points="2206.5,85.9 1731.3,0.6 1563.6,988.1 2038.9,1073.3 "/>
<g id="XMLID_4_">
	<path id="XMLID_6_" class="st2" d="M639.7,444.2c0,2.2-0.1,4.2-0.3,6.2c-0.2,2-0.5,4.1-0.8,6.2l-8.3,47.2
		c-1.8,10.8-10.8,23-26.7,36.6c9.4,11.7,14.1,22.2,14.1,31.6v5.3L596.2,698h-94.5l21.7-120.5h-99.8L402.1,698h-93.8l54.9-314.6h215
		c18,0,32.7,5.8,44.3,17.3S639.7,426.7,639.7,444.2z M440.8,477.6l-4.6,26.3h99.6l4.8-26.3H440.8z"/>
	<path id="XMLID_11_" class="st2" d="M923.2,477.6H755.4l-4.6,26.3h167.8l-12.7,73.5H738.1l-4.6,26.3h167.8L884.5,698H622.9
		l54.9-314.6H940L923.2,477.6z"/>
	<path id="XMLID_13_" class="st2" d="M1242.8,444.2c0,2.2-0.1,4.2-0.3,6.2c-0.2,2-0.5,4.1-0.8,6.2L1199.3,698h-94.5l38.9-220.3H1044
		L1005.2,698h-93.8l54.9-314.6h215c18,0,32.7,5.8,44.3,17.3S1242.8,426.7,1242.8,444.2z"/>
	<path id="XMLID_15_" class="st2" d="M1552.6,477.6h-97L1416.9,698h-94.5l38.9-220.3h-97l16.6-94.3h288.5L1552.6,477.6z"/>
	<path id="XMLID_17_" class="st3" d="M1914.9,698l-3.2-41.9h-89.2l-17.7,41.9h-93.8l133.7-314.6h141.5l23,314.6H1914.9z
		 M1898.5,477.6l-41.9,99.8h49.8L1898.5,477.6z"/>
	<path id="XMLID_20_" class="st2" d="M2506.7,477.6H2339l-4.6,26.3h167.8l-12.7,73.5h-167.8L2300.2,698h-93.8l54.9-314.6h262.3
		L2506.7,477.6z"/>
	<path id="XMLID_22_" class="st2" d="M2826.4,444.2c0,2.2-0.1,4.2-0.3,6.2c-0.2,2-0.5,4.1-0.8,6.2l-8.3,47.2
		c-1.8,10.8-10.8,23-26.7,36.6c9.4,11.7,14.1,22.2,14.1,31.6v5.3L2782.8,698h-94.5l21.7-120.5h-99.8L2588.8,698H2495l54.9-314.6h215
		c18,0,32.7,5.8,44.3,17.3S2826.4,426.7,2826.4,444.2z M2627.5,477.6l-4.6,26.3h99.6l4.8-26.3H2627.5z"/>
	<path id="XMLID_25_" class="st2" d="M2903.4,698h-93.8l54.9-314.6h94.5L2903.4,698z"/>
	<path id="XMLID_27_" class="st2" d="M3256.7,477.6h-97L3120.9,698h-94.5l38.9-220.3h-97l16.6-94.3h288.5L3256.7,477.6z"/>
	<path id="XMLID_29_" class="st2" d="M3428.6,603.7h120.8l-16.8,94.3h-287.9l158.8-220.3H3283l16.6-94.3h288.5L3428.6,603.7z"/>
</g>
</svg>
