<?xml version="1.0" encoding="utf-8"?>
<!-- Generator: Adobe Illustrator 19.0.0, SVG Export Plug-In . SVG Version: 6.00 Build 0)  -->
<svg version="1.1" id="Ebene_1" xmlns="http://www.w3.org/2000/svg" xmlns:xlink="http://www.w3.org/1999/xlink" x="0px" y="0px"
	 viewBox="-148 321.2 809.5 255.8" style="enable-background:new -148 321.2 809.5 255.8;" xml:space="preserve">
<style type="text/css">
	.st0{fill:#F1592D;}
	.st1{fill:#FFFFFF;}
	.st2{fill:#F1582D;}
</style>
<path class="st0" d="M279.2,488.1h-93.9c-5.8,0-10.5-4.7-10.5-10.5v-0.7l21.3-146.1c0.5-5.4,5-9.6,10.5-9.6h93.9
	c5.8,0,10.5,4.7,10.5,10.5v0.7l-21.3,146.1C289.2,483.9,284.7,488.1,279.2,488.1z"/>
<g>
	<g>
		<path class="st0" d="M629.7,477.8h-767.2c-5.8,0-10.5-4.7-10.5-10.5v-0.7l21.3-126.2c0.5-5.4,5-9.6,10.5-9.6H651
			c5.8,0,10.5,4.7,10.5,10.5v0.7l-21.3,126.2C639.8,473.6,635.2,477.8,629.7,477.8z M-130.8,461.6h755.7l19.3-114.7h-755.6
			L-130.8,461.6z"/>
		<g>
			<path class="st0" d="M-29.5,382.8c0,0.5,0,0.9-0.1,1.3c-0.1,0.4-0.1,0.9-0.2,1.3l-1.8,10.1c-0.4,2.3-2.3,4.9-5.7,7.9
				c2,2.5,3,4.8,3,6.8v1.1l-4.6,25.8h-20.2l4.6-25h-21.4l-4.6,25h-20l11.8-67.4h46.1c3.9,0,7,1.2,9.5,3.7
				C-30.8,376-29.5,379.1-29.5,382.8z M-72.1,390l-1,6.4h21.3l1-6.4H-72.1z"/>
			<path class="st0" d="M34.3,390H-1.6l-1,5.6h35.9l-2.7,15.8H-5.3l-1,5.6h35.9L26,437.2h-56l11.8-67.4H38L34.3,390z"/>
			<path class="st0" d="M106.2,382.8c0,0.5,0,0.9-0.1,1.3c0,0.4-0.1,0.9-0.2,1.3l-9.1,51.7H76.6l8.3-47.2H63.5l-8.3,47.2H35.1
				l11.8-67.4H93c3.9,0,7,1.2,9.5,3.7C104.9,376,106.2,379.1,106.2,382.8z"/>
			<path class="st0" d="M167.8,390h-17.6l-8.3,47.2h-20.2L130,390h-18l3.6-20.2h55.8L167.8,390z"/>
			<path class="st1" d="M250.5,437.2l-0.7-9h-19.1l-3.8,9h-20.1l28.6-67.4h30.3l4.9,67.4H250.5z M247,390l-9,21.4h10.7L247,390z"/>
			<path class="st0" d="M381.7,390h-35.9l-1,6.4h34.1l-2.9,15.8h-33.9l-4.6,25h-20.1l11.8-67.4h56.2L381.7,390z"/>
			<path class="st0" d="M451.7,382.8c0,0.5,0,0.9-0.1,1.3c-0.1,0.4-0.1,0.9-0.2,1.3l-1.8,10.1c-0.4,2.3-2.3,4.9-5.7,7.9
				c2,2.5,3,4.8,3,6.8v1.1l-4.6,25.8h-20.2l4.6-25h-21.4l-4.6,25h-20.1l11.8-67.4h46.1c3.9,0,7,1.2,9.5,3.7
				C450.5,376,451.7,379.1,451.7,382.8z M409.1,390l-1,6.4h21.3l1-6.4H409.1z"/>
			<path class="st0" d="M470.7,437.2h-20.1l11.8-67.4h20.2L470.7,437.2z"/>
			<path class="st0" d="M541.9,390h-17.1l-8.3,47.2h-20.2l8.3-47.2h-18.2l3.6-20.2h55.6L541.9,390z"/>
			<path class="st0" d="M580.2,417h25.9l-3.6,20.2h-61.7l34-47.2H549l3.6-20.2h61.8L580.2,417z"/>
		</g>
	</g>
</g>
<g>
	<g id="XMLID_124_">
		<path id="XMLID_206_" class="st2" d="M25.7,530.3c-0.3,1.7-1.2,3.1-2.5,4.3c-1.5,1.2-2.9,1.7-4.7,1.7H6.7c-1.5,0-2.7-0.5-3.6-1.5
			s-1.5-2.1-1.5-3.6c0-0.1,0-0.4,0-0.5c0-0.1,0-0.4,0-0.5l3.5-20.1H13l-3.2,18.4h8.3l3.2-18.4h7.9L25.7,530.3z"/>
		<path id="XMLID_208_" class="st2" d="M55.4,515.3c0,0.1,0,0.4,0,0.5c0,0.1,0,0.4,0,0.5l-0.7,3.9c-0.1,0.9-0.9,1.9-2.3,3.1
			c0.8,1.1,1.2,1.9,1.2,2.7v0.4l-0.7,3.9c-0.3,1.6-1.1,3.1-2.5,4.3s-2.9,1.7-4.7,1.7H26.9l4.6-26.3h18.8c1.5,0,2.7,0.5,3.6,1.5
			C55,512.6,55.4,513.8,55.4,515.3z M36.6,526.4l-0.4,2.1h9.1l0.4-2.1H36.6z M37.9,518.1l-0.4,2.1h9.1l0.4-2.1H37.9z"/>
		<path id="XMLID_212_" class="st2" d="M79.1,518.1H65l-0.4,2.1h13.9l-1.1,6.2H63.7l-0.4,2.1h13.9l-1.3,7.9H54l4.6-26.3h21.9
			L79.1,518.1z"/>
		<path id="XMLID_214_" class="st2" d="M105.6,515.3c0,0.1,0,0.4,0,0.5c0,0.1,0,0.4-0.1,0.5l-0.7,3.9c-0.1,0.9-0.9,1.9-2.3,3.1
			c0.8,0.9,1.2,1.9,1.2,2.7v0.4l-1.7,10.1h-7.9l1.7-10.1h-8.3l-1.7,10.1H78l4.6-26.3h18c1.5,0,2.7,0.5,3.8,1.5
			C105.2,512.6,105.6,513.8,105.6,515.3z M89.1,518.1l-0.4,2.1h8.3l0.4-2.1H89.1z"/>
		<path id="XMLID_217_" class="st2" d="M131.5,518.1h-16.2l-0.4,2.1h10.1c1.5,0,2.8,0.5,3.8,1.5c0.9,0.9,1.5,2.1,1.5,3.6
			c0,0.1,0,0.4,0,0.5c0,0.1,0,0.4-0.1,0.5l-0.7,3.9c-0.3,1.7-1.2,3.1-2.5,4.3c-1.5,1.2-2.9,1.7-4.7,1.7h-17.8l1.3-7.9h16.2l0.4-2.1
			h-10.1c-1.5,0-2.7-0.5-3.8-1.5c-0.9-0.9-1.5-2.1-1.5-3.6c0-0.1,0-0.4,0-0.5s0-0.4,0-0.5l0.7-3.9c0.3-1.7,1.1-3.1,2.5-4.3
			c1.5-1.2,2.9-1.7,4.7-1.7h18L131.5,518.1z"/>
		<path id="XMLID_219_" class="st2" d="M138.3,536.5h-7.8l4.6-26.3h7.8L138.3,536.5z"/>
		<path id="XMLID_221_" class="st2" d="M165.6,518.1h-13.9l-0.4,2.1h13.9l-1.1,6.2h-13.9l-0.4,2.1h13.9l-1.3,7.9h-21.9l4.6-26.3h22
			L165.6,518.1z"/>
		<path id="XMLID_223_" class="st2" d="M192.2,515.3c0,0.1,0,0.4,0,0.5c0,0.1,0,0.4-0.1,0.5l-2.4,13.9c-0.3,1.7-1.2,3.1-2.5,4.3
			c-1.5,1.2-2.9,1.7-4.7,1.7h-17.8l4.6-26.3h18c1.5,0,2.7,0.5,3.8,1.5C192,512.5,192.2,513.8,192.2,515.3z M175.6,518.1l-1.9,10.5
			h8.3l1.9-10.5H175.6z"/>
		<path id="XMLID_226_" class="st2" d="M212.6,536.5h-21.9l4.6-26.3h7.9l-3.2,18.4H214L212.6,536.5z"/>
		<path id="XMLID_228_" class="st2" d="M240,530.3c-0.3,1.7-1.2,3.1-2.5,4.3c-1.5,1.2-2.9,1.7-4.7,1.7h-11.8c-1.5,0-2.7-0.5-3.6-1.5
			c-0.9-0.9-1.5-2.1-1.5-3.6c0-0.1,0-0.4,0-0.5c0-0.1,0-0.4,0-0.5l3.5-20.1h7.9l-3.2,18.4h8.3l3.2-18.4h7.9L240,530.3z"/>
		<path id="XMLID_230_" class="st2" d="M268.7,515.3c0,0.1,0,0.4,0,0.5c0,0.1,0,0.4-0.1,0.5l-3.5,20.1h-7.9l3.2-18.4H252l-3.2,18.4
			H241l4.6-26.3h18c1.5,0,2.7,0.5,3.8,1.5C268.4,512.6,268.7,513.8,268.7,515.3z"/>
		<path id="XMLID_232_" class="st2" d="M294.5,518.1h-16.2l-1.9,10.5h8.3l0.4-2.1h-3.5l1.1-6.2h11.4l-1.7,10.1
			c-0.3,1.7-1.2,3.1-2.5,4.3c-1.5,1.2-2.9,1.7-4.7,1.7h-11.8c-1.5,0-2.7-0.5-3.6-1.5s-1.5-2.1-1.5-3.6c0-0.1,0-0.4,0-0.5
			s0-0.4,0-0.5l2.4-13.9c0.3-1.7,1.1-3.1,2.5-4.3c1.5-1.2,2.9-1.7,4.7-1.7h18L294.5,518.1z"/>
		<path id="XMLID_234_" class="st2" d="M320.7,518.1h-16.2l-0.4,2.1h10.1c1.5,0,2.8,0.5,3.8,1.5s1.5,2.1,1.5,3.6c0,0.1,0,0.4,0,0.5
			c0,0.1,0,0.4-0.1,0.5l-0.7,3.9c-0.3,1.7-1.2,3.1-2.5,4.3c-1.5,1.2-2.9,1.7-4.7,1.7h-17.8l1.3-7.9H311l0.4-2.1h-10.1
			c-1.5,0-2.7-0.5-3.8-1.5c-0.9-0.9-1.5-2.1-1.5-3.6c0-0.1,0-0.4,0-0.5s0-0.4,0-0.5l0.7-3.9c0.3-1.7,1.1-3.1,2.5-4.3
			c1.5-1.2,2.9-1.7,4.7-1.7h18L320.7,518.1z"/>
		<path id="XMLID_236_" class="st2" d="M347,518.1h-16.2l-0.4,2.1h10.1c1.5,0,2.8,0.5,3.8,1.5c0.9,0.9,1.5,2.1,1.5,3.6
			c0,0.1,0,0.4,0,0.5c0,0.1,0,0.4-0.1,0.5l-0.7,3.9c-0.3,1.7-1.2,3.1-2.5,4.3c-1.5,1.2-2.9,1.7-4.7,1.7h-17.8l1.3-7.9h16.2l0.4-2.1
			h-10.1c-1.5,0-2.7-0.5-3.8-1.5c-0.9-0.9-1.5-2.1-1.5-3.6c0-0.1,0-0.4,0-0.5s0-0.4,0-0.5l0.7-3.9c0.3-1.7,1.1-3.1,2.5-4.3
			c1.5-1.2,2.9-1.7,4.7-1.7h18L347,518.1z"/>
		<path id="XMLID_238_" class="st2" d="M371,518.1H357l-0.4,2.1h13.9l-1.1,6.2h-13.9l-0.4,2.1h13.9l-1.3,7.9h-21.9l4.6-26.3h21.9
			L371,518.1z"/>
		<path id="XMLID_240_" class="st2" d="M397.6,515.3c0,0.1,0,0.4,0,0.5c0,0.1,0,0.4-0.1,0.5l-0.7,3.9c-0.1,0.9-0.9,1.9-2.3,3.1
			c0.8,0.9,1.2,1.9,1.2,2.7v0.4l-1.7,10.1h-7.9l1.7-10.1h-8.3l-1.7,10.1H370l4.6-26.3h18c1.5,0,2.7,0.5,3.8,1.5
			C397.4,512.6,397.6,513.8,397.6,515.3z M381,518.1l-0.4,2.1h8.3l0.4-2.1H381z"/>
		<path id="XMLID_243_" class="st2" d="M413.4,536.5h-11.8l-1.9-26.3h7.9l1.3,18.4l7.8-18.4h7.9L413.4,536.5z"/>
		<path id="XMLID_245_" class="st2" d="M428.9,536.5h-7.8l4.6-26.3h7.9L428.9,536.5z"/>
		<path id="XMLID_247_" class="st2" d="M458.4,518.1h-16.2l-1.9,10.5h16.2l-1.3,7.9h-18c-1.5,0-2.7-0.5-3.6-1.5s-1.5-2.1-1.5-3.6
			c0-0.1,0-0.4,0-0.5c0-0.1,0-0.4,0-0.5l2.4-13.9c0.3-1.7,1.1-3.1,2.5-4.3c1.5-1.2,2.9-1.7,4.7-1.7h18L458.4,518.1z"/>
		<path id="XMLID_249_" class="st2" d="M482.4,518.1h-13.9l-0.4,2.1H482l-1.1,6.2h-13.9l-0.4,2.1h13.9l-1.3,7.9h-21.9l4.6-26.3h21.9
			L482.4,518.1z"/>
	</g>
	<polygon id="XMLID_123_" class="st2" points="13.3,509.2 5.5,509.2 5.9,505.9 13.7,505.9 	"/>
	<polygon id="XMLID_122_" class="st2" points="29.5,509.3 21.6,509.3 22,506.1 29.9,506.1 	"/>
</g>
</svg>
