<?xml version="1.0" encoding="utf-8"?>
<!-- Generator: Adobe Illustrator 19.0.0, SVG Export Plug-In . SVG Version: 6.00 Build 0)  -->
<svg version="1.1" id="Layer_1" xmlns="http://www.w3.org/2000/svg" xmlns:xlink="http://www.w3.org/1999/xlink" x="0px" y="0px"
	 viewBox="0 0 3332.5 882" style="enable-background:new 0 0 3332.5 882;" xml:space="preserve">
<style type="text/css">
	.st0{fill:#F1582D;}
	.st1{fill:#FFFFFF;}
</style>
<g id="XMLID_1_">
	<polygon id="XMLID_145_" class="st0" points="3178.1,882 0,881.8 154.5,0 3332.5,0.2 	"/>
	<polygon id="XMLID_148_" class="st1" points="3111.1,808.2 85,808.1 222.4,73.8 3248.5,74 	"/>
	<g id="XMLID_163_">
		<g id="XMLID_454_">
			<path id="XMLID_455_" class="st0" d="M926.3,418.9l8.8,0c5.7,0,9.8,1.5,12.3,4.5c2.5,3,3.3,7.3,2.2,12.8l-1.6,8.8l6.3,0l6.1-32.8
				l-57.1,0.1l-10.7,57.5l78.9-0.2l-4,21.3l-79.9,0.2c-5.7,0-10.2-2-13.6-5.9c-3.3-4-4.5-8.7-3.5-14.2l11.1-59.7
				c1-5.6,4-10.3,8.8-14.3c4.8-3.9,10.1-5.9,15.8-5.9l59.1-0.1c5.7,0,10.2,1.9,13.6,5.9c3.3,3.9,4.5,8.7,3.5,14.2l-9.3,49.9
				l-54.7,0.1c-5.7,0-9.8-1.5-12.4-4.5c-2.6-3-3.3-7.3-2.3-12.8l1.4-7.4c1-5.6,3.4-9.8,7.1-12.9
				C915.9,420.5,920.6,418.9,926.3,418.9z M918.6,445.1l14.4,0l2.1-11.4l-14.4,0L918.6,445.1z"/>
		</g>
		<path id="XMLID_452_" class="st0" d="M385.9,309.3h-30.2L373.3,208h30.4L385.9,309.3z"/>
		<path id="XMLID_450_" class="st0" d="M499.6,238.3h-62.5l-7.1,40.6h62.5l-5.4,30.4h-69.2c-5.8,0-10.5-1.9-14.1-5.6
			c-3.7-3.8-5.5-8.5-5.5-14c0-0.7,0-1.4,0.1-2c0-0.7,0.1-1.3,0.2-2l9.4-54c1.1-6.5,4.4-12.1,9.8-16.7c5.5-4.6,11.5-6.9,18-6.9H505
			L499.6,238.3z"/>
		<path id="XMLID_448_" class="st0" d="M588.5,309.3H558l7-38.8h-32.1l-6.9,38.8h-30.2L513.4,208h30.4l-6.9,38.8H569l6.9-38.8h30.4
			L588.5,309.3z"/>
		<path id="XMLID_444_" class="st0" d="M766.2,227.6c0,0.7,0,1.4-0.1,2c0,0.6-0.1,1.3-0.2,2l-2.7,15.2c-0.5,3.5-3.4,7.4-8.6,11.8
			c3.1,4,4.6,7.3,4.6,10.2v1.7l-2.7,15.1c-1.1,6.4-4.4,12-9.9,16.8c-5.4,4.6-11.4,6.9-18,6.9h-72.4L673.8,208h72.7
			c5.7,0,10.5,1.9,14.2,5.6S766.2,221.9,766.2,227.6z M693.3,270.5l-1.5,8.5h35.5l1.5-8.5H693.3z M698.8,238.3l-1.5,8.5h35.5
			l1.5-8.5H698.8z"/>
		<path id="XMLID_442_" class="st0" d="M791.1,309.3h-30.2L778.5,208H809L791.1,309.3z"/>
		<path id="XMLID_440_" class="st0" d="M906.4,227.6c0,0.7,0,1.4-0.1,2c-0.1,0.6-0.2,1.3-0.3,2l-13.7,77.7H862l12.5-71h-32.1
			l-12.5,71h-30.2L817.4,208h69.2c5.8,0,10.5,1.9,14.3,5.6S906.4,221.9,906.4,227.6z"/>
		<path id="XMLID_438_" class="st0" d="M1065.3,238.3h-62.5l-7.1,40.6h32.1l1.6-8.5h-13.6l4.1-23.7h43.9l-6.8,38.8
			c-1.1,6.6-4.5,12.2-9.9,16.8c-5.4,4.6-11.4,6.9-18,6.9h-45.6c-5.8,0-10.5-1.9-14.1-5.6c-3.7-3.8-5.5-8.5-5.5-14c0-0.7,0-1.4,0.1-2
			c0-0.7,0.1-1.3,0.2-2l9.4-54c1.1-6.5,4.4-12.1,9.8-16.7c5.5-4.6,11.5-6.9,18-6.9h69.2L1065.3,238.3z"/>
		<path id="XMLID_436_" class="st0" d="M1158.3,285.6c-1.1,6.6-4.5,12.2-9.9,16.8c-5.4,4.6-11.4,6.9-18,6.9h-45.6
			c-5.8,0-10.5-1.9-14.1-5.6c-3.7-3.8-5.5-8.5-5.5-14c0-0.7,0-1.4,0.1-2c0-0.7,0.1-1.3,0.2-2l13.5-77.6h30.4l-12.5,71h32.1l12.5-71
			h30.4L1158.3,285.6z"/>
		<path id="XMLID_434_" class="st0" d="M1269.4,227.6c0,0.7,0,1.4-0.1,2c-0.1,0.6-0.2,1.3-0.3,2l-13.7,77.7H1225l12.5-71h-32.1
			l-12.5,71h-30.2l17.7-101.3h69.2c5.8,0,10.5,1.9,14.3,5.6S1269.4,221.9,1269.4,227.6z"/>
		<path id="XMLID_432_" class="st0" d="M1369.2,238.3h-62.5l-1.5,8.5h38.8c5.9,0,10.7,1.9,14.4,5.6c3.7,3.7,5.6,8.4,5.6,14
			c0,0.7,0,1.4-0.1,2s-0.2,1.3-0.3,2l-2.7,15.1c-1.1,6.6-4.5,12.2-9.9,16.8c-5.4,4.6-11.4,6.9-18,6.9h-69l5.2-30.4h62.5l1.6-8.5
			h-38.9c-5.8,0-10.6-1.9-14.3-5.6c-3.7-3.8-5.6-8.4-5.6-13.9c0-0.7,0-1.5,0.1-2.2c0-0.7,0.1-1.4,0.2-2.1l2.7-15.2
			c1.1-6.5,4.4-12.1,9.8-16.7c5.5-4.6,11.5-6.9,18-6.9h69.2L1369.2,238.3z"/>
		<path id="XMLID_430_" class="st0" d="M1470.5,238.3h-31.2l-12.5,71h-30.4l12.5-71h-31.2l5.3-30.4h92.9L1470.5,238.3z"/>
		<path id="XMLID_428_" class="st0" d="M1496.8,309.3h-30.2l17.7-101.3h30.4L1496.8,309.3z"/>
		<path id="XMLID_426_" class="st0" d="M1610.6,238.3h-62.5l-7.1,40.6h32.1l1.6-8.5h-13.6l4.1-23.7h43.9l-6.8,38.8
			c-1.1,6.6-4.5,12.2-9.9,16.8c-5.4,4.6-11.4,6.9-18,6.9h-45.6c-5.8,0-10.5-1.9-14.1-5.6c-3.7-3.8-5.5-8.5-5.5-14c0-0.7,0-1.4,0.1-2
			c0-0.7,0.1-1.3,0.2-2l9.4-54c1.1-6.5,4.4-12.1,9.8-16.7c5.5-4.6,11.5-6.9,18-6.9h69.2L1610.6,238.3z"/>
		<path id="XMLID_424_" class="st0" d="M1725.1,278.9h38.9l-5.4,30.4h-92.7l51.1-71h-38.8l5.3-30.4h92.9L1725.1,278.9z"/>
		<path id="XMLID_422_" class="st0" d="M1864.1,285.6c-1.1,6.6-4.5,12.2-9.9,16.8c-5.4,4.6-11.4,6.9-18,6.9h-45.6
			c-5.8,0-10.5-1.9-14.1-5.6c-3.7-3.8-5.5-8.5-5.5-14c0-0.7,0-1.4,0.1-2c0-0.7,0.1-1.3,0.2-2l13.5-77.6h30.4l-12.5,71h32.1l12.5-71
			h30.4L1864.1,285.6z"/>
		<path id="XMLID_420_" class="st0" d="M2037.1,309.3h-30.4l7.4-42.4l-31.9,42.4l-17.1-42.4l-7.4,42.4h-30.2l17.7-101.3h30.4
			l17.1,42.4l31.9-42.4h30.4L2037.1,309.3z"/>
		<path id="XMLID_418_" class="st0" d="M2076,309.3h-30.2l17.7-101.3h30.4L2076,309.3z"/>
		<path id="XMLID_416_" class="st0" d="M2181.3,238.3h-54l-1.5,8.5h54l-4.1,23.7h-54l-1.5,8.5h54l-5.4,30.4h-84.2l17.7-101.3h84.5
			L2181.3,238.3z"/>
		<path id="XMLID_414_" class="st0" d="M2282.7,238.3h-31.2l-12.5,71h-30.4l12.5-71h-31.2l5.3-30.4h92.9L2282.7,238.3z"/>
		<path id="XMLID_412_" class="st0" d="M2375.5,238.3h-54l-1.5,8.5h54l-4.1,23.7h-54l-1.5,8.5h54l-5.4,30.4h-84.2l17.7-101.3h84.5
			L2375.5,238.3z"/>
		<path id="XMLID_410_" class="st0" d="M2478.4,227.6c0,0.7,0,1.4-0.1,2c-0.1,0.6-0.2,1.3-0.3,2l-13.7,77.7H2434l12.5-71h-32.1
			l-12.5,71h-30.2l17.7-101.3h69.2c5.8,0,10.5,1.9,14.3,5.6S2478.4,221.9,2478.4,227.6z"/>
		<path id="XMLID_408_" class="st0" d="M2629,285.6c-1.1,6.6-4.5,12.2-9.9,16.8c-5.4,4.6-11.4,6.9-18,6.9h-45.6
			c-5.8,0-10.5-1.9-14.1-5.6c-3.7-3.8-5.5-8.5-5.5-14c0-0.7,0-1.4,0.1-2c0-0.7,0.1-1.3,0.2-2l13.5-77.6h30.4l-12.5,71h32.1l12.5-71
			h30.4L2629,285.6z"/>
		<path id="XMLID_406_" class="st0" d="M2740.1,227.6c0,0.7,0,1.4-0.1,2c-0.1,0.6-0.2,1.3-0.3,2l-13.7,77.7h-30.4l12.5-71h-32.1
			l-12.5,71h-30.2l17.7-101.3h69.2c5.8,0,10.5,1.9,14.3,5.6S2740.1,221.9,2740.1,227.6z"/>
		<path id="XMLID_404_" class="st0" d="M2839.9,238.3h-31.2l-12.5,71h-30.4l12.5-71H2747l5.3-30.4h92.9L2839.9,238.3z"/>
		<path id="XMLID_402_" class="st0" d="M2932.7,238.3h-54l-1.5,8.5h54l-4.1,23.7h-54l-1.5,8.5h54l-5.4,30.4H2836l17.7-101.3h84.5
			L2932.7,238.3z"/>
		<path id="XMLID_399_" class="st0" d="M3035.7,227.6c0,0.7,0,1.4-0.1,2c-0.1,0.6-0.2,1.3-0.3,2l-2.7,15.2
			c-0.6,3.5-3.5,7.4-8.6,11.8c3,3.8,4.5,7.2,4.5,10.2v1.7l-6.9,38.8h-30.4l7-38.8h-32.1l-6.9,38.8H2929l17.7-101.3h69.2
			c5.8,0,10.5,1.9,14.3,5.6S3035.7,221.9,3035.7,227.6z M2971.6,238.3l-1.5,8.5h32.1l1.6-8.5H2971.6z"/>
		<path id="XMLID_396_" class="st0" d="M431.4,410c0,0.7,0,1.4-0.1,2c-0.1,0.6-0.2,1.3-0.3,2l-9.4,54c-1.1,6.6-4.5,12.2-9.9,16.8
			c-5.4,4.6-11.4,6.9-18,6.9h-45.6c-5.8,0-10.5-1.9-14.1-5.6c-3.7-3.8-5.5-8.5-5.5-14c0-0.7,0-1.4,0.1-2c0-0.7,0.1-1.3,0.2-2l9.4-54
			c1.1-6.5,4.4-12.1,9.8-16.7c5.5-4.6,11.5-6.9,18-6.9h45.6c5.8,0,10.5,1.9,14.3,5.6S431.4,404.3,431.4,410z M367.4,420.7l-7.1,40.6
			h32.1l7.1-40.6H367.4z"/>
		<path id="XMLID_394_" class="st0" d="M522.7,420.7h-54l-1.5,8.5h54l-4.1,23.7h-54l-6.9,38.8H426l17.7-101.3h84.5L522.7,420.7z"/>
		<path id="XMLID_392_" class="st0" d="M615.7,420.7h-54l-1.5,8.5h54l-4.1,23.7h-54l-6.9,38.8H519l17.7-101.3h84.5L615.7,420.7z"/>
		<path id="XMLID_390_" class="st0" d="M642.1,491.7h-30.2l17.7-101.3H660L642.1,491.7z"/>
		<path id="XMLID_388_" class="st0" d="M755.9,420.7h-62.5l-7.1,40.6h62.5l-5.4,30.4h-69.2c-5.8,0-10.5-1.9-14.1-5.6
			c-3.7-3.8-5.5-8.5-5.5-14c0-0.7,0-1.4,0.1-2c0-0.7,0.1-1.3,0.2-2l9.4-54c1.1-6.5,4.4-12.1,9.8-16.7c5.5-4.6,11.5-6.9,18-6.9h69.2
			L755.9,420.7z"/>
		<path id="XMLID_386_" class="st0" d="M848.7,420.7h-54l-1.5,8.5h54l-4.1,23.7h-54l-1.5,8.5h54l-5.4,30.4H752l17.7-101.3h84.5
			L848.7,420.7z"/>
		<path id="XMLID_383_" class="st0" d="M1103.5,410c0,0.7,0,1.4-0.1,2c-0.1,0.6-0.2,1.3-0.3,2l-2.7,15.2c-0.6,3.5-3.5,7.4-8.6,11.8
			c3,3.8,4.5,7.2,4.5,10.2v1.7l-6.9,38.8H1059l7-38.8h-32.1l-6.9,38.8h-30.2l17.7-101.3h69.2c5.8,0,10.5,1.9,14.3,5.6
			S1103.5,404.3,1103.5,410z M1039.4,420.7l-1.5,8.5h32.1l1.6-8.5H1039.4z"/>
		<path id="XMLID_381_" class="st0" d="M1194.8,420.7h-54l-1.5,8.5h54l-4.1,23.7h-54l-1.5,8.5h54l-5.4,30.4h-84.2l17.7-101.3h84.5
			L1194.8,420.7z"/>
		<path id="XMLID_379_" class="st0" d="M1297.7,410c0,0.7,0,1.4-0.1,2c-0.1,0.6-0.2,1.3-0.3,2l-13.7,77.7h-30.4l12.5-71h-32.1
			l-12.5,71H1191l17.7-101.3h69.2c5.8,0,10.5,1.9,14.3,5.6S1297.7,404.3,1297.7,410z"/>
		<path id="XMLID_377_" class="st0" d="M1397.5,420.7h-31.2l-12.5,71h-30.4l12.5-71h-31.2l5.3-30.4h92.9L1397.5,420.7z"/>
		<path id="XMLID_374_" class="st0" d="M1455.1,491.7l-1-13.5h-28.7l-5.7,13.5h-30.2l43-101.3h45.6l7.4,101.3H1455.1z M1449.8,420.7
			l-13.5,32.1h16L1449.8,420.7z"/>
		<path id="XMLID_372_" class="st0" d="M1586.6,420.7h-54l-1.5,8.5h54l-4.1,23.7h-54l-6.9,38.8h-30.2l17.7-101.3h84.5L1586.6,420.7z
			"/>
		<path id="XMLID_369_" class="st0" d="M1689.5,410c0,0.7,0,1.4-0.1,2c-0.1,0.6-0.2,1.3-0.3,2l-2.7,15.2c-0.6,3.5-3.5,7.4-8.6,11.8
			c3,3.8,4.5,7.2,4.5,10.2v1.7l-6.9,38.8h-30.4l7-38.8h-32.1l-6.9,38.8h-30.2l17.7-101.3h69.2c5.8,0,10.5,1.9,14.3,5.6
			S1689.5,404.3,1689.5,410z M1625.5,420.7l-1.5,8.5h32.1l1.6-8.5H1625.5z"/>
		<path id="XMLID_367_" class="st0" d="M1714.3,491.7h-30.2l17.7-101.3h30.4L1714.3,491.7z"/>
		<path id="XMLID_365_" class="st0" d="M1828.1,420.7h-31.2l-12.5,71H1754l12.5-71h-31.2l5.3-30.4h92.9L1828.1,420.7z"/>
		<path id="XMLID_363_" class="st0" d="M1883.5,461.3h38.9l-5.4,30.4h-92.7l51.1-71h-38.8l5.3-30.4h92.9L1883.5,461.3z"/>
		<path id="XMLID_361_" class="st0" d="M1957.5,491.7h-25.4l4.4-25.3h25.4L1957.5,491.7z"/>
		<path id="XMLID_359_" class="st0" d="M2064.5,420.7H2002l-7.1,40.6h62.5l-5.4,30.4h-69.2c-5.8,0-10.5-1.9-14.1-5.6
			c-3.7-3.8-5.5-8.5-5.5-14c0-0.7,0-1.4,0.1-2c0-0.7,0.1-1.3,0.2-2l9.4-54c1.1-6.5,4.4-12.1,9.8-16.7c5.5-4.6,11.5-6.9,18-6.9h69.2
			L2064.5,420.7z"/>
		<path id="XMLID_356_" class="st0" d="M2167.4,410c0,0.7,0,1.4-0.1,2c-0.1,0.6-0.2,1.3-0.3,2l-9.4,54c-1.1,6.6-4.5,12.2-9.9,16.8
			c-5.4,4.6-11.4,6.9-18,6.9h-45.6c-5.8,0-10.5-1.9-14.1-5.6c-3.7-3.8-5.5-8.5-5.5-14c0-0.7,0-1.4,0.1-2c0-0.7,0.1-1.3,0.2-2l9.4-54
			c1.1-6.5,4.4-12.1,9.8-16.7c5.5-4.6,11.5-6.9,18-6.9h45.6c5.8,0,10.5,1.9,14.3,5.6S2167.4,404.3,2167.4,410z M2103.3,420.7
			l-7.1,40.6h32.1l7.1-40.6H2103.3z"/>
		<path id="XMLID_354_" class="st0" d="M2271.5,491.7h-30.4l7.4-42.4l-31.9,42.4l-17.1-42.4l-7.4,42.4h-30.2l17.7-101.3h30.4
			l17.1,42.4l31.9-42.4h30.4L2271.5,491.7z"/>
		<path id="XMLID_351_" class="st0" d="M397.5,592.4c0,0.7,0,1.4-0.1,2c-0.1,0.6-0.2,1.3-0.3,2l-9.4,54c-1.1,6.6-4.5,12.2-9.9,16.8
			c-5.4,4.6-11.4,6.9-18,6.9h-45.6c-5.8,0-10.5-1.9-14.1-5.6c-3.7-3.8-5.5-8.5-5.5-14c0-0.7,0-1.4,0.1-2c0-0.7,0.1-1.3,0.2-2l9.4-54
			c1.1-6.5,4.4-12.1,9.8-16.7c5.5-4.6,11.5-6.9,18-6.9h45.6c5.8,0,10.5,1.9,14.3,5.6S397.5,586.7,397.5,592.4z M333.5,603.1
			l-7.1,40.6h32.1l7.1-40.6H333.5z"/>
		<path id="XMLID_348_" class="st0" d="M498.8,592.4c0,0.7,0,1.4-0.1,2c-0.1,0.6-0.2,1.3-0.3,2l-9.4,54c-1.1,6.6-4.5,12.2-9.9,16.8
			c-5.4,4.6-11.4,6.9-18,6.9h-69l17.7-101.3H479c5.8,0,10.5,1.9,14.3,5.6S498.8,586.7,498.8,592.4z M434.8,603.1l-7.1,40.6h32.1
			l7.1-40.6H434.8z"/>
		<path id="XMLID_346_" class="st0" d="M590.1,603.1h-54l-1.5,8.5h54l-4.1,23.7h-54l-1.5,8.5h54l-5.4,30.4h-84.2l17.7-101.3h84.5
			L590.1,603.1z"/>
		<path id="XMLID_343_" class="st0" d="M693.1,592.4c0,0.7,0,1.4-0.1,2c-0.1,0.6-0.2,1.3-0.3,2l-2.7,15.2c-0.6,3.5-3.5,7.4-8.6,11.8
			c3,3.8,4.5,7.2,4.5,10.2v1.7l-6.9,38.8h-30.4l7-38.8h-32.1l-6.9,38.8h-30.2L604,572.8h69.2c5.8,0,10.5,1.9,14.3,5.6
			S693.1,586.7,693.1,592.4z M629,603.1l-1.5,8.5h32.1l1.6-8.5H629z"/>
		<path id="XMLID_340_" class="st0" d="M850.6,592.4c0,0.7,0,1.4-0.1,2c-0.1,0.6-0.2,1.3-0.3,2l-9.4,54c-1.1,6.6-4.5,12.2-9.9,16.8
			c-5.4,4.6-11.4,6.9-18,6.9h-45.6c-5.8,0-10.5-1.9-14.1-5.6c-3.7-3.8-5.5-8.5-5.5-14c0-0.7,0-1.4,0.1-2c0-0.7,0.1-1.3,0.2-2l9.4-54
			c1.1-6.5,4.4-12.1,9.8-16.7c5.5-4.6,11.5-6.9,18-6.9h45.6c5.8,0,10.5,1.9,14.3,5.6S850.6,586.7,850.6,592.4z M786.6,603.1
			l-7.1,40.6h32.1l7.1-40.6H786.6z"/>
		<path id="XMLID_337_" class="st0" d="M950.4,603.1h-62.5l-1.5,8.5h38.8c5.9,0,10.7,1.9,14.4,5.6s5.6,8.3,5.6,13.9
			c0,0.7,0,1.4-0.1,2.1c-0.1,0.7-0.2,1.4-0.3,2.1l-2.7,15.1c-1.1,6.6-4.5,12.2-9.9,16.8c-5.4,4.6-11.4,6.9-18,6.9h-45.6
			c-5.8,0-10.5-1.9-14.1-5.6c-3.7-3.8-5.5-8.5-5.5-14c0-0.7,0-1.4,0.1-2c0-0.7,0.1-1.3,0.2-2l9.4-54c1.1-6.5,4.4-12.1,9.8-16.7
			c5.5-4.6,11.5-6.9,18-6.9h69.2L950.4,603.1z M882.3,635.3l-1.5,8.5h32.1l1.6-8.5H882.3z"/>
		<path id="XMLID_334_" class="st0" d="M1051.7,603.1h-62.5l-1.5,8.5h38.8c5.9,0,10.7,1.9,14.4,5.6s5.6,8.3,5.6,13.9
			c0,0.7,0,1.4-0.1,2.1c-0.1,0.7-0.2,1.4-0.3,2.1l-2.7,15.1c-1.1,6.6-4.5,12.2-9.9,16.8c-5.4,4.6-11.4,6.9-18,6.9H970
			c-5.8,0-10.5-1.9-14.1-5.6c-3.7-3.8-5.5-8.5-5.5-14c0-0.7,0-1.4,0.1-2c0-0.7,0.1-1.3,0.2-2l9.4-54c1.1-6.5,4.4-12.1,9.8-16.7
			c5.5-4.6,11.5-6.9,18-6.9h69.2L1051.7,603.1z M983.6,635.3l-1.5,8.5h32.1l1.6-8.5H983.6z"/>
		<path id="XMLID_331_" class="st0" d="M1154.6,592.4c0,0.7,0,1.4-0.1,2c-0.1,0.6-0.2,1.3-0.3,2l-9.4,54c-1.1,6.6-4.5,12.2-9.9,16.8
			c-5.4,4.6-11.4,6.9-18,6.9h-45.6c-5.8,0-10.5-1.9-14.1-5.6c-3.7-3.8-5.5-8.5-5.5-14c0-0.7,0-1.4,0.1-2c0-0.7,0.1-1.3,0.2-2l9.4-54
			c1.1-6.5,4.4-12.1,9.8-16.7c5.5-4.6,11.5-6.9,18-6.9h45.6c5.8,0,10.5,1.9,14.3,5.6S1154.6,586.7,1154.6,592.4z M1090.5,603.1
			l-7.1,40.6h32.1l7.1-40.6H1090.5z"/>
		<path id="XMLID_329_" class="st0" d="M1167.9,683.7l-24-4.4l40.9-116.4l24.3,4.4L1167.9,683.7z"/>
		<path id="XMLID_326_" class="st0" d="M1299.7,603.1h-62.5l-1.5,8.5h38.8c5.9,0,10.7,1.9,14.4,5.6s5.6,8.3,5.6,13.9
			c0,0.7,0,1.4-0.1,2.1c-0.1,0.7-0.2,1.4-0.3,2.1l-2.7,15.1c-1.1,6.6-4.5,12.2-9.9,16.8c-5.4,4.6-11.4,6.9-18,6.9H1218
			c-5.8,0-10.5-1.9-14.1-5.6c-3.7-3.8-5.5-8.5-5.5-14c0-0.7,0-1.4,0.1-2c0-0.7,0.1-1.3,0.2-2l9.4-54c1.1-6.5,4.4-12.1,9.8-16.7
			c5.5-4.6,11.5-6.9,18-6.9h69.2L1299.7,603.1z M1231.7,635.3l-1.5,8.5h32.1l1.6-8.5H1231.7z"/>
		<path id="XMLID_324_" class="st0" d="M1402.6,592.1c0,0.7,0,1.5-0.1,2.2c-0.1,0.7-0.2,1.4-0.3,2.1l-2.7,15.2
			c-0.6,3.5-3.5,7.4-8.6,11.8c3.1,3.9,4.7,7.2,4.7,10.2c0,0.2,0,0.5,0,0.8c0,0.3-0.1,0.6-0.1,0.9l-2.7,15.1
			c-1.1,6.6-4.5,12.2-9.9,16.8c-5.4,4.6-11.4,6.9-18,6.9h-69l5.2-30.4h62.5l1.6-8.5h-28.7l4-23.7h28.7l1.6-8.5h-62.5l5.3-30.4h69.2
			c5.8,0,10.5,1.9,14.3,5.6S1402.6,586.6,1402.6,592.1z"/>
		<path id="XMLID_322_" class="st0" d="M1561.4,603.1h-62.5l-1.5,8.5h38.8c5.9,0,10.7,1.9,14.4,5.6s5.6,8.3,5.6,13.9
			c0,0.7,0,1.4-0.1,2.1c-0.1,0.7-0.2,1.4-0.3,2.1l-2.7,15.1c-1.1,6.6-4.5,12.2-9.9,16.8c-5.4,4.6-11.4,6.9-18,6.9h-69l5.2-30.4h62.5
			l1.6-8.5h-38.9c-5.8,0-10.6-1.9-14.3-5.6c-3.7-3.8-5.6-8.4-5.6-14c0-0.7,0-1.4,0.1-2c0-0.7,0.1-1.3,0.2-2l6.9-38.8h92.9
			L1561.4,603.1z"/>
		<path id="XMLID_316_" class="st0" d="M1650.3,674.1h-30.4l7-38.8h-62.5l10.9-62.5h30.4l-6.9,38.8h32.1l6.9-38.8h30.4L1650.3,674.1
			z"/>
		<path id="XMLID_312_" class="st0" d="M1823.1,603.1h-62.5l-1.5,8.5h38.8c5.9,0,10.7,1.9,14.4,5.6s5.6,8.3,5.6,13.9
			c0,0.7,0,1.4-0.1,2.1c-0.1,0.7-0.2,1.4-0.3,2.1l-2.7,15.1c-1.1,6.6-4.5,12.2-9.9,16.8c-5.4,4.6-11.4,6.9-18,6.9h-45.6
			c-5.8,0-10.5-1.9-14.1-5.6c-3.7-3.8-5.5-8.5-5.5-14c0-0.7,0-1.4,0.1-2c0-0.7,0.1-1.3,0.2-2l9.4-54c1.1-6.5,4.4-12.1,9.8-16.7
			c5.5-4.6,11.5-6.9,18-6.9h69.2L1823.1,603.1z M1755.1,635.3l-1.5,8.5h32.1l1.6-8.5H1755.1z"/>
		<path id="XMLID_166_" class="st0" d="M1926,592.4c0,0.7,0,1.4-0.1,2c-0.1,0.6-0.2,1.3-0.3,2l-9.4,54c-1.1,6.6-4.5,12.2-9.9,16.8
			c-5.4,4.6-11.4,6.9-18,6.9h-45.6c-5.8,0-10.5-1.9-14.1-5.6c-3.7-3.8-5.5-8.5-5.5-14c0-0.7,0-1.4,0.1-2c0-0.7,0.1-1.3,0.2-2l9.4-54
			c1.1-6.5,4.4-12.1,9.8-16.7c5.5-4.6,11.5-6.9,18-6.9h45.6c5.8,0,10.5,1.9,14.3,5.6S1926,586.7,1926,592.4z M1861.9,603.1
			l-7.1,40.6h32.1l7.1-40.6H1861.9z"/>
		<path id="XMLID_164_" class="st0" d="M1950.8,674.1h-30.2l17.7-101.3h30.4L1950.8,674.1z"/>
	</g>
	<polygon id="XMLID_162_" class="st0" points="1110.5,199.4 1080.5,199.4 1082.2,190 1112.2,190 	"/>
	<polygon id="XMLID_161_" class="st0" points="1173.2,199.4 1143.2,199.4 1144.9,190 1174.9,190 	"/>
</g>
</svg>
