<?xml version="1.0" encoding="utf-8"?>
<!-- Generator: Adobe Illustrator 19.0.0, SVG Export Plug-In . SVG Version: 6.00 Build 0)  -->
<svg version="1.1" id="Ebene_1" xmlns="http://www.w3.org/2000/svg" xmlns:xlink="http://www.w3.org/1999/xlink" x="0px" y="0px"
	 viewBox="0 0 809.5 166.9" style="enable-background:new 0 0 809.5 166.9;" xml:space="preserve">
<style type="text/css">
	.st0{fill:#F1592D;}
	.st1{fill:#FFFFFF;}
</style>
<path class="st0" d="M427.2,166.9h-93.9c-5.8,0-10.5-4.7-10.5-10.5v-0.7L344.1,9.6c0.5-5.4,5-9.6,10.5-9.6h93.9
	c5.8,0,10.5,4.7,10.5,10.5v0.7l-21.3,146.1C437.2,162.7,432.7,166.9,427.2,166.9z"/>
<g>
	<g>
		<path class="st0" d="M777.7,156.6H10.5c-5.8,0-10.5-4.7-10.5-10.5v-0.7L21.3,19.2c0.5-5.4,5-9.6,10.5-9.6H799
			c5.8,0,10.5,4.7,10.5,10.5v0.7L788.2,147C787.8,152.4,783.2,156.6,777.7,156.6z M17.2,140.4h755.7l19.3-114.7H36.6L17.2,140.4z"/>
		<g>
			<path class="st0" d="M118.5,61.6c0,0.5,0,0.9-0.1,1.3c-0.1,0.4-0.1,0.9-0.2,1.3l-1.8,10.1c-0.4,2.3-2.3,4.9-5.7,7.9
				c2,2.5,3,4.8,3,6.8v1.1l-4.6,25.8H88.9l4.6-25H72.1l-4.6,25H47.5l11.8-67.4h46.1c3.9,0,7,1.2,9.5,3.7
				C117.2,54.8,118.5,57.9,118.5,61.6z M75.9,68.8l-1,6.4h21.3l1-6.4H75.9z"/>
			<path class="st0" d="M182.3,68.8h-35.9l-1,5.6h35.9l-2.7,15.8h-35.9l-1,5.6h35.9L174,116h-56l11.8-67.4h56.2L182.3,68.8z"/>
			<path class="st0" d="M254.2,61.6c0,0.5,0,0.9-0.1,1.3c0,0.4-0.1,0.9-0.2,1.3l-9.1,51.7h-20.2l8.3-47.2h-21.4l-8.3,47.2h-20.1
				l11.8-67.4H241c3.9,0,7,1.2,9.5,3.7C252.9,54.8,254.2,57.9,254.2,61.6z"/>
			<path class="st0" d="M315.8,68.8h-17.6l-8.3,47.2h-20.2l8.3-47.2h-18l3.6-20.2h55.8L315.8,68.8z"/>
			<path class="st1" d="M398.5,116l-0.7-9h-19.1l-3.8,9h-20.1l28.6-67.4h30.3l4.9,67.4H398.5z M395,68.8l-9,21.4h10.7L395,68.8z"/>
			<path class="st0" d="M529.7,68.8h-35.9l-1,6.4h34.1L524,91h-33.9l-4.6,25h-20.1l11.8-67.4h56.2L529.7,68.8z"/>
			<path class="st0" d="M599.7,61.6c0,0.5,0,0.9-0.1,1.3c-0.1,0.4-0.1,0.9-0.2,1.3l-1.8,10.1c-0.4,2.3-2.3,4.9-5.7,7.9
				c2,2.5,3,4.8,3,6.8v1.1l-4.6,25.8h-20.2l4.6-25h-21.4l-4.6,25h-20.1l11.8-67.4h46.1c3.9,0,7,1.2,9.5,3.7
				C598.5,54.8,599.7,57.9,599.7,61.6z M557.1,68.8l-1,6.4h21.3l1-6.4H557.1z"/>
			<path class="st0" d="M618.7,116h-20.1l11.8-67.4h20.2L618.7,116z"/>
			<path class="st0" d="M689.9,68.8h-17.1l-8.3,47.2h-20.2l8.3-47.2h-18.2l3.6-20.2h55.6L689.9,68.8z"/>
			<path class="st0" d="M728.2,95.8h25.9l-3.6,20.2h-61.7l34-47.2H697l3.6-20.2h61.8L728.2,95.8z"/>
		</g>
	</g>
</g>
</svg>
