<?xml version="1.0" encoding="utf-8"?>
<!-- Generator: Adobe Illustrator 19.0.0, SVG Export Plug-In . SVG Version: 6.00 Build 0)  -->
<svg version="1.1" id="Layer_1" xmlns="http://www.w3.org/2000/svg" xmlns:xlink="http://www.w3.org/1999/xlink" x="0px" y="0px"
	 viewBox="0 0 615.9 39.1" style="enable-background:new 0 0 615.9 39.1;" xml:space="preserve">
<style type="text/css">
	.st0{fill:#F1582D;}
</style>
<path id="XMLID_206_" class="st0" d="M30.8,31.2c-0.3,2.2-1.5,3.9-3.3,5.5c-1.9,1.5-3.8,2.2-6,2.2H6.5c-1.9,0-3.4-0.7-4.6-1.9
	S0,34.3,0,32.4c0-0.2,0-0.5,0-0.7c0-0.2,0-0.5,0-0.7L4.5,5.3h10.1l-4.1,23.5h10.6l4.1-23.5h10.1L30.8,31.2z"/>
<path id="XMLID_208_" class="st0" d="M68.7,12c0,0.2,0,0.5,0,0.7s0,0.5,0,0.7l-0.9,5c-0.2,1.2-1.2,2.4-2.9,3.9
	c1,1.4,1.5,2.4,1.5,3.4v0.5l-0.9,5c-0.3,2.1-1.4,3.9-3.3,5.5c-1.9,1.5-3.8,2.2-6,2.2h-24l5.8-33.6h24c1.9,0,3.4,0.7,4.6,1.9
	C68.2,8.6,68.7,10.1,68.7,12z M44.7,26.2l-0.5,2.7h11.6l0.5-2.7H44.7z M46.4,15.6l-0.5,2.7h11.6l0.5-2.7H46.4z"/>
<path id="XMLID_212_" class="st0" d="M99,15.6H81l-0.5,2.7h17.8l-1.4,7.9H79.3l-0.5,2.7h17.8l-1.7,10.1H67l5.8-33.6h27.9L99,15.6z"
	/>
<path id="XMLID_214_" class="st0" d="M132.9,12c0,0.2,0,0.5,0,0.7s0,0.5-0.2,0.7l-0.9,5c-0.2,1.2-1.2,2.4-2.9,3.9
	c1,1.2,1.5,2.4,1.5,3.4v0.5L128.3,39h-10.1l2.2-12.8h-10.6L107.6,39h-9.9l5.8-33.6h23c1.9,0,3.4,0.7,4.8,1.9
	C132.4,8.6,132.9,10.1,132.9,12z M111.8,15.6l-0.5,2.7h10.6l0.5-2.7H111.8z"/>
<path id="XMLID_217_" class="st0" d="M166,15.6h-20.7l-0.5,2.7h12.8c1.9,0,3.6,0.7,4.8,1.9c1.2,1.2,1.9,2.7,1.9,4.6
	c0,0.2,0,0.5,0,0.7s0,0.5-0.2,0.7l-0.9,5c-0.3,2.2-1.5,3.9-3.3,5.5c-1.9,1.5-3.8,2.2-6,2.2h-22.8l1.7-10.1h20.7l0.5-2.7h-12.8
	c-1.9,0-3.4-0.7-4.8-1.9c-1.2-1.2-1.9-2.7-1.9-4.6c0-0.2,0-0.5,0-0.7c0-0.2,0-0.5,0-0.7l0.9-5c0.3-2.2,1.4-3.9,3.3-5.5
	c1.9-1.5,3.8-2.2,6-2.2h23L166,15.6z"/>
<path id="XMLID_219_" class="st0" d="M174.7,39.1h-9.9l5.8-33.6h9.9L174.7,39.1z"/>
<path id="XMLID_221_" class="st0" d="M209.5,15.6h-17.8l-0.5,2.7H209l-1.4,7.9h-17.8l-0.5,2.7h17.8l-1.7,10.1h-27.9l5.8-33.6h28.1
	L209.5,15.6z"/>
<path id="XMLID_223_" class="st0" d="M243.5,12c0,0.2,0,0.5,0,0.7s0,0.5-0.2,0.7l-3.1,17.8c-0.3,2.2-1.5,3.9-3.3,5.5
	c-1.9,1.5-3.8,2.2-6,2.2h-22.8l5.8-33.6h23c1.9,0,3.4,0.7,4.8,1.9C243.2,8.4,243.5,10.1,243.5,12z M222.3,15.6l-2.4,13.4h10.6
	l2.4-13.4H222.3z"/>
<path id="XMLID_226_" class="st0" d="M269.6,39.1h-27.9l5.8-33.6h10.1l-4.1,23.5h17.8L269.6,39.1z"/>
<path id="XMLID_228_" class="st0" d="M304.5,31.2c-0.3,2.2-1.5,3.9-3.3,5.5c-1.9,1.5-3.8,2.2-6,2.2h-15.1c-1.9,0-3.4-0.7-4.6-1.9
	c-1.2-1.2-1.9-2.7-1.9-4.6c0-0.2,0-0.5,0-0.7c0-0.2,0-0.5,0-0.7l4.5-25.7h10.1l-4.1,23.5h10.6l4.1-23.5H309L304.5,31.2z"/>
<path id="XMLID_230_" class="st0" d="M341.2,12c0,0.2,0,0.5,0,0.7s0,0.5-0.2,0.7l-4.5,25.7h-10.1l4.1-23.5h-10.6l-4.1,23.5h-9.9
	l5.8-33.6h23c1.9,0,3.4,0.7,4.8,1.9S341.2,10.1,341.2,12z"/>
<path id="XMLID_232_" class="st0" d="M374.2,15.6h-20.7l-2.4,13.4h10.6l0.5-2.7h-4.5l1.4-7.9h14.6l-2.2,12.8
	c-0.3,2.2-1.5,3.9-3.3,5.5c-1.9,1.5-3.8,2.2-6,2.2h-15.1c-1.9,0-3.4-0.7-4.6-1.9c-1.2-1.2-1.9-2.7-1.9-4.6c0-0.2,0-0.5,0-0.7
	c0-0.2,0-0.5,0-0.7l3.1-17.8c0.3-2.2,1.4-3.9,3.3-5.5c1.9-1.5,3.8-2.2,6-2.2h23L374.2,15.6z"/>
<path id="XMLID_234_" class="st0" d="M407.6,15.6h-20.7l-0.5,2.7h12.8c1.9,0,3.6,0.7,4.8,1.9s1.9,2.7,1.9,4.6c0,0.2,0,0.5,0,0.7
	s0,0.5-0.2,0.7l-0.9,5c-0.3,2.2-1.5,3.9-3.3,5.5c-1.9,1.5-3.8,2.2-6,2.2h-22.8l1.7-10.1h20.7l0.5-2.7H383c-1.9,0-3.4-0.7-4.8-1.9
	c-1.2-1.2-1.9-2.7-1.9-4.6c0-0.2,0-0.5,0-0.7c0-0.2,0-0.5,0-0.7l0.9-5c0.3-2.2,1.4-3.9,3.3-5.5c1.9-1.5,3.8-2.2,6-2.2h23L407.6,15.6
	z"/>
<path id="XMLID_236_" class="st0" d="M441.2,15.6h-20.7l-0.5,2.7h12.8c1.9,0,3.6,0.7,4.8,1.9c1.2,1.2,1.9,2.7,1.9,4.6
	c0,0.2,0,0.5,0,0.7s0,0.5-0.2,0.7l-0.9,5c-0.3,2.2-1.5,3.9-3.3,5.5c-1.9,1.5-3.8,2.2-6,2.2h-22.8l1.7-10.1h20.7l0.5-2.7h-12.8
	c-1.9,0-3.4-0.7-4.8-1.9c-1.2-1.2-1.9-2.7-1.9-4.6c0-0.2,0-0.5,0-0.7c0-0.2,0-0.5,0-0.7l0.9-5c0.3-2.2,1.4-3.9,3.3-5.5
	c1.9-1.5,3.8-2.2,6-2.2h23L441.2,15.6z"/>
<path id="XMLID_238_" class="st0" d="M471.9,15.6H454l-0.5,2.7h17.8l-1.4,7.9h-17.8l-0.5,2.7h17.8l-1.7,10.1h-27.9l5.8-33.6h27.9
	L471.9,15.6z"/>
<path id="XMLID_240_" class="st0" d="M505.9,12c0,0.2,0,0.5,0,0.7s0,0.5-0.2,0.7l-0.9,5c-0.2,1.2-1.2,2.4-2.9,3.9
	c1,1.2,1.5,2.4,1.5,3.4v0.5L501.3,39h-10.1l2.2-12.8h-10.6L480.6,39h-9.9l5.8-33.6h23c1.9,0,3.4,0.7,4.8,1.9S505.9,10.1,505.9,12z
	 M484.7,15.6l-0.5,2.7h10.6l0.5-2.7H484.7z"/>
<path id="XMLID_243_" class="st0" d="M526.1,39.1h-15.1l-2.4-33.6h10.1l1.7,23.5l9.9-23.5h10.1L526.1,39.1z"/>
<path id="XMLID_245_" class="st0" d="M545.8,39.1h-9.9l5.8-33.6h10.1L545.8,39.1z"/>
<path id="XMLID_247_" class="st0" d="M583.5,15.6h-20.7l-2.4,13.4h20.7l-1.7,10.1h-23c-1.9,0-3.4-0.7-4.6-1.9
	c-1.2-1.2-1.9-2.7-1.9-4.6c0-0.2,0-0.5,0-0.7s0-0.5,0-0.7l3.1-17.8c0.3-2.2,1.4-3.9,3.3-5.5c1.9-1.5,3.8-2.2,6-2.2h23L583.5,15.6z"
	/>
<path id="XMLID_249_" class="st0" d="M614.2,15.6h-17.8l-0.5,2.7h17.8l-1.4,7.9h-17.8l-0.5,2.7h17.8l-1.7,10.1h-27.9L588,5.5h27.9
	L614.2,15.6z"/>
<polygon id="XMLID_123_" class="st0" points="14.9,4.1 5,4.1 5.5,0 15.4,0 "/>
<polygon id="XMLID_122_" class="st0" points="35.6,4.3 25.5,4.3 26,0.2 36.1,0.2 "/>
</svg>
