<?xml version="1.0" encoding="utf-8"?>
<!-- Generator: Adobe Illustrator 19.0.0, SVG Export Plug-In . SVG Version: 6.00 Build 0)  -->
<svg version="1.1" id="Layer_1" xmlns="http://www.w3.org/2000/svg" xmlns:xlink="http://www.w3.org/1999/xlink" x="0px" y="0px"
	 viewBox="0 0 3237.5 394.1" style="enable-background:new 0 0 3237.5 394.1;" xml:space="preserve">
<style type="text/css">
	.st0{fill:#F1582D;}
	.st1{fill:#FFFFFF;}
</style>
<polygon id="oback" class="st0" points="3169.5,394.1 0,394.1 68,0 3237.5,0 "/>
<polygon id="backwhite" class="st1" points="3111.5,320.5 87.3,320.5 126.7,73.5 3150.8,73.5 "/>
<g id="XMLID_51_">
	<path id="XMLID_52_" class="st0" d="M241,247h-45l-7.3-100h30l5.2,69.9l29.8-69.9h30L241,247z"/>
	<path id="XMLID_54_" class="st0" d="M365.9,177h-53.3l-1.5,8.3h53.3l-4,23.4H307l-1.5,8.3h53.3l-5.3,30h-83.1l17.4-100h83.3
		L365.9,177z"/>
	<path id="XMLID_56_" class="st0" d="M467.4,166.4c0,0.7,0,1.3-0.1,2c-0.1,0.6-0.2,1.3-0.3,2l-2.6,15c-0.6,3.4-3.4,7.3-8.5,11.6
		c3,3.7,4.5,7.1,4.5,10v1.7l-6.8,38.3h-30l6.9-38.3h-31.7l-6.8,38.3h-29.8l17.4-100h68.3c5.7,0,10.4,1.8,14.1,5.5
		S467.4,160.8,467.4,166.4z M404.2,177l-1.5,8.3h31.6l1.5-8.3H404.2z"/>
	<path id="XMLID_59_" class="st0" d="M545.2,247h-83.1l17.4-100h30l-12.3,70h53.3L545.2,247z"/>
	<path id="XMLID_61_" class="st0" d="M649.2,177h-53.3l-1.5,8.3h53.3l-4,23.4h-53.3l-1.5,8.3h53.3l-5.3,30h-83.1l17.4-100h83.3
		L649.2,177z"/>
	<path id="XMLID_63_" class="st0" d="M675.3,247h-29.8l17.4-100h30L675.3,247z"/>
	<path id="XMLID_65_" class="st0" d="M775.3,247h-30l6.9-38.3h-31.7l-6.8,38.3h-29.8l17.4-100h30l-6.8,38.3h31.6l6.8-38.3h30
		L775.3,247z"/>
	<path id="XMLID_67_" class="st0" d="M937.5,177h-53.3l-1.5,8.3H936l-4,23.4h-53.3l-6.8,38.3h-29.8l17.4-100h83.3L937.5,177z"/>
	<path id="XMLID_69_" class="st0" d="M1029.4,223.7c-1.1,6.5-4.4,12-9.8,16.6c-5.4,4.5-11.3,6.8-17.7,6.8h-45
		c-5.7,0-10.4-1.8-13.9-5.5c-3.6-3.8-5.4-8.4-5.4-13.8c0-0.7,0-1.4,0.1-2c0-0.7,0.1-1.3,0.2-2l13.3-76.6h30l-12.3,70h31.6l12.3-70
		h30L1029.4,223.7z"/>
	<path id="XMLID_71_" class="st0" d="M1139.1,166.4c0,0.7,0,1.3-0.1,2c-0.1,0.6-0.2,1.3-0.3,2l-2.6,15c-0.6,3.4-3.4,7.3-8.5,11.6
		c3,3.7,4.5,7.1,4.5,10v1.7l-6.8,38.3h-30l6.9-38.3h-31.7l-6.8,38.3h-29.8l17.4-100h68.3c5.7,0,10.4,1.8,14.1,5.5
		S1139.1,160.8,1139.1,166.4z M1075.9,177l-1.5,8.3h31.6l1.5-8.3H1075.9z"/>
	<path id="XMLID_74_" class="st0" d="M1287.5,177h-53.3l-1.5,8.3h53.3l-4,23.4h-53.3l-6.8,38.3H1192l17.4-100h83.3L1287.5,177z"/>
	<path id="XMLID_76_" class="st0" d="M1344.4,247l-1-13.3H1315l-5.6,13.3h-29.8l42.5-100h45l7.3,100H1344.4z M1339.2,177l-13.3,31.7
		h15.8L1339.2,177z"/>
	<path id="XMLID_79_" class="st0" d="M1470.2,247h-30l6.9-38.3h-31.7l-6.8,38.3h-29.8l17.4-100h30l-6.8,38.3h31.6l6.8-38.3h30
		L1470.2,247z"/>
	<path id="XMLID_81_" class="st0" d="M1584,166.4c0,0.7,0,1.3-0.1,2c-0.1,0.6-0.2,1.3-0.3,2l-2.6,15c-0.6,3.4-3.4,7.3-8.5,11.6
		c3,3.7,4.5,7.1,4.5,10v1.7l-6.8,38.3h-30l6.9-38.3h-31.7l-6.8,38.3h-29.8l17.4-100h68.3c5.7,0,10.4,1.8,14.1,5.5
		S1584,160.8,1584,166.4z M1520.8,177l-1.5,8.3h31.6l1.5-8.3H1520.8z"/>
	<path id="XMLID_84_" class="st0" d="M1637.1,217.1h38.4l-5.3,30h-91.5l50.5-70h-38.3l5.3-30h91.7L1637.1,217.1z"/>
	<path id="XMLID_86_" class="st0" d="M1774.1,177h-53.3l-1.5,8.3h53.3l-4,23.4h-53.3l-1.5,8.3h53.3l-5.3,30h-83.1l17.4-100h83.3
		L1774.1,177z"/>
	<path id="XMLID_88_" class="st0" d="M1866,223.7c-1.1,6.5-4.4,12-9.8,16.6c-5.4,4.5-11.3,6.8-17.7,6.8h-45
		c-5.7,0-10.4-1.8-13.9-5.5c-3.6-3.8-5.4-8.4-5.4-13.8c0-0.7,0-1.4,0.1-2c0-0.7,0.1-1.3,0.2-2l13.3-76.6h30l-12.3,70h31.6l12.3-70
		h30L1866,223.7z"/>
	<path id="XMLID_90_" class="st0" d="M1974.1,177h-61.7l-7,40.1h31.6l1.5-8.3h-13.4l4-23.4h43.4l-6.7,38.3c-1.1,6.5-4.4,12-9.8,16.6
		c-5.4,4.5-11.3,6.8-17.7,6.8h-45c-5.7,0-10.4-1.8-13.9-5.5c-3.6-3.8-5.4-8.4-5.4-13.8c0-0.7,0-1.4,0.1-2c0-0.7,0.1-1.3,0.2-2
		l9.2-53.3c1.1-6.4,4.3-11.9,9.7-16.5c5.4-4.5,11.4-6.8,17.8-6.8h68.3L1974.1,177z"/>
	<path id="XMLID_92_" class="st0" d="M2065.7,177h-53.3l-1.5,8.3h53.3l-4,23.4h-53.3l-1.5,8.3h53.3l-5.3,30h-83.1l17.4-100h83.3
		L2065.7,177z"/>
	<path id="XMLID_94_" class="st0" d="M2215.9,223.7c-1.1,6.5-4.4,12-9.8,16.6c-5.4,4.5-11.3,6.8-17.7,6.8h-45
		c-5.7,0-10.4-1.8-13.9-5.5c-3.6-3.8-5.4-8.4-5.4-13.8c0-0.7,0-1.4,0.1-2c0-0.7,0.1-1.3,0.2-2l13.3-76.6h30l-12.3,70h31.6l12.3-70
		h30L2215.9,223.7z"/>
	<path id="XMLID_96_" class="st0" d="M2325.6,166.4c0,0.7,0,1.3-0.1,2c-0.1,0.6-0.2,1.3-0.3,2l-13.5,76.7h-30l12.4-70h-31.7
		l-12.3,70h-29.8l17.4-100h68.3c5.7,0,10.4,1.8,14.1,5.5S2325.6,160.8,2325.6,166.4z"/>
	<path id="XMLID_98_" class="st0" d="M2425.6,166.4c0,0.7,0,1.3-0.1,2c-0.1,0.6-0.2,1.3-0.3,2l-9.3,53.3c-1.1,6.5-4.4,12-9.8,16.6
		c-5.4,4.5-11.3,6.8-17.7,6.8h-68.1l17.4-100h68.3c5.7,0,10.4,1.8,14.1,5.5S2425.6,160.8,2425.6,166.4z M2362.4,177l-7,40.1h31.6
		l7-40.1H2362.4z"/>
	<path id="XMLID_101_" class="st0" d="M2582.3,177h-61.7l-7,40.1h31.6l1.5-8.3h-13.4l4-23.4h43.4l-6.7,38.3
		c-1.1,6.5-4.4,12-9.8,16.6c-5.4,4.5-11.3,6.8-17.7,6.8h-45c-5.7,0-10.4-1.8-13.9-5.5c-3.6-3.8-5.4-8.4-5.4-13.8c0-0.7,0-1.4,0.1-2
		c0-0.7,0.1-1.3,0.2-2l9.2-53.3c1.1-6.4,4.3-11.9,9.7-16.5c5.4-4.5,11.4-6.8,17.8-6.8h68.3L2582.3,177z"/>
	<path id="XMLID_103_" class="st0" d="M2673.9,177h-53.3l-1.5,8.3h53.3l-4,23.4h-53.3l-1.5,8.3h53.3l-5.3,30h-83.1l17.4-100h83.3
		L2673.9,177z"/>
	<path id="XMLID_105_" class="st0" d="M2775.5,166.4c0,0.7,0,1.3-0.1,2c-0.1,0.6-0.2,1.3-0.3,2l-2.6,15c-0.6,3.4-3.4,7.3-8.5,11.6
		c3,3.7,4.5,7.1,4.5,10v1.7l-6.8,38.3h-30l6.9-38.3h-31.7L2700,247h-29.8l17.4-100h68.3c5.7,0,10.4,1.8,14.1,5.5
		S2775.5,160.8,2775.5,166.4z M2712.3,177l-1.5,8.3h31.6l1.5-8.3H2712.3z"/>
	<path id="XMLID_108_" class="st0" d="M2830.8,247l-1-13.3h-28.3l-5.6,13.3H2766l42.5-100h45l7.3,100H2830.8z M2825.6,177
		l-13.3,31.7h15.8L2825.6,177z"/>
	<path id="XMLID_111_" class="st0" d="M2969,177h-30.8l-12.3,70h-30l12.4-70h-30.8l5.3-30h91.7L2969,177z"/>
	<path id="XMLID_113_" class="st0" d="M3060.6,177h-53.3l-1.5,8.3h53.3l-4,23.4h-53.3l-1.5,8.3h53.3l-5.3,30h-83.1l17.4-100h83.3
		L3060.6,177z"/>
</g>
<polygon id="XMLID_125_" class="st0" points="981.9,143.7 951.9,143.7 953.5,134.4 983.5,134.4 "/>
<polygon id="XMLID_131_" class="st0" points="1043.5,144 1013.5,144 1015.2,134.7 1045.2,134.7 "/>
<polygon id="XMLID_127_" class="st0" points="2826.9,144 2809.8,144 2810.7,134.7 2827.9,134.7 "/>
<polygon id="XMLID_126_" class="st0" points="2854.4,144 2837.3,144 2838.2,134.7 2855.4,134.7 "/>
</svg>
