<?xml version="1.0" standalone="no"?>
<!DOCTYPE svg PUBLIC "-//W3C//DTD SVG 20010904//EN"
 "http://www.w3.org/TR/2001/REC-SVG-20010904/DTD/svg10.dtd">
<svg version="1.0" xmlns="http://www.w3.org/2000/svg"
 width="1400.000000pt" height="1400.000000pt" viewBox="0 0 1400.000000 1400.000000"
 preserveAspectRatio="xMidYMid meet">
<metadata>
Created by potrace 1.11, written by Peter Selinger 2001-2013
</metadata>
<g transform="translate(0.000000,1400.000000) scale(0.100000,-0.100000)"
fill="#000000" stroke="none">
<path d="M5688 10305 c-5 -5 -182 -16 -318 -21 -147 -5 -275 -11 -275 -14 0
-1 -36 -4 -80 -6 -44 -2 -105 -6 -135 -9 -30 -3 -82 -7 -115 -10 -33 -2 -80
-7 -105 -10 -68 -8 -152 -16 -182 -17 -16 -1 -28 -4 -28 -8 0 -3 -15 -6 -32
-7 -42 -2 -136 -16 -193 -29 -16 -4 -40 -7 -52 -7 -13 -1 -23 -4 -23 -8 0 -5
-9 -6 -20 -4 -11 2 -20 0 -20 -5 0 -5 -9 -7 -20 -5 -11 2 -20 -1 -20 -7 0 -5
-7 -8 -15 -4 -8 3 -15 0 -15 -6 0 -6 -3 -8 -7 -5 -3 4 -15 -1 -26 -10 -15 -13
-19 -14 -13 -3 5 9 2 8 -7 -2 -8 -10 -17 -15 -20 -11 -4 3 -7 1 -7 -6 0 -7 -4
-9 -10 -6 -5 3 -10 1 -10 -5 0 -6 -5 -8 -10 -5 -6 3 -13 -1 -16 -9 -3 -9 -9
-14 -13 -11 -4 2 -25 -10 -46 -28 -22 -18 -36 -25 -31 -17 4 8 -3 3 -16 -12
-13 -16 -29 -28 -35 -28 -7 0 -17 -8 -22 -17 -6 -10 -11 -14 -11 -9 0 5 -12
-4 -26 -20 -15 -16 -23 -22 -19 -14 4 9 1 9 -8 -2 -8 -10 -18 -18 -23 -18 -5
0 -20 -13 -34 -30 -14 -16 -31 -30 -38 -30 -7 0 -11 -3 -9 -7 3 -5 -1 -14 -9
-21 -8 -7 -14 -10 -14 -7 0 3 -11 -5 -24 -19 -13 -15 -28 -26 -33 -26 -5 0
-18 -10 -29 -22 l-19 -23 25 20 25 20 -19 -22 c-11 -13 -25 -23 -33 -23 -8 0
-11 -4 -8 -10 3 -5 2 -10 -4 -10 -5 0 -54 -44 -108 -97 -54 -53 -91 -93 -83
-88 9 5 8 0 -4 -13 -20 -23 -32 -30 -21 -12 3 6 4 10 0 10 -3 0 -10 -11 -15
-25 -5 -14 -16 -25 -23 -25 -8 0 -22 -10 -33 -22 l-19 -23 25 20 25 20 -19
-22 c-11 -13 -25 -23 -33 -23 -7 0 -12 -4 -11 -9 2 -4 -8 -18 -22 -30 -14 -13
-18 -20 -10 -16 8 4 6 -1 -4 -9 -11 -9 -24 -16 -30 -16 -5 0 -7 -3 -3 -6 3 -4
-16 -28 -43 -54 -28 -27 -50 -53 -50 -58 0 -5 -8 -16 -17 -23 -17 -13 -17 -13
-3 6 14 19 14 19 -2 6 -10 -7 -18 -20 -18 -27 0 -8 -5 -14 -11 -14 -5 0 -7 -4
-4 -10 3 -5 -1 -10 -9 -10 -8 0 -18 -5 -22 -12 -5 -7 -3 -8 7 -3 8 5 2 -3 -13
-18 -16 -14 -28 -31 -28 -37 0 -5 -6 -10 -14 -10 -8 0 -18 -5 -22 -12 -5 -7
-2 -9 7 -4 8 4 4 -1 -8 -10 -13 -9 -23 -22 -23 -30 0 -7 -12 -20 -27 -28 -16
-8 -24 -15 -19 -16 5 0 -1 -8 -12 -19 -12 -10 -19 -21 -16 -24 3 -3 -3 -12
-15 -19 -12 -7 -21 -18 -21 -25 0 -7 -11 -20 -25 -29 -14 -9 -25 -22 -25 -29
0 -7 -19 -29 -42 -50 -24 -20 -36 -34 -28 -30 8 5 0 -6 -19 -24 -19 -17 -30
-31 -25 -31 5 0 -4 -12 -21 -26 -16 -14 -23 -23 -15 -19 8 3 5 -2 -7 -11 -13
-9 -23 -23 -23 -30 0 -8 -9 -19 -20 -26 -11 -7 -20 -19 -20 -26 0 -7 -5 -10
-10 -7 -5 3 -10 2 -10 -4 0 -6 -10 -20 -23 -32 -12 -12 -16 -18 -8 -14 9 5 12
4 7 -3 -4 -7 -14 -12 -22 -12 -8 0 -12 -4 -9 -10 3 -5 -10 -25 -29 -44 -19
-18 -32 -36 -29 -40 4 -3 1 -6 -5 -6 -7 0 -12 -5 -12 -11 0 -5 -17 -26 -38
-46 -20 -20 -30 -32 -22 -27 10 5 9 3 -2 -8 -10 -9 -18 -20 -18 -25 0 -4 -12
-19 -28 -33 -15 -14 -23 -23 -17 -20 6 3 -1 -6 -15 -19 -14 -13 -18 -20 -10
-16 10 4 9 1 -2 -8 -10 -8 -18 -18 -18 -23 0 -12 -59 -64 -72 -64 -5 0 -7 -4
-4 -9 3 -4 -6 -7 -21 -5 -16 2 -39 -7 -62 -24 -19 -15 -32 -20 -27 -12 4 8 0
6 -8 -4 -9 -11 -16 -17 -16 -14 0 4 -14 -7 -30 -24 -17 -16 -28 -34 -24 -39 3
-5 1 -9 -3 -9 -5 0 -10 -10 -11 -22 -1 -13 -3 -36 -4 -53 -2 -16 -6 -34 -9
-40 -3 -5 -5 -25 -3 -42 1 -19 -2 -33 -8 -33 -6 0 -9 -3 -6 -6 4 -3 -1 -14
-10 -24 -54 -58 -65 -73 -52 -66 8 4 2 -4 -13 -18 -15 -14 -25 -26 -21 -26 4
0 -1 -7 -12 -16 -10 -8 -12 -12 -4 -9 8 4 3 -4 -12 -17 -15 -14 -25 -28 -21
-32 3 -3 1 -6 -6 -6 -7 0 -10 -4 -7 -9 3 -5 -1 -11 -9 -15 -8 -3 -15 -12 -15
-20 0 -7 -7 -16 -15 -20 -8 -3 -15 -13 -15 -21 0 -9 -4 -13 -10 -10 -5 3 -10
-1 -10 -9 0 -9 -5 -16 -12 -16 -6 0 -9 -3 -5 -6 3 -3 -5 -16 -18 -29 -14 -12
-22 -25 -18 -28 3 -4 1 -7 -5 -7 -7 0 -12 -5 -12 -10 0 -6 -15 -24 -32 -41
-18 -18 -26 -28 -18 -23 11 6 10 4 -2 -7 -9 -9 -14 -19 -11 -23 4 -3 -1 -6
-11 -6 -9 0 -14 -5 -11 -10 3 -6 -1 -13 -9 -16 -9 -3 -14 -10 -11 -14 7 -11
-46 -70 -63 -70 -7 0 -11 -4 -8 -9 3 -5 -1 -12 -9 -15 -16 -6 -62 -76 -57 -88
1 -5 -5 -8 -14 -8 -8 0 -13 -4 -10 -8 5 -8 -72 -145 -98 -174 -9 -10 -16 -24
-16 -32 0 -8 -3 -16 -8 -18 -4 -1 -30 -47 -57 -100 -27 -54 -53 -98 -57 -98
-4 0 -13 -18 -19 -40 -7 -22 -21 -49 -31 -60 -10 -11 -14 -20 -7 -20 7 0 9 -8
4 -22 -3 -13 -7 -29 -7 -35 -1 -7 -5 -13 -10 -13 -5 0 -6 -4 -3 -10 6 -9 -8
-14 -27 -11 -5 0 -8 -6 -8 -14 0 -8 -3 -14 -7 -13 -5 2 -26 -15 -48 -36 -22
-22 -33 -36 -25 -30 10 6 10 3 -2 -7 -9 -9 -14 -19 -11 -23 4 -3 1 -6 -5 -6
-7 0 -12 -5 -12 -11 0 -6 -9 -23 -20 -39 -11 -15 -17 -30 -13 -34 3 -3 1 -6
-5 -6 -6 0 -9 -7 -6 -15 4 -8 -1 -17 -10 -21 -9 -3 -13 -10 -10 -15 3 -6 0
-16 -6 -24 -7 -8 -9 -15 -5 -15 4 0 2 -6 -4 -13 -6 -8 -8 -17 -4 -20 3 -4 1
-7 -6 -7 -8 0 -11 -7 -7 -15 3 -8 1 -15 -4 -15 -5 0 -7 -9 -5 -20 2 -11 0 -20
-5 -20 -5 0 -7 -9 -5 -20 2 -11 0 -20 -5 -20 -5 0 -7 -9 -5 -20 2 -11 0 -20
-5 -20 -4 0 -7 -8 -5 -17 1 -10 0 -22 -4 -28 -3 -5 -6 -18 -7 -27 -1 -10 -2
-19 -4 -20 -2 -3 -8 -59 -13 -118 -1 -19 -7 -42 -12 -50 -12 -18 -16 -481 -5
-542 4 -24 13 -78 20 -121 14 -92 57 -269 68 -277 4 -3 9 -14 10 -25 2 -11 18
-49 35 -84 48 -97 88 -113 340 -136 43 -4 67 -11 67 -19 0 -27 80 -175 130
-241 124 -164 277 -266 464 -309 124 -29 400 -16 514 24 154 54 300 193 391
372 l33 67 47 -4 c85 -7 225 -15 371 -20 80 -4 163 -8 185 -10 108 -10 579
-20 907 -20 l366 0 36 -73 c20 -39 40 -72 46 -72 5 0 9 -4 7 -9 -4 -15 70
-106 136 -166 160 -148 347 -212 581 -202 66 3 141 9 166 12 60 8 160 36 160
45 0 4 6 7 13 7 36 0 170 108 238 193 51 64 122 187 114 200 -3 5 -2 10 3 10
10 0 51 108 74 195 l14 50 47 3 c37 2 47 0 47 -12 0 -13 15 -16 78 -17 142 -3
436 7 482 16 12 2 70 7 129 10 58 3 120 8 136 10 17 2 59 6 95 9 109 10 483
46 515 51 17 2 64 6 105 10 41 3 91 8 110 10 19 2 82 9 140 15 58 6 119 13
135 15 17 3 95 11 175 20 204 21 225 23 510 55 231 26 917 105 1130 130 47 5
110 12 140 16 30 3 150 16 265 30 116 13 230 26 255 29 25 3 104 12 175 20 72
9 148 17 170 19 l41 4 23 -89 c92 -362 328 -606 649 -674 88 -18 308 -13 427
11 65 12 125 36 119 46 -5 7 -2 8 5 4 17 -11 112 54 181 125 98 99 167 218
220 379 29 89 60 236 60 286 0 22 4 24 53 25 28 0 61 2 72 4 11 1 54 6 95 9
101 9 140 14 240 36 88 19 196 55 204 69 13 20 67 293 85 422 14 110 18 190
16 339 -3 196 -9 250 -40 370 -18 66 -23 293 -11 492 3 46 8 151 12 233 3 83
8 153 10 156 2 3 6 86 10 185 6 175 3 226 -41 639 -2 22 -7 67 -10 100 -3 33
-8 80 -11 105 -9 90 -14 136 -19 195 -3 33 -10 103 -16 155 -5 52 -12 115 -14
140 -29 287 -38 369 -50 450 -9 52 -18 111 -21 130 -3 19 -8 42 -11 50 -3 8
-7 29 -8 45 -9 81 -94 387 -132 475 -75 171 -147 278 -213 314 -14 8 -67 17
-119 20 -51 3 -96 8 -100 10 -3 2 -58 7 -121 11 -63 3 -133 8 -155 10 -22 2
-89 6 -150 10 -60 3 -137 8 -170 10 -33 3 -121 7 -195 10 -74 3 -162 8 -195
10 -33 3 -134 7 -225 10 -91 3 -205 7 -255 10 -49 2 -164 7 -255 10 -91 3
-201 7 -245 10 -44 2 -179 7 -300 10 -121 3 -267 8 -325 10 -58 3 -199 7 -315
10 -115 3 -273 7 -350 10 -77 3 -239 7 -360 10 -121 3 -308 7 -415 10 -221 6
-488 12 -930 21 -168 3 -339 8 -380 10 -86 5 -1616 14 -1622 9z m-361 -141
c-3 -3 -12 -4 -19 -1 -8 3 -5 6 6 6 11 1 17 -2 13 -5z m7765 -913 c2 -22 0
-37 -4 -35 -8 5 -11 74 -4 74 2 0 6 -18 8 -39z m-3075 -63 c-3 -8 -6 -5 -6 6
-1 11 2 17 5 13 3 -3 4 -12 1 -19z m-3987 -172 c-4 -4 -16 -4 -26 2 -16 9 -14
10 8 9 15 -1 23 -6 18 -11z m-220 -356 c0 -5 -5 -10 -11 -10 -5 0 -7 5 -4 10
3 6 8 10 11 10 2 0 4 -4 4 -10z m7458 -885 c-3 -3 -9 2 -12 12 -6 14 -5 15 5
6 7 -7 10 -15 7 -18z m2 -25 c0 -5 -5 -10 -11 -10 -5 0 -7 5 -4 10 3 6 8 10
11 10 2 0 4 -4 4 -10z m-5440 -40 c0 -11 -4 -20 -10 -20 -5 0 -10 9 -10 20 0
11 5 20 10 20 6 0 10 -9 10 -20z m-3130 -454 c0 -2 -7 -6 -15 -10 -8 -3 -15
-1 -15 4 0 6 7 10 15 10 8 0 15 -2 15 -4z m-115 -326 c3 -6 -1 -7 -9 -4 -18 7
-21 14 -7 14 6 0 13 -4 16 -10z m-518 -46 c-3 -3 -12 -4 -19 -1 -8 3 -5 6 6 6
11 1 17 -2 13 -5z m182 -101 c0 -10 -3 -13 -5 -7 -3 7 -15 10 -27 7 -18 -4
-19 -3 -7 6 23 16 40 13 39 -6z m-126 -155 c7 -26 -1 -68 -13 -68 -13 0 -22
39 -16 66 8 30 22 31 29 2z m-3336 -720 c-3 -8 -6 -5 -6 6 -1 11 2 17 5 13 3
-3 4 -12 1 -19z m1217 -29 c-7 -13 -43 -17 -38 -5 2 6 13 12 24 12 10 0 17 -3
14 -7z m3843 5 c-3 -3 -12 -4 -19 -1 -8 3 -5 6 6 6 11 1 17 -2 13 -5z m-4541
-209 c-1 -8 -5 -17 -8 -21 -5 -4 -4 16 1 34 3 9 9 -1 7 -13z m1404 -55 c0 -5
-2 -10 -4 -10 -3 0 -8 5 -11 10 -3 6 -1 10 4 10 6 0 11 -4 11 -10z m2160 -100
c0 -5 -5 -10 -11 -10 -5 0 -7 5 -4 10 3 6 8 10 11 10 2 0 4 -4 4 -10z m1070
-464 c0 -12 -5 -7 -19 24 -11 24 -11 24 3 6 9 -11 16 -24 16 -30z m33 -106 c3
-11 1 -18 -4 -14 -5 3 -9 12 -9 20 0 20 7 17 13 -6z m5462 -600 l20 -25 -22
19 c-13 11 -23 24 -23 29 0 6 1 8 3 6 1 -2 11 -15 22 -29z m-6695 -26 c0 -8
-19 -13 -24 -6 -3 5 1 9 9 9 8 0 15 -2 15 -3z m-3239 -261 c13 -16 12 -17 -3
-4 -10 7 -18 15 -18 17 0 8 8 3 21 -13z"/>
<path d="M2589 8763 c-13 -16 -12 -17 4 -4 9 7 17 15 17 17 0 8 -8 3 -21 -13z"/>
<path d="M1829 7953 c-13 -16 -12 -17 4 -4 16 13 21 21 13 21 -2 0 -10 -8 -17
-17z"/>
</g>
</svg>
