<?xml version="1.0" encoding="utf-8"?>
<!-- Generator: Adobe Illustrator 19.0.0, SVG Export Plug-In . SVG Version: 6.00 Build 0)  -->
<svg version="1.1" id="Ebene_1" xmlns="http://www.w3.org/2000/svg" xmlns:xlink="http://www.w3.org/1999/xlink" x="0px" y="0px"
	 viewBox="0 0 809.5 226" style="enable-background:new 0 0 809.5 226;" xml:space="preserve">
<style type="text/css">
	.st0{fill:#F1592D;}
	.st1{fill:#FFFFFF;}
	.st2{fill:#F1582D;}
</style>
<path class="st0" d="M427.2,166.9h-93.9c-5.8,0-10.5-4.7-10.5-10.5v-0.7L344.1,9.6c0.5-5.4,5-9.6,10.5-9.6h93.9
	c5.8,0,10.5,4.7,10.5,10.5v0.7l-21.3,146.1C437.2,162.7,432.7,166.9,427.2,166.9z"/>
<g>
	<g>
		<path class="st0" d="M777.7,156.6H10.5c-5.8,0-10.5-4.7-10.5-10.5v-0.7L21.3,19.2c0.5-5.4,5-9.6,10.5-9.6H799
			c5.8,0,10.5,4.7,10.5,10.5v0.7L788.2,147C787.8,152.4,783.2,156.6,777.7,156.6z M17.2,140.4h755.7l19.3-114.7H36.6L17.2,140.4z"/>
		<g>
			<path class="st0" d="M118.5,61.6c0,0.5,0,0.9-0.1,1.3c-0.1,0.4-0.1,0.9-0.2,1.3l-1.8,10.1c-0.4,2.3-2.3,4.9-5.7,7.9
				c2,2.5,3,4.8,3,6.8v1.1l-4.6,25.8H88.9l4.6-25H72.1l-4.6,25H47.5l11.8-67.4h46.1c3.9,0,7,1.2,9.5,3.7
				C117.2,54.8,118.5,57.9,118.5,61.6z M75.9,68.8l-1,6.4h21.3l1-6.4H75.9z"/>
			<path class="st0" d="M182.3,68.8h-35.9l-1,5.6h35.9l-2.7,15.8h-35.9l-1,5.6h35.9L174,116h-56l11.8-67.4h56.2L182.3,68.8z"/>
			<path class="st0" d="M254.2,61.6c0,0.5,0,0.9-0.1,1.3c0,0.4-0.1,0.9-0.2,1.3l-9.1,51.7h-20.2l8.3-47.2h-21.4l-8.3,47.2h-20.1
				l11.8-67.4H241c3.9,0,7,1.2,9.5,3.7C252.9,54.8,254.2,57.9,254.2,61.6z"/>
			<path class="st0" d="M315.8,68.8h-17.6l-8.3,47.2h-20.2l8.3-47.2h-18l3.6-20.2h55.8L315.8,68.8z"/>
			<path class="st1" d="M398.5,116l-0.7-9h-19.1l-3.8,9h-20.1l28.6-67.4h30.3l4.9,67.4H398.5z M395,68.8l-9,21.4h10.7L395,68.8z"/>
			<path class="st0" d="M529.7,68.8h-35.9l-1,6.4h34.1L524,91h-33.9l-4.6,25h-20.1l11.8-67.4h56.2L529.7,68.8z"/>
			<path class="st0" d="M599.7,61.6c0,0.5,0,0.9-0.1,1.3c-0.1,0.4-0.1,0.9-0.2,1.3l-1.8,10.1c-0.4,2.3-2.3,4.9-5.7,7.9
				c2,2.5,3,4.8,3,6.8v1.1l-4.6,25.8h-20.2l4.6-25h-21.4l-4.6,25h-20.1l11.8-67.4h46.1c3.9,0,7,1.2,9.5,3.7
				C598.5,54.8,599.7,57.9,599.7,61.6z M557.1,68.8l-1,6.4h21.3l1-6.4H557.1z"/>
			<path class="st0" d="M618.7,116h-20.1l11.8-67.4h20.2L618.7,116z"/>
			<path class="st0" d="M689.9,68.8h-17.1l-8.3,47.2h-20.2l8.3-47.2h-18.2l3.6-20.2h55.6L689.9,68.8z"/>
			<path class="st0" d="M728.2,95.8h25.9l-3.6,20.2h-61.7l34-47.2H697l3.6-20.2h61.8L728.2,95.8z"/>
		</g>
	</g>
</g>
<g id="XMLID_51_">
	<path id="XMLID_52_" class="st2" d="M44.3,226H33l-1.8-25h7.5l1.3,17.5l7.5-17.5H55L44.3,226z"/>
	<path id="XMLID_54_" class="st2" d="M75.5,208.5H62.2l-0.4,2.1h13.3l-1,5.8H60.8l-0.4,2.1h13.3l-1.3,7.5H51.6l4.4-25h20.8
		L75.5,208.5z"/>
	<path id="XMLID_56_" class="st2" d="M100.9,205.8c0,0.2,0,0.3,0,0.5c0,0.2,0,0.3-0.1,0.5l-0.7,3.8c-0.1,0.9-0.9,1.8-2.1,2.9
		c0.7,0.9,1.1,1.8,1.1,2.5v0.4l-1.7,9.6h-7.5l1.7-9.6h-7.9L82,226h-7.5l4.4-25H96c1.4,0,2.6,0.5,3.5,1.4S100.9,204.4,100.9,205.8z
		 M85.1,208.5l-0.4,2.1h7.9l0.4-2.1H85.1z"/>
	<path id="XMLID_59_" class="st2" d="M120.3,226H99.5l4.4-25h7.5l-3.1,17.5h13.3L120.3,226z"/>
	<path id="XMLID_61_" class="st2" d="M146.3,208.5H133l-0.4,2.1H146l-1,5.8h-13.3l-0.4,2.1h13.3l-1.3,7.5h-20.8l4.4-25h20.8
		L146.3,208.5z"/>
	<path id="XMLID_63_" class="st2" d="M152.8,226h-7.5l4.4-25h7.5L152.8,226z"/>
	<path id="XMLID_65_" class="st2" d="M177.8,226h-7.5l1.7-9.6h-7.9l-1.7,9.6H155l4.4-25h7.5l-1.7,9.6h7.9l1.7-9.6h7.5L177.8,226z"/>
	<path id="XMLID_67_" class="st2" d="M218.4,208.5h-13.3l-0.4,2.1H218l-1,5.8h-13.3L202,226h-7.5l4.4-25h20.8L218.4,208.5z"/>
	<path id="XMLID_69_" class="st2" d="M241.4,220.1c-0.3,1.6-1.1,3-2.5,4.1c-1.3,1.1-2.8,1.7-4.4,1.7h-11.2c-1.4,0-2.6-0.5-3.5-1.4
		c-0.9-0.9-1.4-2.1-1.4-3.5c0-0.2,0-0.3,0-0.5c0-0.2,0-0.3,0.1-0.5l3.3-19.2h7.5l-3.1,17.5h7.9l3.1-17.5h7.5L241.4,220.1z"/>
	<path id="XMLID_71_" class="st2" d="M268.8,205.8c0,0.2,0,0.3,0,0.5c0,0.2,0,0.3-0.1,0.5l-0.7,3.8c-0.1,0.9-0.9,1.8-2.1,2.9
		c0.7,0.9,1.1,1.8,1.1,2.5v0.4l-1.7,9.6h-7.5l1.7-9.6h-7.9l-1.7,9.6h-7.5l4.4-25h17.1c1.4,0,2.6,0.5,3.5,1.4
		S268.8,204.4,268.8,205.8z M253,208.5l-0.4,2.1h7.9l0.4-2.1H253z"/>
	<path id="XMLID_74_" class="st2" d="M305.9,208.5h-13.3l-0.4,2.1h13.3l-1,5.8h-13.3l-1.7,9.6H282l4.4-25h20.8L305.9,208.5z"/>
	<path id="XMLID_76_" class="st2" d="M320.1,226l-0.3-3.3h-7.1l-1.4,3.3h-7.5l10.6-25h11.2l1.8,25H320.1z M318.8,208.5l-3.3,7.9h4
		L318.8,208.5z"/>
	<path id="XMLID_79_" class="st2" d="M351.6,226h-7.5l1.7-9.6h-7.9l-1.7,9.6h-7.5l4.4-25h7.5l-1.7,9.6h7.9l1.7-9.6h7.5L351.6,226z"
		/>
	<path id="XMLID_81_" class="st2" d="M380,205.8c0,0.2,0,0.3,0,0.5c0,0.2,0,0.3-0.1,0.5l-0.7,3.8c-0.1,0.9-0.9,1.8-2.1,2.9
		c0.7,0.9,1.1,1.8,1.1,2.5v0.4l-1.7,9.6h-7.5l1.7-9.6h-7.9l-1.7,9.6h-7.5l4.4-25h17.1c1.4,0,2.6,0.5,3.5,1.4S380,204.4,380,205.8z
		 M364.2,208.5l-0.4,2.1h7.9l0.4-2.1H364.2z"/>
	<path id="XMLID_84_" class="st2" d="M393.3,218.5h9.6l-1.3,7.5h-22.9l12.6-17.5h-9.6l1.3-7.5H406L393.3,218.5z"/>
	<path id="XMLID_86_" class="st2" d="M427.5,208.5h-13.3l-0.4,2.1h13.3l-1,5.8h-13.3l-0.4,2.1h13.3l-1.3,7.5h-20.8l4.4-25h20.8
		L427.5,208.5z"/>
	<path id="XMLID_88_" class="st2" d="M450.5,220.1c-0.3,1.6-1.1,3-2.5,4.1c-1.3,1.1-2.8,1.7-4.4,1.7h-11.2c-1.4,0-2.6-0.5-3.5-1.4
		c-0.9-0.9-1.4-2.1-1.4-3.5c0-0.2,0-0.3,0-0.5c0-0.2,0-0.3,0.1-0.5L431,201h7.5l-3.1,17.5h7.9l3.1-17.5h7.5L450.5,220.1z"/>
	<path id="XMLID_90_" class="st2" d="M477.5,208.5h-15.4l-1.7,10h7.9l0.4-2.1h-3.4l1-5.8h10.8l-1.7,9.6c-0.3,1.6-1.1,3-2.5,4.1
		c-1.3,1.1-2.8,1.7-4.4,1.7h-11.2c-1.4,0-2.6-0.5-3.5-1.4c-0.9-0.9-1.4-2.1-1.4-3.5c0-0.2,0-0.3,0-0.5c0-0.2,0-0.3,0.1-0.5l2.3-13.3
		c0.3-1.6,1.1-3,2.4-4.1c1.4-1.1,2.8-1.7,4.4-1.7h17.1L477.5,208.5z"/>
	<path id="XMLID_92_" class="st2" d="M500.5,208.5h-13.3l-0.4,2.1h13.3l-1,5.8h-13.3l-0.4,2.1h13.3l-1.3,7.5h-20.8l4.4-25h20.8
		L500.5,208.5z"/>
	<path id="XMLID_94_" class="st2" d="M538,220.1c-0.3,1.6-1.1,3-2.5,4.1c-1.3,1.1-2.8,1.7-4.4,1.7h-11.2c-1.4,0-2.6-0.5-3.5-1.4
		c-0.9-0.9-1.4-2.1-1.4-3.5c0-0.2,0-0.3,0-0.5c0-0.2,0-0.3,0.1-0.5l3.3-19.2h7.5l-3.1,17.5h7.9l3.1-17.5h7.5L538,220.1z"/>
	<path id="XMLID_96_" class="st2" d="M565.4,205.8c0,0.2,0,0.3,0,0.5c0,0.2,0,0.3-0.1,0.5L562,226h-7.5l3.1-17.5h-7.9l-3.1,17.5
		h-7.5l4.4-25h17.1c1.4,0,2.6,0.5,3.5,1.4S565.4,204.4,565.4,205.8z"/>
	<path id="XMLID_98_" class="st2" d="M590.4,205.8c0,0.2,0,0.3,0,0.5c0,0.2,0,0.3-0.1,0.5l-2.3,13.3c-0.3,1.6-1.1,3-2.5,4.1
		c-1.3,1.1-2.8,1.7-4.4,1.7h-17l4.4-25h17.1c1.4,0,2.6,0.5,3.5,1.4S590.4,204.4,590.4,205.8z M574.6,208.5l-1.7,10h7.9l1.8-10H574.6
		z"/>
	<path id="XMLID_101_" class="st2" d="M629.6,208.5h-15.4l-1.7,10h7.9l0.4-2.1h-3.4l1-5.8h10.8l-1.7,9.6c-0.3,1.6-1.1,3-2.5,4.1
		c-1.3,1.1-2.8,1.7-4.4,1.7h-11.2c-1.4,0-2.6-0.5-3.5-1.4c-0.9-0.9-1.4-2.1-1.4-3.5c0-0.2,0-0.3,0-0.5c0-0.2,0-0.3,0.1-0.5l2.3-13.3
		c0.3-1.6,1.1-3,2.4-4.1c1.4-1.1,2.8-1.7,4.4-1.7h17.1L629.6,208.5z"/>
	<path id="XMLID_103_" class="st2" d="M652.5,208.5h-13.3l-0.4,2.1h13.3l-1,5.8h-13.3l-0.4,2.1h13.3l-1.3,7.5h-20.8l4.4-25h20.8
		L652.5,208.5z"/>
	<path id="XMLID_105_" class="st2" d="M677.9,205.8c0,0.2,0,0.3,0,0.5c0,0.2,0,0.3-0.1,0.5l-0.7,3.8c-0.1,0.9-0.9,1.8-2.1,2.9
		c0.7,0.9,1.1,1.8,1.1,2.5v0.4l-1.7,9.6h-7.5l1.7-9.6h-7.9L659,226h-7.5l4.4-25H673c1.4,0,2.6,0.5,3.5,1.4S677.9,204.4,677.9,205.8z
		 M662.1,208.5l-0.4,2.1h7.9l0.4-2.1H662.1z"/>
	<path id="XMLID_108_" class="st2" d="M691.7,226l-0.3-3.3h-7.1L683,226h-7.5l10.6-25h11.2l1.8,25H691.7z M690.4,208.5l-3.3,7.9h4
		L690.4,208.5z"/>
	<path id="XMLID_111_" class="st2" d="M726.3,208.5h-7.7l-3.1,17.5H708l3.1-17.5h-7.7l1.3-7.5h22.9L726.3,208.5z"/>
	<path id="XMLID_113_" class="st2" d="M749.2,208.5h-13.3l-0.4,2.1h13.3l-1,5.8h-13.3l-0.4,2.1h13.3l-1.3,7.5h-20.8l4.4-25h20.8
		L749.2,208.5z"/>
</g>
<polygon id="XMLID_125_" class="st2" points="229.5,200.1 222,200.1 222.4,197.8 229.9,197.8 "/>
<polygon id="XMLID_131_" class="st2" points="244.9,200.2 237.4,200.2 237.8,197.9 245.3,197.9 "/>
<polygon id="XMLID_127_" class="st2" points="690.7,200.2 686.5,200.2 686.7,197.9 691,197.9 "/>
<polygon id="XMLID_126_" class="st2" points="697.6,200.2 693.3,200.2 693.6,197.9 697.9,197.9 "/>
</svg>
