<?xml version="1.0" encoding="utf-8"?>
<!-- Generator: Adobe Illustrator 19.0.0, SVG Export Plug-In . SVG Version: 6.00 Build 0)  -->
<svg version="1.1" id="Ebene_1" xmlns="http://www.w3.org/2000/svg" xmlns:xlink="http://www.w3.org/1999/xlink" x="0px" y="0px"
	 viewBox="-382 509.4 809.5 166.9" style="enable-background:new -382 509.4 809.5 166.9;" xml:space="preserve">
<style type="text/css">
	.st0{fill:#F1592D;}
	.st1{fill:#FFFFFF;}
</style>
<path class="st0" d="M45.2,676.3h-93.9c-5.8,0-10.5-4.7-10.5-10.5v-0.7L-37.9,519c0.5-5.4,5-9.6,10.5-9.6h93.9
	c5.8,0,10.5,4.7,10.5,10.5v0.7L55.7,666.7C55.2,672.1,50.7,676.3,45.2,676.3z"/>
<g>
	<g>
		<path class="st0" d="M395.7,666h-767.2c-5.8,0-10.5-4.7-10.5-10.5v-0.7l21.3-126.2c0.5-5.4,5-9.6,10.5-9.6H417
			c5.8,0,10.5,4.7,10.5,10.5v0.7l-21.3,126.2C405.8,661.8,401.2,666,395.7,666z M-364.8,649.8h755.7l19.3-114.7h-755.6L-364.8,649.8
			z"/>
		<g>
			<path class="st0" d="M-263.5,571c0,0.5,0,0.9-0.1,1.3c-0.1,0.4-0.1,0.9-0.2,1.3l-1.8,10.1c-0.4,2.3-2.3,4.9-5.7,7.9
				c2,2.5,3,4.8,3,6.8v1.1l-4.6,25.8h-20.2l4.6-25h-21.4l-4.6,25h-20l11.8-67.4h46.1c3.9,0,7,1.2,9.5,3.7
				C-264.8,564.2-263.5,567.3-263.5,571z M-306.1,578.2l-1,6.4h21.3l1-6.4H-306.1z"/>
			<path class="st0" d="M-199.7,578.2h-35.9l-1,5.6h35.9l-2.7,15.8h-35.9l-1,5.6h35.9l-3.6,20.2h-56l11.8-67.4h56.2L-199.7,578.2z"
				/>
			<path class="st0" d="M-127.8,571c0,0.5,0,0.9-0.1,1.3c0,0.4-0.1,0.9-0.2,1.3l-9.1,51.7h-20.2l8.3-47.2h-21.4l-8.3,47.2h-20.1
				l11.8-67.4h46.1c3.9,0,7,1.2,9.5,3.7C-129.1,564.2-127.8,567.3-127.8,571z"/>
			<path class="st0" d="M-66.2,578.2h-17.6l-8.3,47.2h-20.2l8.3-47.2h-18l3.6-20.2h55.8L-66.2,578.2z"/>
			<path class="st1" d="M16.5,625.4l-0.7-9H-3.3l-3.8,9h-20.1L1.4,558h30.3l4.9,67.4H16.5z M13,578.2l-9,21.4h10.7L13,578.2z"/>
			<path class="st0" d="M147.7,578.2h-35.9l-1,6.4h34.1l-2.9,15.8h-33.9l-4.6,25H83.4L95.2,558h56.2L147.7,578.2z"/>
			<path class="st0" d="M217.7,571c0,0.5,0,0.9-0.1,1.3c-0.1,0.4-0.1,0.9-0.2,1.3l-1.8,10.1c-0.4,2.3-2.3,4.9-5.7,7.9
				c2,2.5,3,4.8,3,6.8v1.1l-4.6,25.8h-20.2l4.6-25h-21.4l-4.6,25h-20.1l11.8-67.4h46.1c3.9,0,7,1.2,9.5,3.7
				C216.5,564.2,217.7,567.3,217.7,571z M175.1,578.2l-1,6.4h21.3l1-6.4H175.1z"/>
			<path class="st0" d="M236.7,625.4h-20.1l11.8-67.4h20.2L236.7,625.4z"/>
			<path class="st0" d="M307.9,578.2h-17.1l-8.3,47.2h-20.2l8.3-47.2h-18.2L256,558h55.6L307.9,578.2z"/>
			<path class="st0" d="M346.2,605.2h25.9l-3.6,20.2h-61.7l34-47.2H315l3.6-20.2h61.8L346.2,605.2z"/>
		</g>
	</g>
</g>
</svg>
