<?xml version="1.0" encoding="utf-8"?>
<!-- Generator: Adobe Illustrator 19.0.0, SVG Export Plug-In . SVG Version: 6.00 Build 0)  -->
<svg version="1.1" id="Ebene_1" xmlns="http://www.w3.org/2000/svg" xmlns:xlink="http://www.w3.org/1999/xlink" x="0px" y="0px"
	 viewBox="0 0 255 256" style="enable-background:new 0 0 255 256;" xml:space="preserve">
<style type="text/css">
	.st0{fill:#FFFFFF;}
	.st1{clip-path:url(#SVGID_2_);fill:#006236;}
	.st2{fill:none;stroke:#006236;stroke-width:3.592;stroke-miterlimit:3.864;}
	.st3{fill-rule:evenodd;clip-rule:evenodd;fill:#006236;}
	.st4{fill:#9ACA3C;}
	.st5{opacity:0.76;}
	.st6{fill:#006236;}
	.st7{opacity:0.87;}
	.st8{opacity:0.8;fill:#FFFFFF;}
</style>
<path class="st0" d="M1.8,23.8c0-12.1,9.7-22,21.8-22h207.4c12,0,21.8,9.8,21.8,22v209.5c0,12.1-9.7,22-21.8,22H23.6
	c-12,0-21.8-9.8-21.8-22V23.8z"/>
<g>
	<defs>
		<path id="SVGID_1_" d="M2.4,26.4c0-12,9.8-21.8,21.8-21.8H232c12,0,21.8,9.8,21.8,21.8v207.8c0,12-9.8,21.8-21.8,21.8H24.2
			c-12,0-21.8-9.8-21.8-21.8V26.4"/>
	</defs>
	<clipPath id="SVGID_2_">
		<use xlink:href="#SVGID_1_"  style="overflow:visible;"/>
	</clipPath>
	<path class="st1" d="M1.4,335.4h252V84c0,0-135.1,77-252,0"/>
</g>
<path class="st2" d="M1.8,23.6c0-12,9.8-21.8,21.8-21.8h207.8c12,0,21.8,9.8,21.8,21.8v207.8c0,12-9.8,21.8-21.8,21.8H23.6
	c-12,0-21.8-9.8-21.8-21.8V23.6z"/>
<g>
	<path class="st0" d="M166.2,80.4c0,0,6.9-0.2,11.1,2.5c3.7,2.3,4.5,4.8,4.5,4.8l10.3,6.7c0,0-11.2,2.9-15.7,7.6
		c-4.7,5-4.6,13.5-13.9,22.2c-8.7,8.2-21.1,11.4-32.6,12.1c-15.6,0.8-28.1,1.4-45.6,8.8c-16.1,6.7-32.5,22-33.3,21.6
		c-0.8-0.5,11.4-19.9,25-33.6c12.4-12.4,25.6-22.2,25.6-22.2c-1.5-2.6-2.5-5.5-3.2-8.5c-3-29-18.9-48.7-44.8-59.1
		c4.2-1.2,9.2-2.5,14.5-3c32.1-2.8,60.9,6.8,76.5,23.6c16.9-16,37.5-26.3,60.3-29.1C188,47.7,175.5,59.6,166.2,80.4"/>
	<path class="st3" d="M151.1,74c-1.4-2.4-3-4.7-4.8-6.9c12.6-12.5,29.5-22.5,49.2-28c-14.7,10.8-26.1,25.5-32.9,42.2
		c-2.4,0.3-5,0.7-7.8,1.5c-0.6-1.9-1.2-3.8-2.1-5.6c3.5-7.2,8.6-14.2,15.3-20.6C161.3,61.9,155.6,67.9,151.1,74"/>
	<path class="st3" d="M104,113.1c5.4,7.6,14.7,12.3,24.7,12c12-0.4,22.8-8.6,26.4-19.6c1.2-4,1.6-8.4,1.4-12.6
		c-0.1-2.6-0.4-5.1-1-7.6c10.6-2.8,18.6-2.3,22.6,2.4c0.5,0.6,1.9,2.6,1.8,2.6c0,0,3.5,1.7,6.3,3.4c-7.2,1.4-12.9,5.9-15.4,11.4
		c-5.6,15.2-14.8,27.5-46.4,28.4c-3,0.1-6,0.3-9,0.6c-24.8,2.6-45.9,12.6-57.9,25.7c8.7-12.4,21.3-25.9,36.9-39
		C97.5,118.1,100.7,115.5,104,113.1 M167.1,91.9c0,1.1,0.9,1.9,2,1.9c1.1,0,1.9-0.9,1.9-2c0-1.1-0.9-1.9-2-1.9
		C167.9,89.9,167.1,90.8,167.1,91.9z"/>
	<path class="st4" d="M96,52.9c22.9,8,39.7,29.5,40.6,55.3c0.2,4.6-0.2,9-1,13.3c-2.3,0.7-4.7,1.2-7.2,1.2
		c-13.5,0.5-25.1-9.3-27.2-22.3c-2-24.6-17.4-46.3-38.7-56c4.5-0.8,9.3-1,14.1-1.2c41.7-1.5,76.4,20.7,77.4,49.5
		c0.1,4.1-0.1,7.9-1.2,11.7c-2.2,6.6-6.8,12.2-12.9,15.4c0.7-3.9,0.9-7.9,0.8-12.1C139.7,80.8,120.9,58.9,96,52.9"/>
</g>
<path class="st0" d="M34.1,211.8c-9,0-13.5-6.9-13.5-19.7c0-13.3,5.1-19.9,13.7-19.9c8.1,0,10.9,4.6,12.3,12l-8.9,2.4
	c-0.7-4.3-1.3-6.5-3.5-6.5c-3,0-4.1,3.1-4.1,11.8c0,8.8,1.2,12,4.2,12c2.1,0,2.9-1.5,3.9-6.3l8.5,2.9
	C45,207.5,41.7,211.8,34.1,211.8z"/>
<path class="st0" d="M62.7,211.8c-8.6,0-13.7-6.2-13.7-19.7c0-13.5,5.2-19.9,13.8-19.9c8.6,0,13.7,6.3,13.7,19.7
	C76.5,205.5,71.4,211.8,62.7,211.8z M62.8,180.1c-2.9,0-4.3,2.6-4.3,11.8c0,9.3,1.5,12,4.3,12c2.9,0,4.3-2.6,4.3-11.8
	C67.1,182.8,65.6,180.1,62.8,180.1z"/>
<path class="st0" d="M78.3,215.8c0.2-6.6,2.3-9.3,6.2-12.1c1.7-1.2,2.2-2,2.2-3.1c0-1-0.6-1.7-1.5-1.7c-1.2,0-2.1,0.4-3.6,2.3
	l-3.2-2.7c1.8-2.4,3.7-3.8,6.9-3.8c4,0,6.1,2.2,6.1,5.4c0,2.4-0.8,4.2-3.7,6.2c-3.1,2.3-4,3.7-4.3,5.4h8.1v4.1H78.3z"/>
<path class="st0" d="M95.1,198.3v-7.2h12.5v7.2H95.1z"/>
<path class="st0" d="M122.7,211.2v-15.8c0-1.8-0.6-2.7-1.7-2.7c-0.9,0-1.6,0.4-2.2,0.9v17.6h-7v-24h7v1.4c1.2-1.1,2.6-1.9,4.9-1.9
	c4,0,6.1,2.4,6.1,7.5v17H122.7z"/>
<path class="st0" d="M139.3,201.3c0.2,3.8,1.2,4.9,2.8,4.9c1.4,0,2.4-0.6,3.9-2.7l4.2,3.3c-2,3-4.3,4.9-8.4,4.9
	c-6,0-9.1-4.7-9.1-12.4c0-8.2,3.2-12.6,9.1-12.6c5.7,0,8.8,4.3,8.8,12.8c0,0.5,0,1.3,0,1.7H139.3z M141.6,192
	c-1.4,0-2.1,1.1-2.3,4.6h4.8C144,193.3,143.3,192,141.6,192z"/>
<path class="st0" d="M164.5,211.2v-1.4c-1.2,1.1-2.7,1.9-4.9,1.9c-4,0-6-2.4-6-7.5v-17h7V203c0,1.8,0.6,2.7,1.7,2.7
	c0.9,0,1.6-0.4,2.2-0.9v-17.6h7v24H164.5z"/>
<path class="st0" d="M187.3,210.8c-1.4,0.6-2.9,1-4.7,1c-3.7,0-5.6-1.9-5.6-6.4V193h-2.7v-5.8h2.7v-6.6l6.9-2.7v9.3h4.1v5.8h-4.1
	v10.5c0,1.5,0.5,2,1.6,2c1,0,1.6-0.3,2.7-0.9L187.3,210.8z"/>
<path class="st0" d="M204.2,194.7c-0.9-0.9-1.8-1.4-3.1-1.4c-1.4,0-2.4,0.6-2.6,2.3v15.6h-7v-24h7v1.5c1.1-1.2,2.4-2,4-2
	c1.4,0,2.2,0.3,2.9,0.6L204.2,194.7z"/>
<path class="st0" d="M216.8,211.2v-1.4c-1.3,1.1-2.8,1.9-4.6,1.9c-4,0-6.2-2.7-6.2-8.1c0-5.3,2.6-7.9,7-7.9c1.7,0,2.8,0.3,3.8,0.8
	v-1.9c0-1.7-0.7-2.4-2.4-2.4c-1.9,0-3.4,0.6-5.4,1.8l-2-4.9c2.4-1.5,5.3-2.5,8.6-2.5c5.6,0,8.2,2.5,8.2,7.6v16.9H216.8z M216.8,201
	c-0.6-0.3-1.3-0.5-2.4-0.5c-1.2,0-1.9,0.8-1.9,3.1c0,2,0.5,3,1.9,3c1,0,1.8-0.3,2.3-0.8V201z"/>
<path class="st0" d="M227.5,211.2v-30.6l7-2.7v33.3H227.5z"/>
<g>
	<path class="st0" d="M49.1,232.4v-0.9c-0.7,0.6-1.5,1.1-2.5,1.1c-2.1,0-3.7-1.5-3.7-5.2c0-3.3,1.8-4.9,3.8-4.9c1,0,1.9,0.5,2.4,1.1
		v-3.7l1.9-1v13.5H49.1z M49.1,225.5c-0.4-0.6-1.3-1.3-2.3-1.3c-1.4,0-2.1,1-2.1,3.1c0,2.4,0.8,3.5,2.2,3.5c0.9,0,1.7-0.6,2.2-1.2
		V225.5z"/>
	<path class="st0" d="M59.6,232.4v-0.9c-0.5,0.7-1.4,1.1-2.4,1.1c-2.3,0-3.5-1.5-3.5-4.3v-5.6h1.9v5.5c0,2,0.7,2.7,2,2.7
		c1.3,0,2-0.9,2-2.5v-5.7h1.9v9.7H59.6z"/>
	<path class="st0" d="M69.6,224.7c-0.4-0.2-0.8-0.4-1.5-0.4c-1.2,0-1.9,0.8-1.9,2.5v5.5h-1.9v-9.7h1.9v0.9c0.4-0.6,1.3-1.1,2.2-1.1
		c0.8,0,1.3,0.1,1.6,0.4L69.6,224.7z"/>
	<path class="st0" d="M78.1,225.4c-0.8-0.8-1.5-1.2-2.4-1.2c-1.4,0-2.3,1.2-2.3,3.2c0,1.9,0.8,3.3,2.3,3.3c0.9,0,1.4-0.4,2.2-1.2
		l1.2,1.2c-0.8,1-1.7,1.8-3.5,1.8c-2.4,0-4.2-2-4.2-5c0-3.2,1.9-5.1,4.2-5.1c1.4,0,2.5,0.6,3.4,1.6L78.1,225.4z"/>
	<path class="st0" d="M87.5,232.4v-5.5c0-2-0.7-2.7-2-2.7c-1.3,0-2,0.9-2,2.5v5.7h-1.9v-12.5l1.9-1v4.7c0.5-0.7,1.4-1.1,2.4-1.1
		c2.3,0,3.5,1.5,3.5,4.3v5.6H87.5z"/>
	<path class="st0" d="M105.3,232.4v-5.8h-5.9v5.8h-1.9v-12.9h1.9v5.2h5.9v-5.2h1.9v12.9H105.3z"/>
	<path class="st0" d="M116.1,232.4v-0.9c-0.5,0.7-1.4,1.1-2.4,1.1c-2.3,0-3.5-1.5-3.5-4.3v-5.6h1.9v5.5c0,2,0.7,2.7,2,2.7
		c1.3,0,2-0.9,2-2.5v-5.7h1.9v9.7H116.1z"/>
	<path class="st0" d="M132.1,232.4v-5.5c0-2-0.6-2.7-1.9-2.7c-1.3,0-1.9,0.9-1.9,2.5v5.7h-1.9v-5.5c0-2-0.6-2.7-1.9-2.7
		c-1.3,0-1.9,0.9-1.9,2.5v5.7h-1.9v-9.7h1.9v0.9c0.5-0.7,1.3-1.1,2.3-1.1c1.3,0,2.1,0.5,2.7,1.4c0.7-0.9,1.5-1.4,3-1.4
		c2.3,0,3.3,1.5,3.3,4.3v5.6H132.1z"/>
	<path class="st0" d="M142.6,232.4v-0.9c-0.5,0.7-1.4,1.1-2.4,1.1c-2.3,0-3.5-1.5-3.5-4.3v-5.6h1.9v5.5c0,2,0.7,2.7,2,2.7
		c1.3,0,2-0.9,2-2.5v-5.7h1.9v9.7H142.6z"/>
	<path class="st0" d="M150.4,232.6c-1.3,0-2.7-0.5-3.7-1.2l0.9-1.4c0.9,0.6,1.9,1,2.8,1c1.2,0,1.8-0.4,1.8-1.1
		c0-0.7-0.8-1.1-2.3-1.6c-2.1-0.8-2.8-1.5-2.8-3c0-1.7,1.4-2.6,3.3-2.6c1.2,0,2.4,0.4,3.3,1.1l-0.8,1.5c-0.8-0.6-1.6-0.8-2.5-0.8
		c-0.9,0-1.3,0.4-1.3,0.9c0,0.5,0.3,0.8,1.8,1.4c2.2,0.8,3.3,1.4,3.3,3.2C154.1,231.8,152.3,232.6,150.4,232.6z"/>
	<path class="st0" d="M162,232.4v-1c-0.7,0.7-1.6,1.2-2.7,1.2c-1.6,0-3.4-0.9-3.4-3.3c0-2.2,1.7-3.1,3.9-3.1c0.9,0,1.6,0.1,2.2,0.4
		v-0.7c0-1.1-0.6-1.6-1.8-1.6c-1,0-1.8,0.2-2.5,0.6l-0.7-1.4c0.9-0.6,2-0.9,3.3-0.9c2.2,0,3.6,1.1,3.6,3.2v6.6H162z M162,228.2
		c-0.5-0.3-1.2-0.4-2.2-0.4c-1.2,0-2,0.6-2,1.4c0,1,0.6,1.6,1.9,1.6c1,0,1.9-0.6,2.3-1.2V228.2z"/>
	<path class="st0" d="M172.5,232.4v-0.9c-0.5,0.7-1.4,1.1-2.4,1.1c-2.3,0-3.4-1.5-3.4-4.3v-5.6h1.9v5.5c0,2,0.7,2.7,2,2.7
		c1.3,0,2-0.9,2-2.5v-5.7h1.9v9.7H172.5z"/>
	<path class="st0" d="M180.6,220.6c-0.6,0-0.9,0.2-0.9,0.9v1.1h1.8v1.8h-1.8v7.9h-1.9v-7.9h-1.3v-1.8h1.3v-1.3
		c0-1.8,1.1-2.4,2.5-2.4c0.5,0,1,0.1,1.4,0.2v1.7C181.3,220.7,180.9,220.6,180.6,220.6z"/>
	<path class="st0" d="M188.2,232.6c-1,0-1.9-0.5-2.4-1.1v0.9h-1.9v-12.5l1.9-1v4.7c0.7-0.6,1.5-1.1,2.5-1.1c2.1,0,3.7,1.5,3.7,5.2
		C192,231,190.2,232.6,188.2,232.6z M187.9,224.2c-0.9,0-1.7,0.6-2.2,1.2v4.1c0.4,0.6,1.3,1.3,2.3,1.3c1.4,0,2.1-1,2.1-3.1
		C190.1,225.3,189.3,224.2,187.9,224.2z"/>
	<path class="st0" d="M199.9,232.4v-1c-0.7,0.7-1.6,1.2-2.7,1.2c-1.6,0-3.4-0.9-3.4-3.3c0-2.2,1.7-3.1,3.9-3.1
		c0.9,0,1.6,0.1,2.2,0.4v-0.7c0-1.1-0.6-1.6-1.8-1.6c-1,0-1.8,0.2-2.5,0.6l-0.7-1.4c0.9-0.6,2-0.9,3.3-0.9c2.2,0,3.6,1.1,3.6,3.2
		v6.6H199.9z M199.9,228.2c-0.5-0.3-1.2-0.4-2.2-0.4c-1.2,0-2,0.6-2,1.4c0,1,0.6,1.6,1.9,1.6c1,0,1.9-0.6,2.3-1.2V228.2z"/>
	<path class="st0" d="M210.3,232.4v-0.9c-0.5,0.7-1.4,1.1-2.4,1.1c-2.3,0-3.5-1.5-3.5-4.3v-5.6h1.9v5.5c0,2,0.7,2.7,2,2.7
		c1.3,0,2-0.9,2-2.5v-5.7h1.9v9.7H210.3z"/>
</g>
<g>
	<path class="st5" d="M241.9,2.7c4.5,4,6.1,11.4,6.1,17.9V230c0,12.1-10.3,19.6-22.4,19.6c0,0-214.8,0.8-217.2-0.2
		c3.9,3.4,8.2,6.7,16.6,6.7h207.7c12,0,20.5-10.8,22.4-22V24.6C255.2,15.4,249.9,5.9,241.9,2.7z"/>
</g>
<g>
	<path class="st6" d="M29.1,31.8c-4.3,0-7-3.5-7-8.5c0-5,2.7-8.5,7-8.5c4.3,0,7,3.5,7,8.5C36.1,28.3,33.4,31.8,29.1,31.8z
		 M29.1,17.2c-2.9,0-4.5,2.3-4.5,6.1c0,3.7,1.6,6.1,4.5,6.1c2.9,0,4.5-2.3,4.5-6.1C33.6,19.6,32,17.2,29.1,17.2z M26.7,13.9
		c-0.9,0-1.6-0.7-1.6-1.6c0-0.9,0.7-1.6,1.6-1.6c0.9,0,1.6,0.7,1.6,1.6C28.3,13.2,27.6,13.9,26.7,13.9z M31.3,13.9
		c-0.9,0-1.6-0.7-1.6-1.6c0-0.9,0.7-1.6,1.6-1.6c0.9,0,1.6,0.7,1.6,1.6C32.9,13.2,32.2,13.9,31.3,13.9z"/>
	<path class="st6" d="M46.4,31.6l-2.7-6.2l-1.9,2.5v3.7h-2.4v-16l2.4-1.3v7.8c0,0.8,0,2,0,2.6c0.3-0.5,1-1.4,1.4-2l2.6-3.6h2.8
		l-3.1,4.2l3.7,8.3H46.4z"/>
	<path class="st6" d="M56.7,31.8c-3.1,0-5.5-2.6-5.5-6.5c0-4.1,2.4-6.5,5.5-6.5c3.2,0,5.5,2.5,5.5,6.4
		C62.3,29.4,59.9,31.8,56.7,31.8z M56.6,21.2c-1.8,0-3,1.6-3,4.1c0,2.7,1.3,4.2,3.1,4.2c1.8,0,3.1-1.9,3.1-4.1
		C59.8,22.8,58.6,21.2,56.6,21.2z"/>
	<path class="st6" d="M72,21.7c-0.5-0.3-1.1-0.4-1.9-0.4c-1.5,0-2.4,1.1-2.4,3.2v7.1h-2.4V19.1h2.4v1.2c0.6-0.8,1.6-1.4,2.8-1.4
		c1,0,1.6,0.2,2.1,0.5L72,21.7z"/>
	<path class="st6" d="M85.2,26.2H77c0.3,2.4,1.6,3.4,3.1,3.4c1,0,1.9-0.4,2.7-1l1.4,1.6c-1.1,1-2.4,1.6-4.3,1.6
		c-2.9,0-5.4-2.3-5.4-6.5c0-4.2,2.2-6.5,5.4-6.5c3.5,0,5.2,2.9,5.2,6.2C85.2,25.5,85.2,25.9,85.2,26.2z M79.8,21.1
		c-1.6,0-2.6,1.1-2.8,3.1h5.8C82.7,22.5,81.9,21.1,79.8,21.1z"/>
	<path class="st6" d="M92.3,36.1l-0.8-1.8c3.5-0.2,4.3-1.1,4.3-3.7v-0.2c-0.9,0.8-1.9,1.4-3.2,1.4c-2.6,0-4.8-1.9-4.8-6.7
		c0-4.3,2.3-6.3,4.9-6.3c1.3,0,2.4,0.7,3.1,1.4v-1.2h2.4v11.2C98.1,34.2,96.8,36,92.3,36.1z M95.8,22.8c-0.5-0.7-1.7-1.6-2.9-1.6
		c-1.8,0-2.7,1.3-2.7,3.9c0,3.1,1,4.5,2.8,4.5c1.2,0,2.2-0.8,2.8-1.6V22.8z"/>
	<path class="st6" d="M103.1,17.5c-0.9,0-1.6-0.7-1.6-1.6c0-0.9,0.7-1.6,1.6-1.6c0.9,0,1.6,0.7,1.6,1.6
		C104.6,16.8,103.9,17.5,103.1,17.5z M101.9,31.6V19.1h2.4v12.4H101.9z"/>
	<path class="st6" d="M112.9,31.8c-3.1,0-5.5-2.6-5.5-6.5c0-4.1,2.4-6.5,5.5-6.5c3.2,0,5.5,2.5,5.5,6.4
		C118.5,29.4,116.1,31.8,112.9,31.8z M112.9,21.2c-1.8,0-3,1.6-3,4.1c0,2.7,1.3,4.2,3.1,4.2c1.8,0,3-1.9,3-4.1
		C116,22.8,114.8,21.2,112.9,21.2z"/>
	<path class="st6" d="M129,31.6v-7c0-2.5-0.9-3.4-2.6-3.4c-1.6,0-2.6,1.2-2.6,3.2v7.3h-2.4V19.1h2.4v1.2c0.6-0.9,1.8-1.4,3.1-1.4
		c2.9,0,4.4,1.9,4.4,5.6v7.1H129z"/>
	<path class="st6" d="M151.9,31.6l-4.8-8.5l-3.1,3.7v4.8h-2.4V15h2.4v5.7c0,0.6,0,2.4,0,2.9c0.3-0.4,1.4-1.8,1.9-2.5l4.9-6.1h2.8
		l-4.8,6l5.9,10.5H151.9z"/>
	<path class="st6" d="M164.7,31.6v-1.2c-0.9,0.9-2.1,1.5-3.4,1.5c-2,0-4.3-1.1-4.3-4.2c0-2.8,2.1-4,4.9-4c1.2,0,2.1,0.2,2.8,0.5
		v-0.9c0-1.3-0.8-2.1-2.3-2.1c-1.3,0-2.3,0.2-3.2,0.8l-0.9-1.8c1.2-0.7,2.5-1.1,4.3-1.1c2.8,0,4.7,1.3,4.7,4.2v8.5H164.7z
		 M164.7,26.3c-0.7-0.3-1.5-0.5-2.8-0.5c-1.6,0-2.6,0.7-2.6,1.8c0,1.2,0.8,2.1,2.4,2.1c1.3,0,2.4-0.8,3-1.6V26.3z"/>
	<path class="st6" d="M171.9,17.5c-0.9,0-1.6-0.7-1.6-1.6c0-0.9,0.7-1.6,1.6-1.6c0.8,0,1.6,0.7,1.6,1.6
		C173.5,16.8,172.8,17.5,171.9,17.5z M170.7,31.6V19.1h2.4v12.4H170.7z"/>
	<path class="st6" d="M184.4,31.6v-7c0-2.5-0.9-3.4-2.6-3.4c-1.6,0-2.6,1.2-2.6,3.2v7.3h-2.4V19.1h2.4v1.2c0.6-0.9,1.8-1.4,3.1-1.4
		c2.9,0,4.4,1.9,4.4,5.6v7.1H184.4z"/>
	<path class="st6" d="M197.8,31.6v-1.2c-0.9,0.8-1.9,1.4-3.2,1.4c-2.7,0-4.8-1.9-4.8-6.7c0-4.3,2.3-6.3,4.9-6.3
		c1.3,0,2.4,0.7,3.1,1.4v-4.7l2.4-1.3v17.2H197.8z M197.8,22.8c-0.5-0.7-1.7-1.6-2.9-1.6c-1.8,0-2.7,1.3-2.7,3.9
		c0,3.1,1,4.5,2.8,4.5c1.2,0,2.2-0.8,2.8-1.6V22.8z"/>
	<path class="st6" d="M208.7,31.8c-3.1,0-5.5-2.6-5.5-6.5c0-4.1,2.4-6.5,5.5-6.5c3.2,0,5.5,2.5,5.5,6.4
		C214.3,29.4,211.9,31.8,208.7,31.8z M208.6,21.2c-1.8,0-3,1.6-3,4.1c0,2.7,1.3,4.2,3.1,4.2c1.8,0,3-1.9,3-4.1
		C211.8,22.8,210.6,21.2,208.6,21.2z"/>
	<path class="st6" d="M224,21.7c-0.5-0.3-1.1-0.4-1.9-0.4c-1.5,0-2.4,1.1-2.4,3.2v7.1h-2.4V19.1h2.4v1.2c0.6-0.8,1.6-1.4,2.8-1.4
		c1,0,1.6,0.2,2.1,0.5L224,21.7z"/>
	<path class="st6" d="M231.6,16.5c-0.8,0-1.1,0.3-1.1,1.2v1.4h2.3v2.3h-2.3v10.1H228V21.4h-1.6v-2.3h1.6v-1.6c0-2.3,1.4-3.1,3.1-3.1
		c0.6,0,1.3,0.1,1.8,0.2v2.1C232.4,16.6,232,16.5,231.6,16.5z"/>
</g>
<g class="st7">
	<path class="st8" d="M23,247.2c-8.3-1-14.8-9.5-14.8-19.9V37.3c0-10.3,6.5-18.9,14.8-19.9v-0.1h-2.4c-9.3,0-16.8,8.9-16.8,20v190.1
		c0,11,7.5,20,16.8,20H23V247.2z"/>
</g>
</svg>
