<?xml version="1.0" encoding="utf-8"?>
<!-- Generator: Adobe Illustrator 19.0.0, SVG Export Plug-In . SVG Version: 6.00 Build 0)  -->
<svg version="1.1" id="Layer_1" xmlns="http://www.w3.org/2000/svg" xmlns:xlink="http://www.w3.org/1999/xlink" x="0px" y="0px"
	 viewBox="-289 412.9 16 16" style="enable-background:new -289 412.9 16 16;" xml:space="preserve">
<style type="text/css">
	.st0{fill:#494848;}
</style>
<path class="st0" d="M-273,419.9h-1.6c-0.4-2.8-2.6-5-5.4-5.4v-1.6h-2v1.6c-2.8,0.4-5,2.6-5.4,5.4h-1.6v2h1.6c0.4,2.8,2.6,5,5.4,5.4
	v1.6h2v-1.6c2.8-0.4,5-2.6,5.4-5.4h1.6V419.9z M-276.6,419.9h-1.6c-0.3-0.9-1-1.5-1.8-1.8v-1.6C-278.3,416.9-277,418.2-276.6,419.9z
	 M-281,421.9c-0.6,0-1-0.4-1-1c0-0.6,0.4-1,1-1s1,0.4,1,1C-280,421.4-280.4,421.9-281,421.9z M-282,416.5v1.6
	c-0.9,0.3-1.5,1-1.8,1.8h-1.6C-285,418.2-283.7,416.9-282,416.5z M-285.4,421.9h1.6c0.3,0.9,1,1.5,1.8,1.8v1.6
	C-283.7,424.9-285,423.6-285.4,421.9z M-280,425.3v-1.6c0.9-0.3,1.5-1,1.8-1.8h1.6C-277,423.6-278.3,424.9-280,425.3z"/>
</svg>
